<?xml version="1.0" encoding="utf-8" ?>
<svg xmlns="http://www.w3.org/2000/svg" xmlns:xlink="http://www.w3.org/1999/xlink" width="1024" height="1024">
	<path d="M237.589 556.765C234.449 519.5 235.592 482.093 236.121 444.751Q236.334 405.536 238.095 366.361Q239.856 327.185 243.162 288.11Q246.469 249.034 251.316 210.12Q256.164 171.206 262.544 132.513C265.325 116.525 266.987 96.3039 272.556 81.3331C273.665 78.3539 276.024 73.4946 279.217 72.2921C285.917 69.7685 336.586 72.4243 347.049 72.7457Q509.308 77.582 671.326 87.6707L703.535 89.5161C710.653 89.914 717.913 90.0616 724.944 91.2877C736.584 93.3177 747.406 99.5002 758.158 104.188C768.935 108.886 779.838 113.247 790.335 118.561Q789.554 142.735 789.564 166.921C812.565 184.04 832.617 203.035 851.056 224.958C853.286 263.432 851.789 302.59 849.412 341.015Q847.031 383.974 842.216 426.728Q837.401 469.483 830.169 511.895C825.905 537.618 821.894 563.548 815.618 588.867C848.214 624.723 862.353 666.233 873.764 712.355C890.407 714.058 908.784 720.635 921.978 731.075C931.333 738.479 939.885 749.703 941.26 761.874C941.931 767.803 940.935 774.435 937.018 779.124C931.764 785.412 924.89 785.601 917.399 786.351C917.127 790.113 916.825 793.599 915.192 797.078C913.028 801.685 909.143 805.095 904.363 806.806C896.562 809.6 887.501 807.846 880.215 804.336C868.765 798.821 862.475 789.45 858.345 777.785C852.385 775.792 847.241 773.333 841.816 770.157C838.498 772.88 835.208 775.257 831.226 776.924C823.434 780.186 812.549 780.986 804.713 777.589C800.477 775.753 796.883 772.245 795.381 767.825C793.387 761.959 795.307 755.17 797.956 749.793C807.387 730.648 827.684 720.252 846.925 713.598C839.08 686.391 830.346 660.446 816.492 635.612C812.835 629.056 808.861 622.091 803.942 616.413C802.573 618.997 801.276 621.181 799.019 623.092C788.499 631.998 756.49 642.901 742.543 648.277C740.566 656.445 739.505 664.801 737.763 673.019C726.14 678.299 689.77 690.181 677.716 691.517C667.751 692.621 647.155 691.879 636.666 691.138Q636.465 710.529 636.008 729.916Q668.539 733.87 700.904 739.006C714.469 741.189 728.354 743.101 741.443 747.396C741.681 754.964 740.619 762.433 739.761 769.935C726.706 775.339 713.254 779.238 699.797 783.468Q681.124 789.457 662.511 795.633Q649.477 799.859 636.524 804.326C628.239 807.192 619.07 811.31 610.345 812.189C602.667 812.962 593.78 811.111 586.153 810.057C574.84 808.494 563.539 806.804 552.211 805.359Q487.005 796.71 421.544 790.258L419.396 790.807L419.933 791.036C421.137 791.56 422.098 791.857 422.821 793.023C423.175 794.565 422.935 795.541 422.147 796.883C420.934 798.951 419.375 800.57 417.292 801.745L417.467 803.032C426.539 804.972 436.371 805.629 445.584 806.78Q474.781 810.435 504.023 813.717L673.788 832.715C682.815 847.299 688.955 863.021 693.94 879.371C676.115 894.457 655.493 907.161 636.154 920.283C621.135 930.473 605.95 940.307 590.705 950.146C582.867 955.205 575.104 960.783 566.917 965.253C564.172 966.751 561.16 968.312 558.062 968.872C551.183 970.115 543.437 969.119 536.467 968.807L512.122 967.811Q473.209 965.859 434.418 962.217Q395.626 958.574 357.03 953.249Q318.434 947.923 280.106 940.924Q241.778 933.925 203.79 925.266C191.379 922.524 166.432 919.183 156.44 912.158C156.388 912.034 156.334 911.91 156.284 911.785C156.201 911.576 156.124 911.365 156.043 911.156C152.221 901.343 151.589 887.535 151.493 876.986C169.764 860.984 295.178 785.155 314.271 780.249C328.53 776.585 356.239 779.572 371.481 780.581Q371.373 768.169 371.622 755.76C386.121 749.673 401.371 745.335 416.386 740.715Q442.116 732.983 467.483 724.132Q467.064 700.732 467.254 677.329C437.966 674.119 254.715 654.818 243.966 644.509C240.085 640.788 239.113 597.057 238.574 588.868C210.63 615.306 191.098 651.462 178.894 687.627C196.171 693.456 213.588 701.524 223.707 717.552C226.998 722.765 229.764 729.561 228.219 735.769C227.369 739.18 225.089 741.758 222.092 743.506C209.456 750.876 190.787 745.923 177.6 742.716C167.724 746.164 162.823 753.184 156.861 761.179C151.089 768.918 144.367 775.347 134.333 776.633C127.457 777.513 118.438 775.813 113.037 771.337C107.372 766.643 106.14 759.862 105.384 752.959C99.4173 752.273 93.0844 751.738 88.2789 747.714C85.0254 744.989 83.3762 741.292 82.9898 737.111C82.093 727.408 86.7511 717.671 92.765 710.333C106.695 693.336 130.451 686.306 151.491 684.138C157.195 669.337 162.366 654.397 169.087 639.996C183.884 608.291 207.732 575.689 237.589 556.765ZM388.125 787.607C383.097 788.176 364.194 787.815 361.36 790.917C361.646 792.11 361.727 792.088 362.757 792.677C369.47 796.514 389.186 798.557 397.404 799.484C402.515 800.082 408.397 800.426 413.105 802.572C414.582 802.829 415.967 802.998 417.467 803.032L417.292 801.745C419.375 800.57 420.934 798.951 422.147 796.883C422.935 795.541 423.175 794.565 422.821 793.023C422.098 791.857 421.137 791.56 419.933 791.036L419.396 790.807L421.544 790.258C412.982 788.949 404.099 788.611 395.461 788.05C393.003 787.797 390.602 787.561 388.125 787.607Z"/>
	<path fill="#CDCAB3" d="M94.6238 745.378C95.1429 741.256 97.8834 736.542 100.423 733.34C106.825 725.265 118.039 717.436 128.421 716.226C117.509 725.585 111.031 734.087 106.111 747.657C102.226 747.067 98.4456 746.29 94.6238 745.378Z"/>
	<path fill="#CDCAB3" d="M888.439 751.367C901.073 751.494 913.085 759.176 921.685 767.991C924.677 771.058 926.466 773.482 927.529 777.688C927.725 778.462 927.628 778.164 928.103 778.94C924.142 781.049 919.857 780.69 915.492 780.74C910.24 766.432 901.161 759.071 888.439 751.367Z"/>
	<path fill="#F8C36E" d="M307.959 788.659C311.862 786.733 315.493 785.271 319.827 784.62C330.802 782.971 342.838 784.351 353.855 785.113L388.125 787.607C383.097 788.176 364.194 787.815 361.36 790.917C361.646 792.11 361.727 792.088 362.757 792.677C369.47 796.514 389.186 798.557 397.404 799.484C402.515 800.082 408.397 800.426 413.105 802.572C398.754 801.908 381.224 798.832 366.621 797.016C348.095 794.713 325.664 793.162 307.959 788.659Z"/>
	<path fill="#F8C36E" fill-opacity="0.67450982" d="M388.125 787.607C390.602 787.561 393.003 787.797 395.461 788.05C404.099 788.611 412.982 788.949 421.544 790.258L419.396 790.807L419.933 791.036C421.137 791.56 422.098 791.857 422.821 793.023C423.175 794.565 422.935 795.541 422.147 796.883C420.934 798.951 419.375 800.57 417.292 801.745L417.467 803.032C415.967 802.998 414.582 802.829 413.105 802.572C408.397 800.426 402.515 800.082 397.404 799.484C389.186 798.557 369.47 796.514 362.757 792.677C361.727 792.088 361.646 792.11 361.36 790.917C364.194 787.815 383.097 788.176 388.125 787.607ZM395.461 788.05C396.043 789.404 396.373 789.283 397.75 789.87L394.894 789.817L394.772 790.322C397.054 792.049 402.524 790.747 405.398 791.691L402.631 791.873C404.845 792.141 408.212 792.105 410.134 793.198C409.624 794.07 409.991 793.659 409.083 794.249C408.334 794.736 408.186 794.859 407.846 795.648C405.71 795.637 403.673 793.643 402.134 793.654C401.022 793.662 402.272 795.159 400.331 793.981C398.933 794.477 397.54 795.089 396.049 795.19C396.904 795.981 397.483 796.216 398.539 796.659L398.005 796.87C398.166 796.875 398.328 796.864 398.488 796.886C399.407 797.008 399.954 797.504 400.695 798.009C400.95 798.183 401.313 797.978 401.621 797.956L401.271 798.183L400.879 797.746C399.482 797.898 398.031 798.187 396.682 798.576L397.404 799.484C402.515 800.082 408.397 800.426 413.105 802.572C414.582 802.829 415.967 802.998 417.467 803.032L417.292 801.745C419.375 800.57 420.934 798.951 422.147 796.883C422.935 795.541 423.175 794.565 422.821 793.023C422.098 791.857 421.137 791.56 419.933 791.036L419.396 790.807L421.544 790.258C412.982 788.949 404.099 788.611 395.461 788.05Z"/>
	<defs>
		<linearGradient id="gradient_0" gradientUnits="userSpaceOnUse" x1="416.00995" y1="794.3999" x2="413.88199" y2="794.18866">
			<stop offset="0" stop-color="#F7C26C" stop-opacity="0.21568628"/>
			<stop offset="1" stop-color="#F7C26C" stop-opacity="0.25882354"/>
		</linearGradient>
	</defs>
	<path fill="url(#gradient_0)" d="M395.461 788.05C404.099 788.611 412.982 788.949 421.544 790.258L419.396 790.807L419.933 791.036C421.137 791.56 422.098 791.857 422.821 793.023C423.175 794.565 422.935 795.541 422.147 796.883C420.934 798.951 419.375 800.57 417.292 801.745L417.467 803.032C415.967 802.998 414.582 802.829 413.105 802.572C408.397 800.426 402.515 800.082 397.404 799.484L396.682 798.576C398.031 798.187 399.482 797.898 400.879 797.746L401.271 798.183L401.621 797.956C401.313 797.978 400.95 798.183 400.695 798.009C399.954 797.504 399.407 797.008 398.488 796.886C398.328 796.864 398.166 796.875 398.005 796.87L398.539 796.659C397.483 796.216 396.904 795.981 396.049 795.19C397.54 795.089 398.933 794.477 400.331 793.981C402.272 795.159 401.022 793.662 402.134 793.654C403.673 793.643 405.71 795.637 407.846 795.648C408.186 794.859 408.334 794.736 409.083 794.249C409.991 793.659 409.624 794.07 410.134 793.198C408.212 792.105 404.845 792.141 402.631 791.873L405.398 791.691C402.524 790.747 397.054 792.049 394.772 790.322L394.894 789.817L397.75 789.87C396.373 789.283 396.043 789.404 395.461 788.05Z"/>
	<path fill="#CDCAB3" d="M800.908 757.608C806.467 762.281 811.387 764.929 818.995 764.245C835.709 762.742 845.468 748.066 862.222 761.906C865.637 764.727 868.279 768.138 870.903 771.678C879.05 782.67 883.792 788.781 896.744 794.147C900.304 795.622 904.245 797.524 908.007 798.318C906.342 799.718 904.605 800.829 902.551 801.579C896.338 803.846 889.162 802.761 883.322 799.876C873.01 794.781 865.972 785.182 862.388 774.486C855.118 770.969 848.201 766.854 840.989 763.242C839.398 764.824 837.805 766.461 835.978 767.772C829.024 772.759 819.598 775.254 811.114 773.855C807.773 773.304 804.398 772.046 802.42 769.14C800.231 765.924 800.187 761.29 800.908 757.608Z"/>
	<path fill="#CDCAB3" d="M221.228 724.344C222.358 728.291 223.756 732.569 221.531 736.435C220.127 738.874 217.515 740.147 214.868 740.779C201.17 744.052 183.171 735.295 172.773 738.816C152.386 745.721 149.777 780.863 120.055 769.009C125.703 766.25 131.051 764.602 136.034 760.464C139.933 757.226 142.875 753.012 145.952 749.026C154.162 738.393 163.239 728.209 177.077 725.685C188.074 723.679 198.286 729.709 209.216 729.723C211.742 729.726 214.4 729.064 216.881 728.589L221.228 724.344Z"/>
	<path fill="#7CAAA6" d="M381.434 758.069C408.967 748.561 439.734 737.492 467.715 730.457C467.668 737.313 467.624 744.168 468.155 751.009C465.117 757.713 451.448 763.826 445.358 767.835C425.602 765.203 400.345 763.008 381.434 758.069Z"/>
	<path fill="#707C88" d="M472.312 678.021L545.314 685.007C559.331 686.346 573.894 688.494 587.963 688.549C588.12 698.249 589.14 709.562 587.566 719.124C587.193 715.241 587.437 711.24 587.504 707.339C564.964 703.382 539.365 701.853 516.314 699.294C501.771 697.68 486.85 694.549 472.273 693.886Q472.188 685.953 472.312 678.021Z"/>
	<path fill="#0F7470" d="M734.646 751.016L735.662 751.316C737.437 754.863 735.269 762.83 734.535 766.634C726.463 769.009 718.492 772.234 710.436 774.777Q662.045 790 614.111 806.606L613.187 806.165C611.367 801.993 612.544 794.21 612.688 789.603C626.295 785.654 639.792 781.107 653.298 776.809L734.646 751.016Z"/>
	<path fill="#C77336" d="M236.859 561.475C238.809 567.122 238.28 575.355 238.556 581.355C232.188 585.66 226.848 592.32 221.996 598.24C204.282 619.851 190.676 642.574 179.847 668.328C177.444 674.044 174.611 679.953 173 685.944C169.401 685.173 165.874 684.595 162.214 684.206C160.809 683.986 159.57 684.125 158.584 683.055C158.609 682.781 158.627 682.505 158.658 682.231C159.4 675.669 164.873 665.07 167.622 658.618C184.935 617.99 202.618 589.803 236.859 561.475Z"/>
	<path fill="#707C88" d="M591.509 689.029C604.854 690.488 618.34 690.92 631.743 691.581C630.538 709.14 631.316 727.915 630.977 745.624C627.916 746.523 624.88 747.527 621.837 748.488C611.373 751.352 601.043 755.125 590.74 758.531C591.398 735.39 591.387 712.181 591.509 689.029Z"/>
	<path fill="#C77336" d="M776.875 563.443C780.122 563.552 782.478 564.753 785.146 566.547C794.996 573.174 803.862 583.593 811.421 592.698C842.034 629.568 857.787 665.195 867.278 711.928C864.499 712.031 861.711 712.263 858.934 712.438C856.911 712.476 854.949 712.731 852.945 712.991C849.417 703.411 846.94 693.351 843.614 683.676C832.892 652.486 818.555 620.837 795.075 597.048C788.673 590.562 781.454 585.243 774.584 579.318C772.554 577.567 769.897 575.112 769.988 572.173C770.106 568.399 774.264 565.62 776.875 563.443Z"/>
	<path fill="#54B8BE" d="M377.008 761.112C387.537 762.25 398.067 764.435 408.541 766.067Q430.776 769.396 453.079 772.232Q530.91 782.108 608.973 789.949L608.98 807.253C597.031 804.934 584.709 803.56 572.627 802.053L519.519 795.586C472.262 789.827 424.567 783.502 377.014 780.92L377.008 761.112Z"/>
	<path fill="#A9B29C" d="M671.698 842.375C672.156 842.464 672.64 842.719 673.073 842.896C678.431 849.899 683.988 867.648 687.43 876.728C683.547 880.191 678.954 883.195 674.766 886.296C666.418 892.478 658.092 898.628 649.511 904.482Q608.672 932.542 566.288 958.208C563.993 959.565 561.737 961.006 559.465 962.404C557.318 953.543 555.524 944.735 554.273 935.7C558.799 932.129 563.038 928.188 567.552 924.592L613.703 888.215C632.971 872.821 651.991 857.215 671.698 842.375Z"/>
	<path fill="#E2DED1" d="M94.6238 745.378C92.867 744.129 91.3176 742.796 90.2451 740.896C87.907 736.752 88.2758 732.186 89.6023 727.778C93.3388 715.363 102.968 706.226 114.187 700.278C134.559 689.477 157.957 686.922 180 693.864C196.515 699.066 212.98 708.565 221.228 724.344L216.881 728.589C214.4 729.064 211.742 729.726 209.216 729.723C198.286 729.709 188.074 723.679 177.077 725.685C163.239 728.209 154.162 738.393 145.952 749.026C142.875 753.012 139.933 757.226 136.034 760.464C131.051 764.602 125.703 766.25 120.055 769.009Q118.69 768.249 117.388 767.387C114.038 765.144 112.001 761.623 111.328 757.678C109.498 746.938 115.748 734.507 122.897 726.865C125.511 724.07 129.31 721.619 131.35 718.376C131.945 717.43 131.958 717.365 131.735 716.234C130.293 715.741 129.877 715.924 128.421 716.226C118.039 717.436 106.825 725.265 100.423 733.34C97.8834 736.542 95.1429 741.256 94.6238 745.378Z"/>
	<path fill="#CDCAB3" d="M156.235 880.854Q193.226 889.226 230.457 896.457Q267.688 903.689 305.124 909.773Q342.56 915.858 380.165 920.789Q417.769 925.721 455.508 929.495Q484.796 932.696 514.19 934.687C524.848 935.486 536.137 936.858 546.801 936.297Q545.713 942.145 544.837 948.028C453.847 945.366 369.696 937.983 280.292 919.966Q242.462 912.073 205.063 902.342C189.564 898.384 173.875 893.409 158.028 891.126L156.235 880.854Z"/>
	<path fill="#E2DED1" d="M800.908 757.608C809.664 739.763 821.023 728.24 840.152 721.595C861.228 714.274 885.122 717.447 904.906 727.148C917.867 733.504 929.947 743.235 934.636 757.363C936.317 762.426 937.266 767.97 934.588 772.89C933.092 775.638 930.797 777.452 928.103 778.94C927.628 778.164 927.725 778.462 927.529 777.688C926.466 773.482 924.677 771.058 921.685 767.991C913.085 759.176 901.073 751.494 888.439 751.367L886.498 750.721L885.868 751.206C887.512 754.692 893.619 757.799 896.576 760.525C904.939 768.235 914.301 782.744 909.979 794.547C909.492 795.876 908.733 797.108 908.007 798.318C904.245 797.524 900.304 795.622 896.744 794.147C883.792 788.781 879.05 782.67 870.903 771.678C868.279 768.138 865.637 764.727 862.222 761.906C845.468 748.066 835.709 762.742 818.995 764.245C811.387 764.929 806.467 762.281 800.908 757.608Z"/>
	<path fill="#A9B29C" d="M158.028 891.126C173.875 893.409 189.564 898.384 205.063 902.342Q242.462 912.073 280.292 919.966C369.696 937.983 453.847 945.366 544.837 948.028Q545.713 942.145 546.801 936.297C547.873 936.469 548.467 936.765 549.377 937.351C553.188 943.035 553.767 956.209 554.707 963.004C535.882 962.287 517.127 962.163 498.297 961.1Q446.846 957.952 395.633 952.099Q344.419 946.247 293.585 937.707Q248.862 929.961 204.636 919.751C190.094 916.446 175.619 912.083 160.995 909.296Q159.397 900.23 158.028 891.126Z"/>
	<path fill="#7CAAA6" d="M472.273 693.886C486.85 694.549 501.771 697.68 516.314 699.294C539.365 701.853 564.964 703.382 587.504 707.339C587.437 711.24 587.193 715.241 587.566 719.124C587.562 732.309 587.727 745.446 586.913 758.62C548.717 754.883 510.582 752.428 472.501 747.381C472.517 729.578 472.933 711.672 472.273 693.886Z"/>
	<path fill="#54B8BE" d="M635.497 735.281L686.3 742.665C699.824 744.657 713.391 746.356 726.628 749.87C707.185 757.384 686.662 762.438 666.804 768.798L635.653 778.909C627.648 781.551 619.376 784.922 610.993 786.044C602.613 787.166 579.581 783.471 570.206 782.442Q526.235 777.832 482.333 772.605C471.848 771.35 454.804 770.398 445.358 767.835C451.448 763.826 465.117 757.713 468.155 751.009L544.951 758.71C557.362 759.98 576.749 763.449 588.677 762.031C599.173 760.782 609.713 755.634 619.78 752.551C623.775 751.327 631.517 751.191 634.497 748.461C636.409 746.71 635.545 737.806 635.497 735.281Z"/>
	<path fill="#0F7470" d="M787.476 225.656C795.169 227.047 806.647 239.647 811.008 245.872C813.808 249.868 815.593 253.772 816.241 258.652C818.323 274.311 815.355 295.019 814.307 311.132Q811.306 361.645 805.294 411.888Q799.283 462.132 790.282 511.927C787.348 527.912 783.473 543.716 780.444 559.676C776.91 559.998 773.678 561.509 770.996 563.812C768.475 565.977 766.315 568.852 766.136 572.287C766.035 574.212 766.371 576.189 767.427 577.823C771.022 583.385 777.41 587.839 782.208 592.381Q791.85 601.336 800.351 611.38C782.801 623.484 763.843 630.355 744.155 637.991C746.794 625.154 748.525 612.12 750.452 599.16Q755.067 568.545 759.184 537.86Q769.743 460.164 776.82 382.074Q783.896 303.984 787.476 225.656Z"/>
	<path fill="#1D908E" d="M789.409 172.605C797.966 180.313 807.037 187.44 815.499 195.251C826.2 205.128 836.348 216.188 845.972 227.114C846.015 270.342 845.939 313.609 842.956 356.756C837.678 433.076 825.336 508.423 811.603 583.609C802.557 574.417 793.237 563.49 780.444 559.676C783.473 543.716 787.348 527.912 790.282 511.927Q799.283 462.132 805.294 411.888Q811.306 361.645 814.307 311.132C815.355 295.019 818.323 274.311 816.241 258.652C815.593 253.772 813.808 249.868 811.008 245.872C806.647 239.647 795.169 227.047 787.476 225.656C788.058 208.009 788.205 190.214 789.409 172.605Z"/>
	<path fill="#A9B29C" d="M729.543 98.1575C747.905 105.753 766.631 113.555 784.497 122.234Q783.959 206.552 778.729 290.709Q773.499 374.866 763.594 458.602Q755.44 533.271 744.072 607.519C740.933 627.789 737.172 647.92 733.756 668.14C721.305 671.191 708.908 675.468 696.622 679.162Q687.969 681.744 679.235 684.034C681.212 671.925 683.607 659.881 685.575 647.769C687.689 634.759 689.358 621.646 691.193 608.593C702.232 607.901 714.192 606.795 724.815 603.721C713.645 601.282 703.321 603.048 692.182 604.798C694.192 583.218 697.96 561.65 700.656 540.131Q707.939 481.076 713.521 421.837Q720.905 341.12 724.912 260.165Q728.92 179.209 729.543 98.1575Z"/>
	<path fill="#E2DED1" d="M243.373 560.884C251.349 562.558 259.492 563.482 267.553 564.636Q290.358 567.892 313.223 570.695Q380.094 579.08 447.124 586.08Q522.375 594.524 597.79 601.345C627.562 604.162 657.722 607.865 687.615 608.628C683.613 629.619 680.852 651.025 677.313 672.124C676.627 675.995 675.892 679.866 675.387 683.766C630.254 678.421 584.908 675.155 539.665 670.872Q445.11 661.963 350.805 650.704L295.269 644.255C279.95 642.486 263.356 641.591 248.678 636.764C246.455 627.036 246.038 616.747 245.411 606.814Q244.043 583.865 243.373 560.884Z"/>
	<path d="M528.974 610.55C533.484 610.248 538.039 611.044 542.03 613.225Q542.506 613.489 542.967 613.776Q543.429 614.064 543.875 614.375Q544.321 614.686 544.751 615.02Q545.18 615.353 545.592 615.708Q546.004 616.063 546.398 616.439Q546.791 616.814 547.164 617.21Q547.538 617.605 547.891 618.019Q548.244 618.433 548.575 618.864Q548.906 619.296 549.214 619.744Q549.523 620.191 549.808 620.655Q550.093 621.118 550.354 621.595Q550.616 622.072 550.852 622.562Q551.088 623.051 551.299 623.553Q551.51 624.054 551.695 624.565Q551.88 625.077 552.039 625.597Q552.197 626.117 552.329 626.645Q552.454 627.127 552.555 627.615Q552.656 628.102 552.731 628.594Q552.807 629.087 552.858 629.582Q552.908 630.077 552.934 630.575Q552.959 631.072 552.959 631.57Q552.96 632.068 552.934 632.565Q552.909 633.062 552.859 633.558Q552.809 634.053 552.733 634.545Q552.658 635.038 552.557 635.525Q552.457 636.013 552.332 636.495Q552.207 636.977 552.058 637.452Q551.908 637.927 551.735 638.394Q551.562 638.861 551.365 639.318Q551.168 639.776 550.949 640.223Q550.729 640.669 550.487 641.105Q550.245 641.54 549.981 641.962C546.478 647.568 541.331 650.021 535.147 651.517C531.22 651.625 527.015 650.863 523.446 649.215Q522.961 648.989 522.487 648.74Q522.014 648.49 521.554 648.217Q521.094 647.944 520.648 647.647Q520.202 647.351 519.772 647.033Q519.342 646.715 518.928 646.376Q518.514 646.036 518.118 645.677Q517.722 645.317 517.345 644.938Q516.967 644.558 516.609 644.16Q516.252 643.763 515.914 643.347Q515.577 642.932 515.261 642.5Q514.945 642.068 514.651 641.621Q514.357 641.174 514.086 640.712Q513.815 640.251 513.568 639.776Q513.32 639.302 513.097 638.816Q512.874 638.329 512.676 637.832Q512.477 637.335 512.304 636.829Q512.142 636.364 512.006 635.892Q511.869 635.419 511.757 634.94Q511.645 634.461 511.559 633.976Q511.472 633.492 511.411 633.003Q511.35 632.515 511.315 632.024Q511.28 631.534 511.27 631.042Q511.261 630.55 511.278 630.058Q511.294 629.566 511.336 629.076Q511.379 628.585 511.447 628.098Q511.515 627.611 511.608 627.128Q511.702 626.645 511.821 626.167Q511.94 625.69 512.083 625.219Q512.227 624.748 512.395 624.286Q512.564 623.824 512.756 623.371Q512.948 622.918 513.164 622.475Q513.38 622.033 513.619 621.603C517.028 615.336 522.452 612.547 528.974 610.55Z"/>
	<path fill="#D6322A" d="M540.632 617.642C544.454 619.889 548.098 623.675 549.228 628.069C550.186 631.799 549.338 635.74 547.292 638.956Q546.801 639.716 546.238 640.423Q545.675 641.131 545.045 641.779Q544.415 642.428 543.724 643.011Q543.033 643.594 542.287 644.107Q541.542 644.619 540.75 645.055Q539.958 645.492 539.127 645.848Q538.296 646.204 537.433 646.476Q536.571 646.749 535.686 646.935C531.448 647.805 526.498 647.236 522.841 644.812C519.937 642.887 517.223 639.058 516.522 635.655C519.271 637.511 522.078 638.906 525.105 640.249C529.676 639.994 534.03 639.148 537.668 636.164C541.708 632.849 542.879 628.777 543.453 623.83C542.409 621.791 541.435 619.794 540.632 617.642Z"/>
	<path fill="#F36646" d="M516.522 635.655C515.786 634.827 515.668 634.473 515.451 633.371C514.676 629.432 516.305 625.53 518.531 622.352C521.318 618.372 525.756 615.49 530.581 614.75C534.372 614.168 537.643 615.357 540.632 617.642C541.435 619.794 542.409 621.791 543.453 623.83C542.879 628.777 541.708 632.849 537.668 636.164C534.03 639.148 529.676 639.994 525.105 640.249C522.078 638.906 519.271 637.511 516.522 635.655Z"/>
	<path d="M466.645 603.18C471.85 603.282 476.316 604.072 480.675 607.177Q481.119 607.495 481.547 607.834Q481.974 608.174 482.385 608.534Q482.796 608.894 483.188 609.274Q483.581 609.653 483.954 610.052Q484.327 610.451 484.681 610.867Q485.034 611.283 485.367 611.716Q485.699 612.15 486.01 612.599Q486.321 613.048 486.609 613.511Q486.898 613.975 487.163 614.452Q487.429 614.93 487.67 615.419Q487.912 615.909 488.129 616.41Q488.347 616.911 488.539 617.422Q488.732 617.933 488.899 618.453Q489.066 618.973 489.207 619.5Q489.349 620.028 489.464 620.561Q489.58 621.095 489.669 621.634Q489.743 622.126 489.794 622.621Q489.844 623.115 489.87 623.612Q489.896 624.109 489.897 624.606Q489.899 625.104 489.876 625.6Q489.853 626.097 489.806 626.592Q489.759 627.087 489.688 627.58Q489.616 628.072 489.521 628.56Q489.426 629.048 489.307 629.531Q489.188 630.014 489.045 630.49Q488.902 630.967 488.737 631.436Q488.571 631.905 488.382 632.365Q488.194 632.825 487.983 633.276Q487.772 633.726 487.539 634.166Q487.306 634.605 487.053 635.033Q486.799 635.461 486.524 635.875Q486.25 636.29 485.955 636.691C482.352 641.573 476.96 643.905 471.129 644.84C466.186 644.653 461.821 643.967 457.571 641.181Q457.115 640.881 456.675 640.558Q456.234 640.235 455.811 639.891Q455.387 639.547 454.981 639.182Q454.575 638.817 454.188 638.432Q453.8 638.048 453.433 637.644Q453.065 637.241 452.718 636.819Q452.371 636.398 452.045 635.96Q451.72 635.522 451.416 635.068Q451.113 634.614 450.832 634.146Q450.552 633.677 450.295 633.195Q450.038 632.714 449.806 632.22Q449.574 631.726 449.366 631.221Q449.159 630.716 448.977 630.201Q448.795 629.687 448.638 629.164Q448.482 628.64 448.352 628.11Q448.222 627.58 448.119 627.044Q448.027 626.561 447.959 626.073Q447.891 625.586 447.847 625.096Q447.803 624.606 447.784 624.115Q447.764 623.623 447.768 623.131Q447.772 622.64 447.801 622.148Q447.829 621.657 447.881 621.168Q447.934 620.679 448.01 620.193Q448.087 619.707 448.187 619.226Q448.287 618.744 448.41 618.268Q448.534 617.792 448.681 617.322Q448.828 616.853 448.997 616.391Q449.167 615.929 449.359 615.477Q449.551 615.024 449.765 614.581Q449.979 614.138 450.215 613.706Q450.45 613.274 450.707 612.854Q450.963 612.435 451.24 612.028C455.014 606.562 460.321 604.229 466.645 603.18Z"/>
	<path fill="#C77336" d="M479.216 611.535C482.754 614.423 485.228 617.879 485.783 622.523Q485.874 623.318 485.884 624.119Q485.893 624.919 485.82 625.716Q485.748 626.513 485.595 627.298Q485.441 628.084 485.208 628.85Q484.975 629.615 484.666 630.353Q484.356 631.091 483.972 631.794Q483.588 632.496 483.135 633.156Q482.681 633.815 482.163 634.425Q481.636 635.057 481.05 635.634Q480.464 636.211 479.824 636.728Q479.185 637.245 478.497 637.697Q477.81 638.148 477.081 638.53Q476.352 638.912 475.59 639.221Q474.828 639.529 474.038 639.762Q473.249 639.994 472.441 640.148Q471.633 640.301 470.814 640.375C466.233 640.754 461.682 639.077 458.188 636.135C457.278 635.369 456.433 634.483 455.652 633.586C460.948 634.503 466.568 634.922 471.695 632.939C475.408 631.504 478.254 628.876 479.772 625.17C481.72 620.412 481.044 616.109 479.216 611.535Z"/>
	<path fill="#F8C36E" d="M452.237 623.958C455.595 625.655 459.346 628.044 463.231 627.753C470.8 627.185 472.374 615.062 476.845 610.328C476.944 610.223 477.047 610.123 477.148 610.02L479.216 611.535C481.044 616.109 481.72 620.412 479.772 625.17C478.254 628.876 475.408 631.504 471.695 632.939C466.568 634.922 460.948 634.503 455.652 633.586C453.005 630.839 452.473 627.638 452.237 623.958Z"/>
	<path fill="#FCC723" d="M452.237 623.958C452.375 621.419 452.446 618.966 453.532 616.616C455.236 612.928 458.038 610.082 461.87 608.663C467.135 606.714 472.23 607.731 477.148 610.02C477.047 610.123 476.944 610.223 476.845 610.328C472.374 615.062 470.8 627.185 463.231 627.753C459.346 628.044 455.595 625.655 452.237 623.958Z"/>
	<path d="M599.015 614.62C603.494 614.968 607.772 615.904 611.637 618.31Q612.095 618.598 612.538 618.908Q612.981 619.219 613.407 619.553Q613.833 619.886 614.241 620.242Q614.649 620.597 615.038 620.973Q615.427 621.349 615.796 621.745Q616.165 622.14 616.513 622.554Q616.861 622.969 617.187 623.401Q617.513 623.833 617.816 624.281Q618.119 624.729 618.399 625.192Q618.678 625.656 618.933 626.133Q619.188 626.61 619.418 627.1Q619.647 627.59 619.851 628.091Q620.055 628.592 620.233 629.103Q620.411 629.614 620.562 630.134Q620.713 630.653 620.836 631.18Q620.96 631.707 621.056 632.239C622.081 637.64 621.027 643.152 617.919 647.71C613.79 653.764 607.924 656.008 601.037 657.361C596.925 657.452 592.33 656.036 588.851 653.925C583.784 650.848 580.434 645.721 579.191 639.964Q579.081 639.473 578.995 638.978Q578.909 638.482 578.849 637.983Q578.788 637.484 578.753 636.982Q578.718 636.481 578.708 635.978Q578.698 635.475 578.713 634.972Q578.728 634.47 578.769 633.969Q578.809 633.467 578.875 632.969Q578.941 632.47 579.031 631.976Q579.122 631.481 579.238 630.992Q579.353 630.502 579.493 630.019Q579.633 629.536 579.797 629.061Q579.961 628.586 580.149 628.119Q580.337 627.653 580.548 627.196Q580.759 626.74 580.993 626.295Q581.227 625.849 581.483 625.416Q581.739 624.984 582.016 624.564C586.153 618.223 592.034 616.175 599.015 614.62Z"/>
	<path fill="#0B6C8C" d="M611.152 623.182C614.781 626.766 617.507 631.062 617.606 636.314C617.689 640.728 615.717 644.747 612.549 647.755Q612.195 648.092 611.824 648.41Q611.453 648.728 611.067 649.026Q610.68 649.325 610.278 649.603Q609.877 649.882 609.462 650.139Q609.046 650.396 608.618 650.632Q608.19 650.867 607.751 651.08Q607.311 651.294 606.861 651.484Q606.411 651.674 605.952 651.841Q605.493 652.008 605.026 652.151Q604.559 652.294 604.085 652.413Q603.611 652.532 603.131 652.626Q602.652 652.721 602.169 652.79Q601.685 652.86 601.198 652.904Q600.712 652.949 600.224 652.969Q599.736 652.988 599.247 652.982Q598.759 652.977 598.271 652.946Q597.461 652.9 596.66 652.77Q595.859 652.64 595.076 652.428Q594.293 652.216 593.536 651.923Q592.779 651.631 592.057 651.262Q591.334 650.893 590.654 650.451Q589.973 650.009 589.342 649.499Q588.711 648.99 588.136 648.417Q587.561 647.844 587.049 647.215C585.469 645.308 584.535 643.276 583.646 640.986C587.469 643.083 590.949 644.887 595.416 645.005C599.398 645.11 603.215 643.76 606.048 640.926C611.092 635.878 611.046 629.806 611.152 623.182Z"/>
	<path fill="#1498C8" d="M583.646 640.986C582.974 639.427 582.559 637.996 582.444 636.292C582.153 631.978 583.977 627.737 586.873 624.598C590.162 621.033 594.877 618.724 599.749 618.575C604.536 618.429 607.721 620.033 611.152 623.182C611.046 629.806 611.092 635.878 606.048 640.926C603.215 643.76 599.398 645.11 595.416 645.005C590.949 644.887 587.469 643.083 583.646 640.986Z"/>
	<path d="M277.657 591.484C283.916 591.346 290.224 592.46 296.421 593.246L323.745 596.654C350.89 599.944 378.127 602.607 405.233 606.167C405.765 613.53 406.505 621.905 404.698 629.112Q340.377 623.324 276.502 613.801C276.439 607.815 276.136 601.556 277.024 595.636L277.657 591.484Z"/>
	<path fill="#54B8BE" d="M281.002 595.869Q340.68 603.432 400.48 609.945Q400.718 617.308 400.632 624.675C392.971 623.361 385.129 622.671 377.41 621.746L334.531 616.597L301.001 612.514C294.399 611.713 287.691 610.611 281.043 610.395L281.002 595.869Z"/>
	<path fill="#CDCAB3" d="M301.982 792.47C313.068 793.178 324.19 795.738 335.217 797.197L412.522 807.106L671.388 837.704C662.285 844.512 653.52 851.77 644.59 858.801C613.315 883.426 582.39 908.789 550.446 932.515L533.124 931.538C522.389 931.364 511.506 930.164 500.803 929.31Q466.538 926.761 432.422 922.682Q363.917 915.239 295.934 903.988Q227.951 892.736 160.701 877.712C166.773 872.842 173.635 868.847 180.184 864.652Q197.596 853.418 215.31 842.666C243.634 825.346 272.061 806.899 301.982 792.47Z"/>
	<path d="M316.31 803.382C316.879 803.548 317.447 803.699 318.018 803.857C325.965 806.047 334.876 806.368 343.068 807.399L385.568 813.008L546.756 834.519C556.992 835.882 589.061 838.456 596.744 842.605C590.309 849.363 578.936 854.644 571.109 860.146Q543.869 879.13 517.875 899.787L510.598 898.391C443.227 886.334 375.241 877.609 307.478 868.042C283.535 864.661 259.262 861.902 235.439 857.813C233.374 857.459 231.725 856.941 229.96 855.8C229.614 855.228 229.044 854.75 229.285 854.062C232.321 845.4 303.399 811.504 315.708 803.764L316.31 803.382Z"/>
	<path fill="#CDCAB3" d="M360.788 814.359C371.962 817.014 383.828 817.576 395.139 819.844C391.401 822.292 379.777 830.545 375.894 830.527C364.36 827.945 352.335 826.967 340.636 825.269C347.252 821.459 354.045 817.939 360.788 814.359Z"/>
	<path fill="#CDCAB3" d="M314.985 809.524C327.094 809.122 341.035 811.225 352.83 813.823C347.147 818.183 340.281 821.571 334.018 825.031C322.669 822.151 307.268 821.128 295.431 819.717C301.616 815.767 308.393 812.717 314.985 809.524Z"/>
	<path fill="#CDCAB3" d="M403.064 820.451C408.293 821.247 413.594 821.664 418.839 822.39C426.89 823.504 434.922 824.875 443.01 825.685C436.572 829.635 429.808 833.398 423.684 837.81C410.232 834.634 396.276 833.345 382.621 831.262Q392.704 825.596 403.064 820.451Z"/>
	<path fill="#CDCAB3" d="M449.1 827.018C455.587 826.854 462.416 828.233 468.83 829.128C475.933 830.119 483.146 830.909 490.182 832.299C483.658 835.806 477.889 840.702 471.396 844.305C463.881 843.202 456.388 841.955 448.854 840.976C442.398 840.138 435.753 839.629 429.401 838.219Q439.014 832.203 449.1 827.018Z"/>
	<path fill="#CDCAB3" d="M331.719 829.513C337.79 829.343 343.992 830.667 349.996 831.53Q360.5 833.022 371.036 834.265C364.269 838.323 357.762 842.988 351.191 847.366C346.099 848.304 319.503 842.996 312.78 841.635C318.977 837.382 325.291 833.408 331.719 829.513Z"/>
	<path fill="#CDCAB3" d="M519.837 856.431C523.955 856.643 528.408 857.754 532.496 858.406Q546.439 860.544 560.317 863.066C554.013 866.963 547.993 871.328 541.926 875.581C538.45 875.323 534.564 874.085 531.067 873.512Q516.356 871.076 501.591 868.99C507.841 865.269 513.832 860.564 519.837 856.431Z"/>
	<path fill="#CDCAB3" d="M289.51 822.594C294.368 825.558 320.007 827.534 327.041 828.214C320.675 832.603 310.853 841.103 302.887 840.529C290.247 838.614 277.48 837.503 264.821 835.689L289.51 822.594Z"/>
	<path fill="#CDCAB3" d="M496.903 833.173C501.346 834.3 506.635 834.69 511.213 835.24C520.364 836.339 529.523 837.293 538.635 838.699C532.111 842.715 525.925 847.257 519.461 851.37C505.423 848.639 490.892 846.972 476.687 845.287C483.266 840.954 490.052 837.056 496.903 833.173Z"/>
	<path fill="#CDCAB3" d="M423.476 842.385C437.2 844.853 451.092 846.54 464.929 848.234C459.026 852.651 452.236 856.423 446.712 861.229L403.977 855.266C410.351 850.801 416.958 846.638 423.476 842.385Z"/>
	<path fill="#CDCAB3" d="M376.836 834.896C390.111 838.821 404.008 839.098 417.537 841.796C412.545 845.197 403.485 852.505 398.044 854.289C384.152 851.95 369.941 850.127 355.968 848.262C362.963 843.878 370.04 839.584 376.836 834.896Z"/>
	<path fill="#CDCAB3" d="M304.564 845.927C309.062 845.202 336.602 849.686 341.909 851.277L342.177 851.831C337.66 856.792 330.526 859.653 325.616 864.355C325.373 864.588 325.135 864.826 324.895 865.061C311.548 863.472 298.275 860.748 284.944 859.331Q294.528 852.298 304.564 845.927Z"/>
	<path fill="#CDCAB3" d="M471.478 849.034C483.503 852.457 502.222 853.859 514.893 855.217C509.333 858.979 502.883 866.179 496.388 867.958C487.638 867.037 478.899 865.492 470.182 864.266C465.334 863.584 460.29 863.336 455.499 862.418C454.578 862.242 453.544 862.169 453.011 861.377C457.617 856.526 465.73 852.63 471.478 849.034Z"/>
	<path fill="#CDCAB3" d="M544.714 839.515C558.037 839.118 573.934 842.475 587.162 844.765C580.47 849.023 573.901 853.278 567.466 857.923C561.947 859.811 532.409 853.67 525.586 852.221C531.732 847.626 538.202 843.563 544.714 839.515Z"/>
	<path fill="#CDCAB3" d="M257.413 840.009C271.627 841.043 285.758 844.023 299.95 844.614C296.421 847.417 282.264 858.701 278.444 858.658C265.211 855.588 248.191 854.049 234.596 853.406C242.075 848.619 249.591 844.214 257.413 840.009Z"/>
	<path fill="#CDCAB3" d="M495.945 873.487C501.011 873.365 506.655 874.635 511.668 875.424C520.103 876.752 528.516 878.166 536.99 879.229C530.967 884.588 524.332 889.488 517.684 894.041C514.998 895.645 482.814 888.881 477.057 887.637C483.189 882.699 489.576 878.111 495.945 873.487Z"/>
	<path fill="#CDCAB3" d="M349.492 852.059C354.197 853.366 359.437 853.846 364.273 854.522C373.623 855.827 383.029 856.933 392.321 858.607C387.958 862.134 378.887 871.206 374.072 872.793C359.29 869.872 344.09 867.868 329.176 865.672C335.756 860.705 342.424 856.281 349.492 852.059Z"/>
	<path fill="#CDCAB3" d="M398.054 859.495C409.315 859.249 428.876 863.41 440.702 865.298C435.556 870.773 429.001 874.68 423.797 880.176C409.741 876.869 394.216 875.945 379.853 873.157C386.014 868.592 391.585 863.715 398.054 859.495Z"/>
	<path fill="#CDCAB3" d="M446.337 866.005C458.113 869.373 478.052 870.688 490.915 872.247C484.23 877.027 477.84 882.081 471.51 887.319C457.15 884.046 442.009 882.482 427.395 880.695Q436.547 872.938 446.337 866.005Z"/>
	<path fill="#E2DED1" d="M284.079 77.0338C291.753 75.7545 309.623 77.1791 318.327 77.327Q373.602 78.3529 428.825 80.9783Q533.379 85.1302 637.849 91.0285C667.151 92.8056 696.612 94.2188 725.818 97.1857C726.835 137.921 724.925 179.01 723.286 219.718Q717.724 355.642 702.518 490.827Q698.156 529.729 692.945 568.526C691.402 580.121 690.634 592.622 687.943 603.973C686.922 604.829 686.003 604.567 684.708 604.598Q573.947 596.544 463.525 584.713Q353.103 572.883 243.149 557.29Q241.509 508.298 241.967 459.281Q242.426 410.264 244.983 361.312Q247.539 312.359 252.19 263.561Q256.84 214.763 263.575 166.209C267.138 141.846 270.01 112.084 276.654 88.7309C278.021 83.9281 279.513 79.5984 284.079 77.0338Z"/>
	<path d="M323.769 132.195Q328.601 131.895 333.441 131.961C359.725 132.056 386.149 134.204 412.398 135.623Q476.329 138.794 540.215 142.773L614.109 147.319C626.932 148.123 640.708 148.095 653.321 150.373C656.924 151.024 660.27 152.496 662.809 155.2C664.917 157.446 666.144 160.312 666.759 163.303C667.967 169.176 667.544 175.592 667.532 181.57Q667.453 201.407 666.534 221.222Q662.259 323.58 653.221 425.627C650.815 451.446 648.092 477.156 643.668 502.725C641.835 513.316 640.148 524.284 636.708 534.494C635.224 538.898 633.696 542.765 630.21 545.98C619.397 548.784 592.81 545.695 580.659 545.078Q528.679 542.738 476.845 538.2Q425.011 533.661 373.415 526.932C345.194 523.298 317.264 520 289.317 514.5C285.134 485.34 286.761 454.858 286.961 425.458Q287.027 344.833 293.065 264.434C295.207 237.396 298.272 210.552 301.609 183.642C302.947 172.85 304.513 145.302 310.5 137.343C313.529 133.318 319.134 132.7 323.769 132.195Z"/>
	<path fill="#707C88" d="M323.386 135.635C335.885 134.59 349.156 135.938 361.656 136.644L411.842 139.241Q494.282 143.277 576.64 148.718C592.682 149.717 645.414 151.305 658.014 156.098C653.519 160.608 648.169 163.708 642.779 167.012Q637.801 169.992 632.713 172.778C621.559 168.126 596.222 168.153 583.294 167.287L528.925 163.768L387.23 154.834C378.926 154.339 370.568 153.885 362.251 153.656C353.697 153.421 344.425 154.258 336.095 151.976C328.052 149.772 320.806 143.779 314.319 138.799C317.328 137.23 320.055 136.221 323.386 135.635Z"/>
	<path fill="#707C88" d="M315.929 495.45C325.3 495.897 341.119 500.406 351.253 501.986Q391.065 508.13 431.149 512.13Q491.154 518.446 551.475 519.788C571.994 520.153 592.473 518.924 612.991 519.548C618.28 526.646 623.367 534.506 627.187 542.498Q617.68 542.383 608.181 541.957C594.407 540.891 580.44 540.888 566.627 540.317Q536.078 538.803 505.563 536.701Q452.81 532.825 400.269 526.71Q347.728 520.595 295.494 512.253C301.864 506.118 308.93 500.834 315.929 495.45Z"/>
	<path fill="#707C88" d="M312.436 141.117C319.719 145.373 325.547 151.662 331.595 157.451C324.749 180.193 321.437 204.407 318.136 227.885Q314.57 252.577 312.09 277.402Q309.611 302.227 308.224 327.137Q306.837 352.046 306.544 376.993Q306.251 401.94 307.054 426.875C307.758 448.978 308.311 471.484 313.38 493.106L306.187 498.524C301.464 501.858 297.175 505.939 292.525 509.416C288.459 474.335 290.139 432.906 291.075 397.528C291.444 383.558 291.34 369.564 291.87 355.602Q294.439 282.242 302.545 209.285C304.932 187.064 306.178 162.546 312.436 141.117Z"/>
	<path fill="#707C88" d="M659.146 158.007C660.489 159.043 661.605 160.486 662.202 162.079C667.959 177.429 654.178 373.111 651.614 402.031Q647.551 449.429 641.036 496.552C638.795 511.923 636.497 527.296 630.31 541.663C628.051 538.638 626.005 535.41 623.889 532.281C620.78 527.157 617.326 522.254 614.259 517.104C621.425 489.045 625.271 455.642 628.759 426.727Q637.519 356.162 639.992 285.099C640.912 262.094 641.92 238.983 641.185 215.962Q640.736 203.59 639.241 191.3C638.685 186.812 637.76 182.349 637.438 177.839L637.403 177.288C645.311 171.387 652.07 164.826 659.146 158.007Z"/>
	<path fill="#54B8BE" d="M338.173 158.37C346.381 158.149 354.782 158.778 362.987 159.127Q392.013 160.475 420.999 162.498Q490.716 166.473 560.391 171.156C574.015 172.135 587.643 173.223 601.28 174.002C610.674 174.539 621.049 174.087 630.213 176.209C631.302 177.326 631.999 178.324 632.599 179.775C637.578 191.813 636.836 215.454 636.931 228.956Q636.907 259.899 635.68 290.817Q634.453 321.735 632.025 352.583Q629.596 383.43 625.97 414.159Q622.343 444.889 617.524 475.454C615.623 487.744 614.586 502.962 610.147 514.454Q581.943 515.284 553.728 514.917Q525.514 514.55 497.341 512.986Q469.167 511.423 441.086 508.665Q413.004 505.907 385.065 501.961C362.658 498.937 340.535 494.866 318.229 491.292C311.725 449.25 311.063 407.521 312.319 365.1C313.866 312.849 318.397 264.492 325.994 212.803C327.846 200.204 331.928 168.218 338.173 158.37Z"/>
	<path d="M399.85 259.11C405.455 258.65 411.175 259.569 416.146 262.28C425.275 267.258 430.976 276.935 433.686 286.689C438.104 302.589 435.938 321.267 427.642 335.566C422.076 345.159 414.928 351.427 404.105 354.243Q403.087 354.312 402.066 354.305Q401.045 354.298 400.028 354.215Q399.011 354.133 398.002 353.976Q396.994 353.818 396 353.587Q395.006 353.355 394.032 353.051Q393.058 352.747 392.109 352.371Q391.16 351.996 390.241 351.551Q389.322 351.106 388.439 350.595C378.434 344.928 372.179 333.908 369.32 323.07C365.461 308.442 367.188 291.376 374.87 278.227C380.749 268.166 388.614 262.066 399.85 259.11Z"/>
	<path fill="#E2DED1" d="M402.194 263.115C407.556 262.14 412.074 264.043 416.864 266.169C415.241 266.556 413.557 266.923 411.978 267.465C405.928 269.54 400.967 274.949 398.223 280.614C393.439 290.494 392.853 303.415 396.466 313.748C398.889 320.676 403.578 327.624 410.428 330.74C416.312 333.416 421.227 332.231 426.977 330.163C424.064 336.118 420.409 341.196 415.804 345.964C412.484 348.409 409.397 350.378 405.277 351.26C399.571 352.483 393.891 351.179 389.126 347.868C380.033 341.549 374.793 329.827 372.815 319.253C370.153 305.025 372.328 288.988 380.748 276.954C385.869 269.634 393.339 264.613 402.194 263.115Z"/>
	<path d="M535.06 262.15Q536.144 262.062 537.231 262.06Q538.318 262.057 539.402 262.14Q540.486 262.222 541.56 262.389Q542.634 262.556 543.692 262.806Q544.75 263.057 545.785 263.389Q546.82 263.721 547.826 264.134Q548.832 264.546 549.803 265.035Q550.774 265.525 551.703 266.089C560.933 271.593 566.674 282.401 569.1 292.585C573.006 308.986 570.096 327.536 561.139 341.836C555.417 350.971 547.657 356.48 537.174 358.853C531.758 358.753 526.574 357.316 521.998 354.375C511.54 347.653 505.546 335.312 503.133 323.463C500.025 308.198 502.133 291.65 510.852 278.514C516.765 269.605 524.629 264.321 535.06 262.15Z"/>
	<path fill="#E2DED1" d="M538.262 265.715C542.678 265.889 546.157 267.142 550.118 268.923C546.943 269.377 544.13 269.916 541.313 271.531C534.752 275.292 531.05 282.191 529.095 289.267C526.019 300.395 527.034 313.846 532.935 323.91C535.972 329.09 540.538 333.673 546.558 335.054C553.111 336.557 558.274 333.857 563.688 330.57C560.494 337.276 556.632 343.507 551.217 348.661C547.29 351.621 543.313 353.977 538.356 354.688C532.042 355.594 525.938 353.627 521.004 349.66C512.121 342.518 507.655 330.492 506.416 319.484C504.82 305.31 507.437 288.629 516.656 277.279C522.267 270.37 529.456 266.645 538.262 265.715Z"/>
	<path d="M541.902 380.81Q543.117 380.97 544.322 381.187C554.203 383.024 560.337 390.651 565.574 398.502C561.467 396.038 557.609 393.448 554 390.289C548.124 395.585 541.584 399.124 534.659 402.822C534.037 414.17 529.111 426.553 522.546 435.75C513.242 448.784 498.82 456.49 483.179 459.029C466.832 461.683 449.014 458.827 435.429 448.961C420.903 438.412 416.185 423.567 413.594 406.607C411.879 404.605 401.405 401.014 398.157 399.188C393.343 396.481 389.229 393.329 385.362 389.398C382.578 391.391 380.086 393.024 376.94 394.399L377.334 393.691C378.279 391.97 379.166 390.269 380.578 388.873C383.708 385.777 388.998 383.126 393.506 383.501C394.825 383.611 395.395 383.829 396.197 384.854L395.683 385.915C394.042 387.277 392.098 387.748 390.102 388.392C399.774 397.114 412.416 402.057 424.94 404.995C457.651 412.669 500.536 411.638 531.996 398.746C538.822 395.948 544.985 392.015 551.238 388.151C547.854 387.191 543.582 386.611 541.133 383.918C540.834 382.459 541.249 382.112 541.902 380.81Z"/>
	<path fill="#E2DED1" d="M530.141 404.62L530.814 405.037C530.822 405.286 530.837 405.536 530.838 405.785C530.875 414.94 521.928 431.489 515.433 437.874Q514.338 438.932 513.192 439.936Q512.046 440.939 510.853 441.885Q509.659 442.831 508.421 443.717Q507.182 444.604 505.902 445.428Q504.621 446.253 503.302 447.014Q501.983 447.775 500.628 448.47Q499.273 449.165 497.885 449.793Q496.498 450.421 495.081 450.981Q493.665 451.54 492.222 452.029Q490.78 452.518 489.316 452.936Q487.851 453.354 486.368 453.7Q484.885 454.046 483.386 454.318Q481.888 454.591 480.378 454.79Q478.868 454.988 477.35 455.113Q475.832 455.237 474.31 455.288Q472.788 455.338 471.265 455.313C455.695 455.133 441.027 449.365 430.164 438.13C422.641 428.932 418.978 418.727 417.155 407.095C457.165 418.424 490.466 414.22 530.141 404.62Z"/>
</svg>
