<?xml version="1.0" encoding="utf-8" ?>
<svg xmlns="http://www.w3.org/2000/svg" xmlns:xlink="http://www.w3.org/1999/xlink" width="1024" height="1024">
	<path d="M214.043 342.733C193.087 334.387 177.997 320.563 169.138 299.662C161.6 281.879 161.672 260.598 168.989 242.77C172.353 234.574 181.384 219.316 190.094 216.023C191.559 215.47 192.396 215.708 193.754 216.371C199.404 223.942 186.526 241.453 208.793 244.901C216.191 246.047 223.114 242.616 228.813 238.217C244.698 225.956 254.623 205.331 265.023 188.497C269.136 181.839 273.696 175.416 278.241 169.049C318.194 113.079 373.181 77.0288 441.014 64.9578Q450.435 63.2613 459.955 62.2574Q469.475 61.2534 479.043 60.9473Q488.611 60.6413 498.175 61.0347Q507.74 61.4282 517.25 62.519C541.275 65.4392 566.465 72.2452 587.278 84.959C595.04 89.7011 601.907 95.2661 608.877 101.06C635.96 97.1185 661.546 107.064 683.027 123.086C703.059 138.028 718.921 157.627 730.894 179.458C737.175 190.911 742.338 203.135 747.226 215.232C755.413 235.49 762.697 263.139 788.488 265.463C788.704 265.483 788.918 265.511 789.134 265.526C794.601 265.911 800.535 261.24 806.02 263.121C807.626 264.983 807.438 268.257 807.271 270.643C805.428 297.042 787.47 323.816 769.734 342.723C793.205 357.973 818.104 380.405 824.218 409.022C827.466 424.224 823.327 442.056 814.844 454.94C810.25 461.917 803.671 468.723 796.728 473.381C811.151 490.154 822.054 509.967 820.392 532.765C819.236 548.609 810.808 562.64 798.843 572.793C786.118 583.59 768.808 589.648 752.094 588.246Q749.774 588.044 747.473 587.682C754.34 598.145 756.264 614.484 753.754 626.59C751.048 639.639 743.133 650.264 731.968 657.384C719.01 665.647 702.182 669.036 687.111 665.595C681.916 664.408 677.126 662.326 672.647 659.458C670.887 674.527 663.827 686.116 651.903 695.488Q648.678 698.037 645.204 700.236C664.855 713.643 715.457 752.991 719.728 776.586C721.752 787.768 717.227 800.789 713.39 811.111C736.94 819.353 805.17 845.549 817.055 865.32C828.057 866.342 838.795 873.829 845.662 882.191C871.285 913.392 884.033 984.379 896.238 1024L886.901 1024L791.001 1024L781.891 1024L773.886 1024L516.509 1024L508.994 1024L251.995 1024L244.089 1024L235.199 1024L137.658 1024L129.286 1024C137.873 984.414 153.361 916.685 177.076 884.914C180.997 879.661 185.542 875.236 191.061 871.679C196.392 868.243 202.293 865.875 208.063 863.291C210.064 859.312 212.045 856.829 215.59 854.105C225.606 846.407 238.588 841.207 249.955 835.84C269.999 826.376 290.037 816.84 310.969 809.451C306.6 795.738 301.028 783.536 308.265 769.596C318.341 750.186 340.996 729.296 358.275 716.009C364.606 711.14 371.434 706.9 377.698 701.962C364.375 697.063 354.33 686.338 348.395 673.594C345.758 667.93 344.457 661.946 343.485 655.805C320.883 660.785 295.389 665.686 274.532 652.371C265.387 646.533 259.518 637.209 257.338 626.656C254.206 611.489 258.32 596.808 265.199 583.316C243.135 580.99 221.01 575.091 206.511 557.026C197.841 546.224 194.614 532.976 196.133 519.311C198.349 499.383 211.855 481.345 227.202 469.181C209.031 462.489 193.167 450.919 184.908 432.99Q184.242 431.558 183.65 430.094Q183.057 428.63 182.539 427.138Q182.02 425.646 181.577 424.13Q181.135 422.614 180.768 421.078Q180.402 419.542 180.114 417.989Q179.825 416.436 179.615 414.871Q179.405 413.306 179.274 411.732Q179.143 410.158 179.091 408.579Q179.039 407.001 179.066 405.422Q179.094 403.843 179.2 402.267Q179.307 400.691 179.493 399.123Q179.679 397.554 179.943 395.997Q180.207 394.44 180.549 392.898Q180.891 391.357 181.311 389.834Q181.73 388.311 182.225 386.812Q182.72 385.312 183.29 383.839C189.633 367.074 201.676 355.147 214.043 342.733Z"/>
	<path fill="#FEFEFE" d="M606.635 713.64C611.919 718.218 614.174 722.324 616.452 728.82C613.747 728.918 610.235 729.493 607.847 728.05L609.242 723.955C610.046 720.622 606.979 716.949 606.635 713.64Z"/>
	<path fill="#E2882E" d="M707.44 468.822C708.936 468.977 711.016 468.966 712.063 470.204C712.857 471.145 713.378 472.499 713.862 473.624Q710.331 483.965 708.423 494.725C707.238 486.049 706.234 477.555 707.44 468.822Z"/>
	<path fill="#89909C" d="M424.829 711.264L429.464 709.165Q429.788 719.923 429.676 730.686C425.497 727.843 421.349 724.731 416.973 722.21C418.832 718.538 423.983 715.014 424.829 711.264Z"/>
	<path fill="#89909C" d="M593.593 705.989C598.1 708.283 602.647 710.497 606.635 713.64C606.979 716.949 610.046 720.622 609.242 723.955C605.093 723.767 600.135 728.785 597.177 731.277C594.732 722.847 594.046 714.708 593.593 705.989Z"/>
	<path fill="#E2882E" d="M690.819 555.46Q694.576 537.051 698.097 518.595C699.676 510.038 700.792 500.836 703.288 492.521C704.349 497.171 705.567 501.729 706.864 506.316C704.395 510.225 704.674 517.125 703.998 521.739C702.347 533.01 698.421 546.694 690.819 555.46Z"/>
	<path fill="#E2882E" d="M758.399 440.237C761.693 442.236 764.68 444.563 767.522 447.155C767.607 450.093 767.756 453.025 767.467 455.956C757.646 456.721 745.868 457.898 739.01 466.018C738.644 466.451 738.516 466.668 738.175 467.164C736.041 465.76 734.224 464.394 731.565 464.912C731.122 465.714 730.904 465.967 731.254 466.917C731.675 468.063 732.906 469.145 733.733 470.034C726.883 478.819 721.689 486.719 717.71 497.113C716.507 500.256 713.585 510.981 711.528 512.679C710.314 498.611 714.274 486.761 720.561 474.278C729.108 457.306 740.262 446.264 758.399 440.237Z"/>
	<path fill="#221E1F" d="M705.2 321.853C723.774 323.265 735.477 322.001 752.915 315.092C744.495 330.552 731.394 338.44 714.849 343.407C717.378 356.1 719.203 368.987 718.96 381.951C718.763 392.527 717.466 402.914 718.126 413.524C716.779 415.393 714.711 417.247 713.134 418.959C712.734 405.243 713.334 391.51 712.853 377.777C712.496 367.561 711.236 357.326 709.914 347.199C708.795 338.619 707.629 330.185 705.2 321.853Z"/>
	<path fill="#221E1F" d="M243.494 257.448L243.653 257.935C245.245 262.987 245.738 268.319 247.392 273.357C252.113 287.731 264.092 299.779 277.236 306.81C291.055 314.203 305.335 316.299 320.791 317.026Q319.209 325.204 317.857 333.423C315.285 332.471 300.865 331.961 295.726 330.813C278.674 327.005 262.413 314.407 253.153 299.799C245.679 288.009 240.36 271.452 243.494 257.448Z"/>
	<path fill="#221E1F" d="M288.881 303.429C294.927 303.412 301.019 304.476 307.064 304.831C315.666 305.337 324.255 304.852 332.84 304.264C386.295 300.599 438.671 282.47 485.925 257.844C498.54 251.27 511.001 244.414 522.712 236.316C532.918 229.259 543.367 221.637 552.664 213.41C558.899 207.894 565.418 198.811 572.48 194.83C572.615 194.754 572.754 194.682 572.891 194.608C568.881 211.557 521.669 242.183 506.746 251.403Q502.266 254.17 497.716 256.818Q493.165 259.467 488.546 261.995Q483.927 264.523 479.244 266.929Q474.56 269.334 469.815 271.616Q465.07 273.898 460.267 276.055Q455.463 278.212 450.605 280.241Q445.747 282.271 440.837 284.173Q435.927 286.074 430.969 287.846Q426.01 289.618 421.007 291.259Q416.004 292.9 410.96 294.409Q405.915 295.918 400.833 297.295Q395.751 298.671 390.634 299.913Q385.517 301.155 380.37 302.263Q375.222 303.37 370.048 304.342Q364.873 305.314 359.674 306.149Q354.476 306.985 349.257 307.684C333.174 309.761 315.657 311.373 299.756 307.57C296.152 306.709 291.964 305.523 288.881 303.429Z"/>
	<path fill="#376136" d="M812.393 873.063C816.149 873.568 819.614 874.438 823.211 875.608C821.99 883.565 815.134 897.42 812.505 906.65C804.48 934.826 799.492 963.792 794.915 992.692C793.278 1003.03 790.788 1013.48 791.001 1024L781.891 1024C784.443 1008.36 785.469 992.377 787.857 976.68Q789.798 963.493 792.306 950.402Q794.815 937.312 797.886 924.341Q800.957 911.371 804.586 898.545Q808.214 885.72 812.393 873.063Z"/>
	<path fill="#376136" d="M208.923 870.878C222.537 904.691 231.703 939.12 237.317 975.141Q239.833 991.155 241.925 1007.23C242.65 1012.78 243.011 1018.53 244.089 1024L235.199 1024C233.538 1017.49 233.699 1010.17 232.638 1003.5Q228.626 978.89 223.377 954.514Q217.495 927.548 209.454 901.146C206.735 892.468 202.974 883.962 200.684 875.179L200.548 874.64C203.329 873.364 206.152 872.174 208.923 870.878Z"/>
	<defs>
		<linearGradient id="gradient_0" gradientUnits="userSpaceOnUse" x1="510.24515" y1="822.22485" x2="512.3703" y2="789.25488">
			<stop offset="0" stop-color="#B6AE8B"/>
			<stop offset="1" stop-color="#B4BAAF"/>
		</linearGradient>
	</defs>
	<path fill="url(#gradient_0)" d="M603.43 793.114C602.065 797.137 600.652 801.283 598.78 805.099C593.176 805.81 584.039 811.283 578.341 813.373C567.868 817.215 556.657 819.216 545.622 820.678C513.124 824.981 479.512 823.548 448.618 811.821C439.309 808.288 431.605 802.271 422.702 798.19C422.571 798.129 422.439 798.072 422.307 798.013L420.803 793.203C430.112 797.82 439.61 802.028 449.591 804.99C489.135 816.727 539.706 816.84 578.92 803.724C587.419 800.881 595.435 797.136 603.43 793.114Z"/>
	<path fill="#E2882E" d="M436.512 683.551C452.547 691.576 468.402 700.066 485.66 705.218C523.365 716.474 555.401 700.448 587.844 683.08C587.382 690.304 586.731 697.492 586.489 704.73C544.433 722.587 508.219 736.752 462.574 718.135C454.349 714.781 445.619 707.837 436.796 706.643Q436.425 695.1 436.512 683.551Z"/>
	<path fill="#E2882E" d="M572.276 208.919C572.772 210.768 573.218 212.633 573.687 214.489C573.515 214.664 573.341 214.838 573.172 215.016C570.544 217.781 568.693 221.779 566.422 224.894C563.692 228.639 560.156 232.156 556.9 235.461C532.745 259.979 500.638 276.833 470.256 292.27Q461.094 296.886 451.686 300.978C447.763 302.678 439.926 304.819 436.85 307.3C421.412 303.142 406.871 304.374 392.888 312.395C384.134 317.417 375.664 324.819 369.309 332.659L369.138 332.873C363.785 333.304 358.249 335.477 353.017 336.755C343.894 338.983 334.488 340.603 325.103 341.162Q326.581 328.765 328.991 316.514C350.649 316.491 371.336 312.364 392.257 307.005C442.276 294.193 489.778 273.748 531.878 243.657C546.452 233.241 558.934 220.758 572.276 208.919Z"/>
	<path fill="#B64F0E" d="M314.373 816.487C322.313 830.553 330.398 844.322 339.719 857.54C373.706 905.732 421.37 948.838 479.186 965.034C488.905 967.757 498.632 969.398 508.699 970.139C508.756 976.356 509.262 982.685 508.694 988.876C507.953 986.234 502.443 986.423 499.967 986.089C472.328 982.355 442.711 966.11 419.462 951.225C379.852 925.864 347.349 891.77 322.01 852.325C315.668 842.452 308.269 831.313 305.731 819.738L314.373 816.487Z"/>
	<path fill="#B64F0E" d="M710.664 817.707L721.835 821.773C718.568 831.604 713.722 839.911 708.661 848.889C680.586 898.697 634.422 938.586 583.594 964.041C569.16 971.271 531.357 988.043 516.506 988.053C516.519 981.987 516.375 975.911 516.307 969.845Q521.544 969.308 526.741 968.462Q531.937 967.617 537.074 966.466Q542.212 965.314 547.272 963.861Q552.332 962.408 557.298 960.659C612.778 940.98 663.464 897.087 694.774 847.671C700.876 838.04 705.769 827.981 710.664 817.707Z"/>
	<path fill="#E8BA8C" d="M436.796 706.643C445.619 707.837 454.349 714.781 462.574 718.135C508.219 736.752 544.433 722.587 586.489 704.73C586.507 715.294 587.484 724.557 591.029 734.562C549.689 753.403 497.072 759.913 453.711 743.805C447.851 741.628 442.265 738.997 436.764 736.037L436.796 706.643Z"/>
	<path fill="#E8BA8C" d="M707.44 468.822C707.919 462.978 708.879 457.186 709.447 451.351C710.856 436.884 710.175 430.675 721.938 420.632C730.67 413.177 740.914 407.328 752.79 408.474C761.217 409.286 768.917 414.058 774.105 420.637C785.041 434.506 785.567 453.238 783.469 470.003C780.068 497.181 768.859 526.792 746.508 544C732.58 554.722 713.619 559.328 696.239 557.083C694.396 556.845 692.304 556.638 690.819 555.46C698.421 546.694 702.347 533.01 703.998 521.739C704.674 517.125 704.395 510.225 706.864 506.316C708.399 511.027 710.2 515.525 712.143 520.077C711.867 517.652 711.413 515.118 711.528 512.679C713.585 510.981 716.507 500.256 717.71 497.113C721.689 486.719 726.883 478.819 733.733 470.034C732.906 469.145 731.675 468.063 731.254 466.917C730.904 465.967 731.122 465.714 731.565 464.912C734.224 464.394 736.041 465.76 738.175 467.164C738.516 466.668 738.644 466.451 739.01 466.018C745.868 457.898 757.646 456.721 767.467 455.956C767.756 453.025 767.607 450.093 767.522 447.155C767.578 444.087 767.525 441.307 765.368 438.9C763.359 436.657 760 436.143 757.143 436.152C745.833 436.188 735.102 445.27 727.762 453.01C721.91 459.18 717.731 466.102 713.862 473.624C713.378 472.499 712.857 471.145 712.063 470.204C711.016 468.966 708.936 468.977 707.44 468.822Z"/>
	<path d="M733.733 470.034C732.906 469.145 731.675 468.063 731.254 466.917C730.904 465.967 731.122 465.714 731.565 464.912C734.224 464.394 736.041 465.76 738.175 467.164C746.005 474.547 749.609 485.288 749.98 495.869C750.147 500.609 749.657 507.462 746.947 511.502C746.006 511.016 746.268 511.366 745.953 510.318C744.96 507.023 745.571 502.859 745.428 499.428C744.97 488.429 740.34 478.609 733.733 470.034Z"/>
	<path fill="#528C56" d="M823.211 875.608C828.379 878.24 833.049 880.876 837.167 885.02C852.131 900.079 861.123 932.149 867.718 952.416C875.256 975.584 882.599 1000.02 886.901 1024L791.001 1024C790.788 1013.48 793.278 1003.03 794.915 992.692C799.492 963.792 804.48 934.826 812.505 906.65C815.134 897.42 821.99 883.565 823.211 875.608Z"/>
	<path fill="#528C56" d="M137.658 1024C146.373 987.299 160.472 920.117 182.686 890.635C187.669 884.022 193.72 879.232 200.548 874.64L200.684 875.179C202.974 883.962 206.735 892.468 209.454 901.146Q217.495 927.548 223.377 954.514Q228.626 978.89 232.638 1003.5C233.699 1010.17 233.538 1017.49 235.199 1024L137.658 1024Z"/>
	<path fill="#F1EFCD" d="M424.829 711.264C423.983 715.014 418.832 718.538 416.973 722.21C417.339 727.886 420.891 732.236 425.015 735.883C449.613 757.634 494.345 760.679 525.74 758.522C548.763 756.94 589.816 750.603 604.92 732.637C606.102 731.23 606.995 729.67 607.847 728.05C610.235 729.493 613.747 728.918 616.452 728.82C616.983 750.606 611.739 765.497 605.654 785.829C595.749 789.298 586.427 794.115 576.395 797.409C528.076 813.276 464.304 809.665 418.688 786.581C417.297 780.174 414.874 773.892 413.362 767.462C409.867 752.591 407.804 737.853 406.239 722.68C412.701 719.172 417.916 714.158 424.829 711.264Z"/>
	<path fill="#E8BA8C" d="M274.262 409.147C274.761 409.018 274.92 408.963 275.496 408.898C284.026 407.935 291.976 410.916 298.784 415.899C306.592 421.613 313.614 430.453 317.103 439.503C319.883 446.713 320.054 454.876 320.981 462.48C321.72 468.543 322.686 474.585 323.594 480.625L335.651 556.208C325.041 560.151 315.011 559.714 304.015 558.207C295.705 556.626 286.952 552.264 280.145 547.317C258.647 531.691 246.495 505.239 242.487 479.528C239.662 461.409 239.567 438.836 250.949 423.366C256.733 415.503 264.634 410.628 274.262 409.147Z"/>
	<path d="M261.702 444.792C263.028 441.576 264.886 439.934 268.117 438.56C273.097 436.442 279.152 437.276 283.975 439.396C299.617 446.271 310.369 468.224 315.911 483.282C318.926 491.474 323.24 505.655 319.394 514.156C319.206 514.57 319.035 514.799 318.78 515.197L317.989 515.139C317.684 514.481 317.357 513.847 317.141 513.154C311.781 507.454 309.226 497.915 305.421 490.983C302.278 485.26 298.581 479.786 295.148 474.23C290.314 476.312 285.448 478.696 282.372 483.167C276.597 491.563 280.564 500.648 282.281 509.495C281.067 508.312 279.809 507.107 278.84 505.708C275.33 500.636 274.123 493.426 275.345 487.428C276.927 479.665 281.89 474.794 288.15 470.534C279.759 461.637 269.103 454.518 261.702 444.792Z"/>
	<path fill="#E2882E" d="M305.114 472.939C311.771 488.215 315.708 496.153 317.141 513.154C311.781 507.454 309.226 497.915 305.421 490.983C302.278 485.26 298.581 479.786 295.148 474.23C298.465 473.592 301.753 473.243 305.114 472.939Z"/>
	<path fill="#E2882E" d="M261.702 444.792C266.631 442.063 271.285 440.651 276.938 442.155C287.828 445.051 296.106 456.554 301.199 465.915Q301.588 466.624 301.96 467.343C297.288 468.118 292.581 468.781 288.15 470.534C279.759 461.637 269.103 454.518 261.702 444.792Z"/>
	<path fill="#221E1F" d="M790.417 477.836C793.754 480.169 796.415 483.444 798.759 486.742C808.725 500.762 815.242 519.557 812.1 536.841C807.934 559.766 786.671 577.864 763.851 580.545Q759.568 581.052 755.263 580.8C751.35 580.537 740.535 577.974 737.182 580.292C736.612 583.172 739.795 588.335 741.034 591.089C746.704 603.696 749.336 618.74 744.197 631.995C739.882 643.126 730.516 650.89 719.737 655.493C708.029 660.495 693.843 661.31 682.051 656.152C676.962 653.927 672.242 650.944 667.057 648.919C666.853 648.839 666.647 648.763 666.442 648.686C666.372 648.909 666.306 649.134 666.234 649.356C664.776 653.831 664.58 658.531 663.743 663.145C661.18 677.282 653.405 685.458 641.962 693.424L638.592 695.282C626.202 687.929 613.934 681.408 600.689 675.698C602.99 674.53 605.223 673.159 607.398 671.773C628.175 658.523 666.015 630.548 676.354 608.202C682.821 594.225 685.236 578.338 688.543 563.405C707.052 567.702 726.337 565.35 742.922 555.9C773.268 538.608 781.813 509.072 790.417 477.836Z"/>
	<path fill="#F1EFCD" d="M422.307 798.013C422.439 798.072 422.571 798.129 422.702 798.19C431.605 802.271 439.309 808.288 448.618 811.821C479.512 823.548 513.124 824.981 545.622 820.678C556.657 819.216 567.868 817.215 578.341 813.373C584.039 811.283 593.176 805.81 598.78 805.099Q594.982 815.176 590.75 825.079Q586.519 834.982 581.863 844.693Q577.207 854.403 572.134 863.903Q567.062 873.403 561.582 882.674Q556.103 891.945 550.227 900.97Q544.352 909.995 538.09 918.757Q531.829 927.519 525.194 936.001Q518.559 944.484 511.563 952.671C473.052 913.207 438.884 850.565 422.307 798.013Z"/>
	<path fill="#221E1F" d="M234.259 472.991C236.627 477.72 238.597 495.707 240.594 502.571C247.112 524.976 262.872 546.452 283.473 557.743C300.403 567.022 319.076 568.4 337.508 563.055C338.717 570.127 339.392 577.289 340.569 584.367C341.721 591.29 343.366 598.724 346.7 604.963C360.747 631.256 405.543 661.952 429.454 678.964C420.467 681.283 411.26 684.49 402.939 688.622C397.401 691.372 391.435 695.659 385.497 697.311C383.784 697.787 382.132 696.566 380.668 695.771Q380.199 695.56 379.739 695.33C365.804 688.39 355.272 675.938 352.418 660.482C351.642 656.279 352.119 651.368 350.779 647.379C347.19 646.416 325.97 652.571 320.292 653.258C305.793 655.012 289.011 654.612 277.039 645.09C269.37 638.991 265.178 630.365 264.113 620.692C263.106 611.543 264.263 598.819 268.994 590.711C270.514 588.105 273.025 585.705 274.908 583.316C276.531 581.257 277.553 579.47 277.201 576.77C274.297 575.551 260.064 576.575 254.341 575.34C237.706 571.747 219.212 563.935 209.748 548.98C203.213 538.654 201.652 525.718 204.422 513.917C208.293 497.428 219.855 481.804 234.259 472.991Z"/>
	<path fill="#E2882E" d="M721.835 821.773C751.922 833.99 780.673 846.636 807.914 864.524C792.153 901.064 782.579 954.276 777.287 993.989C775.957 1003.97 775.18 1014.02 773.886 1024L516.509 1024L516.506 988.053C531.357 988.043 569.16 971.271 583.594 964.041C634.422 938.586 680.586 898.697 708.661 848.889C713.722 839.911 718.568 831.604 721.835 821.773Z"/>
	<path fill="#E2882E" d="M251.995 1024Q249.656 999.181 245.364 974.625Q241.071 950.068 234.852 925.928C231.045 911.07 226.72 895.911 220.888 881.717C219.115 877.4 214.49 868.195 216.669 863.723C221.198 854.427 292.004 825.351 305.731 819.738C308.269 831.313 315.668 842.452 322.01 852.325C347.349 891.77 379.852 925.864 419.462 951.225C442.711 966.11 472.328 982.355 499.967 986.089C502.443 986.423 507.953 986.234 508.694 988.876C508.626 1000.58 509.022 1012.29 508.994 1024L251.995 1024Z"/>
	<path fill="#528C56" d="M595.714 680.812C616.612 688.976 636.087 701.753 653.855 715.294C669.739 727.4 710.545 759.434 712.91 780.189C715.674 804.455 686.885 847.581 672.172 866.584C637.008 912 578.718 954.833 520.403 961.949C481.816 966.658 436.86 941.881 407.342 918.652C372.66 891.36 342.091 853.985 322.308 814.533C318.121 806.182 313.348 797.131 312.3 787.728C310.995 776.019 317.873 768.192 324.672 759.714C355.334 723.068 384.413 702.601 429.333 686.318C429.161 691.05 429.143 695.795 429.063 700.529C418.479 706.089 409.424 712.465 400.86 720.819Q400.751 722.001 400.69 723.187C399.802 740.264 403.145 757.039 407.243 773.524Q409.638 782.874 412.427 792.114Q415.216 801.354 418.393 810.467Q421.57 819.581 425.13 828.552Q428.69 837.523 432.626 846.336Q436.563 855.148 440.868 863.786Q445.174 872.424 449.841 880.873Q454.509 889.321 459.529 897.564Q464.55 905.807 469.915 913.83C477.101 924.372 484.731 934.802 493.123 944.425C498.341 950.408 504.017 956.005 509.337 961.908C536.343 944.166 567.982 889.216 582.678 859.819Q595.448 834.136 605.971 807.453C614.63 785.845 630.83 742.18 620.891 720.094C615.982 709.184 604.283 703.84 593.721 699.935C594.028 693.522 594.525 687.127 595.714 680.812Z"/>
	<path fill="#363334" d="M186.725 227.454C188.108 235.709 189.605 243.491 196.919 248.691C202.875 252.926 210.62 253.722 217.651 252.364C232.239 249.547 243.78 236.261 251.589 224.482C265.322 203.768 277.696 182.194 292.931 162.493Q294.537 160.414 296.189 158.37Q297.84 156.327 299.536 154.32Q301.232 152.313 302.972 150.344Q304.711 148.374 306.493 146.444Q308.275 144.513 310.099 142.622Q311.923 140.731 313.788 138.88Q315.653 137.029 317.558 135.219Q319.464 133.41 321.408 131.643Q323.352 129.875 325.334 128.151Q327.317 126.426 329.337 124.746Q331.356 123.065 333.413 121.429Q335.469 119.794 337.56 118.203Q339.651 116.613 341.777 115.068Q343.903 113.524 346.062 112.027Q348.221 110.529 350.412 109.079Q352.604 107.63 354.826 106.228Q357.049 104.827 359.301 103.475Q361.554 102.122 363.836 100.819Q366.118 99.5166 368.427 98.2642Q370.737 97.0117 373.074 95.8101Q375.41 94.6085 377.773 93.4584Q380.135 92.3083 382.522 91.2102Q384.909 90.1121 387.32 89.0665Q389.73 88.0209 392.163 87.0284Q394.596 86.0359 397.05 85.0968Q399.504 84.1578 401.978 83.2728Q404.452 82.3877 406.944 81.557Q409.437 80.7264 411.947 79.9505Q414.458 79.1746 416.984 78.4539Q419.511 77.7332 422.053 77.068Q424.595 76.4027 427.151 75.7934Q429.706 75.184 432.275 74.6307C482.003 64.3744 541.851 64.1562 585.691 93.1893C593.391 98.2886 600.027 104.816 607.813 109.719C623.76 103.77 641.215 109.463 656.055 116.227C699.442 136.004 723.114 176.278 740.107 218.656C746.427 234.417 752.463 253.993 766.113 265.01C776.541 273.427 787.217 273.485 799.903 271.782C796.662 289.592 788.119 307.606 777.062 321.939C772.936 327.288 768.316 332.169 763.93 337.293C762.032 339.511 759.414 342.461 761.484 345.338C765.601 351.058 773.744 354.88 779.347 359.189C799.816 374.934 820.872 400.502 817.072 427.935C815.197 441.466 808.355 454.992 797.346 463.334Q794.749 465.303 791.996 467.049C791.828 447.133 791.892 425.923 776.578 410.963C769.348 403.9 759.548 399.627 749.385 399.802C736.823 400.018 727.793 406.301 718.126 413.524C717.466 402.914 718.763 392.527 718.96 381.951C719.203 368.987 717.378 356.1 714.849 343.407C731.394 338.44 744.495 330.552 752.915 315.092C754.109 314.144 755.483 312.972 756.279 311.661C756.995 310.48 756.942 309.671 756.655 308.389C753.625 306.713 742.638 312.103 738.775 313.139C710.43 320.738 675.963 307.346 651.265 293.166C623.334 277.129 594.459 251.787 583.167 220.956C581.684 216.905 580.502 212.694 579.908 208.415C579.39 204.677 579.281 200.568 578.213 196.941C577.821 195.609 577.601 195.14 576.253 194.594C575.14 194.144 573.92 194.083 572.891 194.608C572.754 194.682 572.615 194.754 572.48 194.83C565.418 198.811 558.899 207.894 552.664 213.41C543.367 221.637 532.918 229.259 522.712 236.316C511.001 244.414 498.54 251.27 485.925 257.844C438.671 282.47 386.295 300.599 332.84 304.264C324.255 304.852 315.666 305.337 307.064 304.831C301.019 304.476 294.927 303.412 288.881 303.429C285.84 302.763 282.444 301.052 279.693 299.625C262.971 290.954 255.194 274.689 249.917 257.551C261.678 260.936 273.671 263.144 285.941 263.241C333.712 263.622 389.246 237.741 429.744 214.255C462.152 195.461 492.888 174.032 526.732 157.755C496.403 164.268 471.584 182.058 445.526 197.871C403.276 223.51 337.535 257.832 287.433 258.344C277.923 258.442 268.062 256.76 258.89 254.27C255.137 253.251 250.817 251.407 246.997 251.096C246.22 251.033 245.684 251.079 245.107 251.605C243.509 253.061 243.592 255.454 243.494 257.448C240.36 271.452 245.679 288.009 253.153 299.799C262.413 314.407 278.674 327.005 295.726 330.813C300.865 331.961 315.285 332.471 317.857 333.423C312.554 362.036 313.946 390.783 314.967 419.687C304.659 409.529 292.419 401.286 277.424 401.378C266.952 401.442 257.005 405.439 249.631 412.921C236.093 426.656 234.422 444.99 232.547 463.161C215.271 456.804 200.155 448.331 192.138 430.939C185.837 417.267 184.814 401.878 190.072 387.704C194.887 374.721 203.475 363.927 213.107 354.161C217.086 350.128 221.415 346.301 224.745 341.703L224.218 341.234C218.244 336.009 210.615 333.683 203.829 329.763C185.023 318.899 172.678 298.471 171.155 276.907C170.44 266.785 172.023 257.049 175.194 247.449C176.156 260.368 180.394 273.218 190.456 281.934C193.575 284.635 197.512 286.892 201.781 286.52C202.737 286.437 203.315 286.206 204.092 285.621C204.354 284.375 204.306 283.84 203.518 282.781C201.243 279.722 197.236 279.141 194.248 277.078C188.485 273.098 183.19 263.659 181.24 257.059C179.9 252.526 179.339 247.532 178.542 242.869C180.828 237.464 183.656 232.446 186.725 227.454Z"/>
	<path d="M662.263 204.786C665.921 206.753 673.09 219.011 676.694 222.841Q679.812 226.171 683.082 229.351Q686.353 232.531 689.769 235.553Q693.186 238.576 696.74 241.434Q700.295 244.293 703.98 246.981Q707.666 249.669 711.473 252.181Q715.281 254.693 719.202 257.024Q723.124 259.354 727.15 261.497Q731.177 263.64 735.3 265.592C740.159 267.855 745.268 269.496 750.185 271.614C753.074 272.858 753.668 273.598 754.83 276.476C749.716 276.682 744.994 275.366 740.252 273.567C707.596 261.183 676.816 237.1 662.263 204.786Z"/>
	<path fill="#E8BA8C" d="M436.85 307.3C439.926 304.819 447.763 302.678 451.686 300.978Q461.094 296.886 470.256 292.27C500.638 276.833 532.745 259.979 556.9 235.461C560.156 232.156 563.692 228.639 566.422 224.894C568.693 221.779 570.544 217.781 573.172 215.016C573.341 214.838 573.515 214.664 573.687 214.489C576.145 221.659 578.58 228.737 581.989 235.53C597.716 266.868 626.023 290.568 657.167 305.776C670.964 312.514 684.739 317.182 699.778 320.236C703.338 339.273 706.378 359.216 706.206 378.636C705.996 402.268 704.089 426.637 701.274 450.071C697.467 481.758 691.062 513.001 684.675 544.243C681.183 561.324 678.463 578.927 673.054 595.527C671.383 600.655 669.24 605.522 666.197 609.987C643.728 642.959 565.391 693.285 526.221 700.559C489.57 707.364 446.258 680.69 417.191 660.489C398.583 647.557 363.045 619.66 352.46 600.336C350.07 595.974 348.987 591.115 348.112 586.262C343.39 560.08 339.207 533.755 334.932 507.495C331.278 485.053 327.098 462.523 324.671 439.911Q323.08 424.613 322.489 409.243Q321.899 393.873 322.312 378.498C322.579 366 322.825 353.492 325.103 341.162C334.488 340.603 343.894 338.983 353.017 336.755C358.249 335.477 363.785 333.304 369.138 332.873L369.309 332.659C375.664 324.819 384.134 317.417 392.888 312.395C406.871 304.374 421.412 303.142 436.85 307.3Z"/>
	<path d="M539.508 617.927L540.246 618.637C540.058 621.906 536.806 624.525 534.508 626.57C529.114 631.369 521.795 635.265 514.389 634.639C507.365 634.046 501.99 629.605 497.687 624.391C496.474 622.485 495.339 620.525 494.178 618.586C499.537 622.359 505.478 626.45 512.01 627.776C522.654 629.936 531.209 623.478 539.508 617.927Z"/>
	<path d="M584.416 555.211C585.086 555.581 585.542 555.897 586.03 556.52C588.602 559.807 594.696 569.854 594.216 573.771L593.382 574.152C591.363 573.508 590.047 572.032 588.531 570.617C570.656 585.715 550.491 594.936 527.054 597.199C497.158 600.086 470.038 591.402 446.976 572.234Q446.041 573.03 445.087 573.803C443.616 574.99 442.311 576.082 440.295 575.86L439.839 574.905C440.247 574.365 440.637 573.82 441.032 573.271C444.275 568.767 446.27 561.164 450.359 557.704C451.136 557.046 450.761 557.203 451.789 557.287C451.876 557.458 451.983 557.62 452.049 557.801C453.35 561.367 451.215 565.727 449.825 568.97C466.361 581.609 483.237 589.931 504.198 592.115C534.512 595.272 562.302 585.751 585.711 566.695C584.879 564.683 583.888 562.582 583.404 560.456C582.916 558.309 583.258 557.053 584.416 555.211Z"/>
	<path d="M448.415 447.796C448.034 450.545 445.394 453.506 443.533 455.476C436.327 463.103 427.009 468.269 416.338 468.451C406.183 468.625 396.147 463.785 388.958 456.796C378.185 446.323 372.87 430.602 372.708 415.798C372.543 400.722 378.195 385.172 388.894 374.397C396.906 366.328 407.276 361.403 418.742 361.482C428.822 361.552 438.486 366.314 445.46 373.434C450.409 378.487 455.405 385.778 455.315 393.103C450.407 382.376 442.67 372.842 431.327 368.609Q430.475 368.287 429.608 368.008Q428.742 367.73 427.862 367.495Q426.982 367.261 426.091 367.071Q425.201 366.881 424.302 366.737Q423.403 366.592 422.498 366.493Q421.593 366.394 420.684 366.341Q419.775 366.288 418.864 366.281Q417.954 366.273 417.044 366.312Q416.134 366.351 415.228 366.436Q414.321 366.52 413.42 366.651Q412.519 366.781 411.625 366.957Q410.732 367.132 409.848 367.353Q408.965 367.573 408.094 367.838Q407.223 368.103 406.366 368.411Q405.509 368.72 404.669 369.071Q403.829 369.423 403.008 369.816C391.643 375.163 383.716 386.146 379.634 397.764Q379.196 399.039 378.821 400.334Q378.446 401.629 378.136 402.941Q377.825 404.253 377.58 405.579Q377.334 406.905 377.154 408.241Q376.974 409.577 376.86 410.921Q376.747 412.264 376.699 413.611Q376.651 414.959 376.67 416.307Q376.689 417.655 376.775 419.001Q376.86 420.346 377.012 421.686Q377.163 423.026 377.38 424.356Q377.598 425.687 377.88 427.005Q378.163 428.324 378.51 429.626Q378.858 430.929 379.269 432.213Q379.68 433.497 380.154 434.759Q380.627 436.022 381.163 437.259Q381.698 438.497 382.294 439.706C387.191 449.599 395.415 458.117 406.037 461.674C415.723 464.918 425.837 463.042 434.755 458.44C440.123 455.67 444.206 452.086 448.415 447.796Z"/>
	<path d="M571.211 393.773C570.443 391.77 571.74 388.299 572.582 386.371C576.843 376.61 585.604 367.757 595.629 364.023C605.195 360.46 615.198 361.059 624.4 365.406C636.954 371.336 645.792 382.685 650.388 395.584C655.696 410.478 655.2 427.825 648.298 442.123C642.976 453.147 634.065 462.123 622.374 466.18C613.615 469.22 604.774 469.123 596.387 464.916C588.342 460.88 579.035 453.167 576.36 444.252C576.143 443.529 576.019 442.786 575.9 442.042C580.874 449.033 585.728 454.756 593.409 458.867Q594.174 459.277 594.959 459.65Q595.744 460.022 596.546 460.355Q597.348 460.688 598.166 460.981Q598.984 461.274 599.815 461.526Q600.646 461.778 601.488 461.989Q602.331 462.2 603.183 462.369Q604.035 462.539 604.894 462.665Q605.753 462.792 606.618 462.877Q607.482 462.961 608.35 463.002Q609.217 463.044 610.086 463.042Q610.954 463.041 611.822 462.997Q612.689 462.953 613.553 462.866Q614.418 462.779 615.276 462.649Q616.135 462.52 616.987 462.348Q617.838 462.176 618.68 461.962Q619.522 461.749 620.352 461.494C630.587 458.3 638.194 450.911 643.1 441.556Q643.737 440.325 644.313 439.063Q644.888 437.801 645.401 436.513Q645.913 435.224 646.36 433.912Q646.808 432.599 647.189 431.266Q647.571 429.933 647.886 428.583Q648.201 427.232 648.448 425.868Q648.696 424.503 648.875 423.128Q649.054 421.753 649.165 420.371Q649.276 418.989 649.318 417.603Q649.36 416.217 649.333 414.831Q649.306 413.444 649.21 412.061Q649.114 410.678 648.95 409.301Q648.785 407.924 648.552 406.557Q648.32 405.19 648.019 403.836Q647.719 402.482 647.352 401.145Q646.984 399.808 646.551 398.491C642.675 386.529 634.715 376.09 623.418 370.346C615.147 366.14 606.185 365.335 597.345 368.268C585.335 372.252 576.778 382.846 571.211 393.773Z"/>
	<path d="M505.559 417.922C505.961 418.25 506.254 418.457 506.587 418.883C510.791 424.252 504.769 481.571 503.856 491.927C506.58 492.629 510.107 493.495 512.399 495.156C513.399 495.88 513.71 496.361 513.856 497.557L513.305 498.182C509.677 499.255 504.194 497.372 500.33 497.262C495.124 497.113 490.275 498.971 486.56 502.652Q485.863 503.351 485.237 504.115Q484.611 504.879 484.063 505.7Q483.514 506.522 483.049 507.393Q482.584 508.264 482.206 509.176Q481.827 510.088 481.54 511.033Q481.253 511.978 481.059 512.946Q480.865 513.914 480.767 514.897Q480.669 515.879 480.667 516.867C480.699 522.737 483.444 527.874 487.702 531.791C494.361 537.915 504.671 539.923 513.449 539.686C523.751 539.407 534.498 536.363 541.682 528.587C544.474 525.564 546.432 521.958 547.297 517.926C550.164 504.566 540.195 500.458 540.305 493.96C540.308 493.73 540.334 493.501 540.348 493.271C540.94 493.488 541.506 493.737 542.066 494.028C546.859 496.524 549.384 500.994 550.85 506.03C552.919 513.137 552.369 520.944 548.601 527.401C543.517 536.113 534.076 541.333 524.522 543.672C512.68 546.571 499.399 545.436 488.898 538.914C482.732 535.083 477.977 529.332 476.491 522.093C475.215 515.878 476.613 509.06 480.11 503.78C484.521 497.122 491.407 493.955 498.923 492.315C500.124 478.735 500.87 465.056 501.546 451.439C502.014 442.02 502.053 432.198 503.746 422.905C504.085 421.044 504.6 419.549 505.559 417.922Z"/>
	<path d="M608.373 304.731C609.477 304.659 610.557 304.66 611.664 304.71C626.571 305.388 641.967 314.139 651.849 325.053C655.857 329.48 662.002 337.378 661.719 343.613C661.336 344.322 661.269 344.856 660.469 345.173C659.258 345.654 658.022 345.467 656.835 344.989C653.736 343.741 650.671 341.113 647.86 339.229C644.101 336.709 640.328 334.42 636.286 332.385C623.591 327.432 611.231 324.36 597.496 325.052C591.05 325.377 579.362 328.82 573.566 326.954C572.23 326.524 571.867 325.855 571.214 324.691C571.197 322.531 571.98 321.237 573.326 319.607C582.193 308.861 595.162 305.991 608.373 304.731Z"/>
	<path fill="#221E1F" d="M602.33 308.185C613.213 306.972 624.026 308.933 633.39 314.728C643.208 320.804 655.43 331.253 658.167 342.935C651.461 338.96 647.04 333.282 639.715 329.382C619.167 318.967 594.833 318.092 572.763 323.797L573.366 323.009C580.782 313.477 590.593 309.571 602.33 308.185Z"/>
	<path fill="#221E1F" d="M369.309 332.659C375.664 324.819 384.134 317.417 392.888 312.395C406.871 304.374 421.412 303.142 436.85 307.3C443.314 310.095 453.5 315.413 456.212 322.38C456.57 323.301 456.713 324.286 456.315 325.226C455.591 326.936 453.421 327.809 451.759 328.263C450.851 328.511 449.948 328.618 449.009 328.648C444.009 328.804 438.85 326.837 433.892 326.138C418.257 323.933 403.659 328.099 389.364 334.059C387.333 334.906 385.274 335.679 383.388 336.828C379.521 339.186 371.103 347.22 366.573 345.908C365.63 344.811 365.368 344.119 365.38 342.615C366.298 339.269 367.825 336.078 369.138 332.873L369.309 332.659Z"/>
	<path d="M369.309 332.659C375.664 324.819 384.134 317.417 392.888 312.395C406.871 304.374 421.412 303.142 436.85 307.3C443.314 310.095 453.5 315.413 456.212 322.38C456.57 323.301 456.713 324.286 456.315 325.226C455.591 326.936 453.421 327.809 451.759 328.263C450.851 328.511 449.948 328.618 449.009 328.648C444.009 328.804 438.85 326.837 433.892 326.138C418.257 323.933 403.659 328.099 389.364 334.059C387.333 334.906 385.274 335.679 383.388 336.828C379.521 339.186 371.103 347.22 366.573 345.908C365.63 344.811 365.368 344.119 365.38 342.615C376.518 335.65 386.782 328.536 399.5 324.645Q402.764 323.656 406.099 322.939Q409.434 322.222 412.816 321.781Q416.199 321.341 419.606 321.18Q423.013 321.018 426.422 321.138C428.934 321.227 431.619 321.275 434.094 321.749C439.382 322.761 448.429 326.822 453.418 324.662C453.98 323.625 454.037 323.474 453.595 322.279C451.638 316.984 439.845 311.718 434.746 309.698C415.757 302.173 394.87 312.445 380.403 324.605C377.582 326.977 374.408 331.842 371.063 333.06C370.193 333.377 370.059 333.053 369.309 332.659Z"/>
	<path fill="#FEFEFE" d="M571.211 393.773C576.778 382.846 585.335 372.252 597.345 368.268C606.185 365.335 615.147 366.14 623.418 370.346C634.715 376.09 642.675 386.529 646.551 398.491Q646.984 399.808 647.352 401.145Q647.719 402.482 648.019 403.836Q648.32 405.19 648.552 406.557Q648.785 407.924 648.95 409.301Q649.114 410.678 649.21 412.061Q649.306 413.444 649.333 414.831Q649.36 416.217 649.318 417.603Q649.276 418.989 649.165 420.371Q649.054 421.753 648.875 423.128Q648.696 424.503 648.448 425.868Q648.201 427.232 647.886 428.583Q647.571 429.933 647.189 431.266Q646.808 432.599 646.36 433.912Q645.913 435.224 645.401 436.513Q644.888 437.801 644.313 439.063Q643.737 440.325 643.1 441.556C638.194 450.911 630.587 458.3 620.352 461.494Q619.522 461.749 618.68 461.962Q617.838 462.176 616.987 462.348Q616.135 462.52 615.276 462.649Q614.418 462.779 613.553 462.866Q612.689 462.953 611.822 462.997Q610.954 463.041 610.086 463.042Q609.217 463.044 608.35 463.002Q607.482 462.961 606.618 462.877Q605.753 462.792 604.894 462.665Q604.035 462.539 603.183 462.369Q602.331 462.2 601.488 461.989Q600.646 461.778 599.815 461.526Q598.984 461.274 598.166 460.981Q597.348 460.688 596.546 460.355Q595.744 460.022 594.959 459.65Q594.174 459.277 593.409 458.867C585.728 454.756 580.874 449.033 575.9 442.042Q573.749 437.559 572.053 432.885C567.721 420.917 565.641 405.744 571.211 393.773Z"/>
	<path d="M601.059 386.08C605.217 385.893 609.326 386.468 613.144 388.19C619.73 391.161 624.203 397.052 626.675 403.685C630.243 413.255 630.111 424.197 625.779 433.493C621.668 442.315 615.124 447.165 606.155 450.468C601.154 450.723 596.644 450.071 592.27 447.493C585.174 443.309 580.77 436.014 578.874 428.156C576.516 418.382 577.937 407.164 583.35 398.601C587.541 391.973 593.394 387.797 601.059 386.08Z"/>
	<path fill="#FEFEFE" d="M593.276 395.92C593.899 395.922 594.367 395.906 595.002 395.995C596.97 396.27 599.013 397.488 600.102 399.167C601.361 401.11 601.492 403.45 601.027 405.663C600.167 409.759 598.253 411.591 594.811 413.749C592.472 413.467 590.033 412.744 588.402 410.929C587.248 409.644 586.787 407.978 586.902 406.272C587.206 401.801 590.009 398.659 593.276 395.92Z"/>
	<path fill="#FEFEFE" d="M448.415 447.796C444.206 452.086 440.123 455.67 434.755 458.44C425.837 463.042 415.723 464.918 406.037 461.674C395.415 458.117 387.191 449.599 382.294 439.706Q381.698 438.497 381.163 437.259Q380.627 436.022 380.154 434.759Q379.68 433.497 379.269 432.213Q378.858 430.929 378.51 429.626Q378.163 428.324 377.88 427.005Q377.598 425.687 377.38 424.356Q377.163 423.026 377.012 421.686Q376.86 420.346 376.775 419.001Q376.689 417.655 376.67 416.307Q376.651 414.959 376.699 413.611Q376.747 412.264 376.86 410.921Q376.974 409.577 377.154 408.241Q377.334 406.905 377.58 405.579Q377.825 404.253 378.136 402.941Q378.446 401.629 378.821 400.334Q379.196 399.039 379.634 397.764C383.716 386.146 391.643 375.163 403.008 369.816Q403.829 369.423 404.669 369.071Q405.509 368.72 406.366 368.411Q407.223 368.103 408.094 367.838Q408.965 367.573 409.848 367.353Q410.732 367.132 411.625 366.957Q412.519 366.781 413.42 366.651Q414.321 366.52 415.228 366.436Q416.134 366.351 417.044 366.312Q417.954 366.273 418.864 366.281Q419.775 366.288 420.684 366.341Q421.593 366.394 422.498 366.493Q423.403 366.592 424.302 366.737Q425.201 366.881 426.091 367.071Q426.982 367.261 427.862 367.495Q428.742 367.73 429.608 368.008Q430.475 368.287 431.327 368.609C442.67 372.842 450.407 382.376 455.315 393.103C460.417 412.863 460.429 427.515 449.897 445.459Q449.194 446.651 448.415 447.796Z"/>
	<path d="M421.982 384.563C425.731 384.322 429.154 384.516 432.712 385.851C439.774 388.499 444.636 394.331 447.611 401.06C452.155 411.34 452.844 422.687 448.75 433.21C444.992 442.867 438.675 448.391 429.29 452.451C424.378 452.653 419.948 452.116 415.531 449.747C408.182 445.808 403.392 438.34 401.043 430.512C398.012 420.407 398.778 407.926 403.856 398.582C407.92 391.105 413.979 386.982 421.982 384.563Z"/>
	<path fill="#FEFEFE" d="M416.139 394.309C416.288 394.329 416.439 394.34 416.587 394.369C419.039 394.862 421.319 396.342 422.618 398.496C423.991 400.772 424.07 403.42 423.367 405.931C422.42 409.309 420.475 410.747 417.549 412.434C415.252 411.713 412.977 411.032 411.333 409.167C409.999 407.653 409.293 405.714 409.501 403.698C409.945 399.41 412.983 396.798 416.139 394.309Z"/>
</svg>
