<?xml version="1.0" encoding="utf-8" ?>
<svg xmlns="http://www.w3.org/2000/svg" xmlns:xlink="http://www.w3.org/1999/xlink" width="2047" height="1088">
	<path fill="#B7B8B9" d="M886.302 865.506C900.742 868.859 923.49 869.926 936.232 875.346C943.698 878.315 951.156 880.733 958.965 882.639C973.487 886.183 998.165 887.935 1004.91 903.452C1007.08 908.448 1007.28 914.159 1005.17 919.206C1000.16 931.208 983.375 937.852 972.026 942.296C951.86 950.192 931.097 953.484 910.632 959.882C907.207 955.041 903.489 952.107 898.463 948.979C892.092 921.413 887.007 893.873 886.302 865.506Z"/>
	<path d="M793.627 425.953C806.17 355.813 813.63 281.252 807.43 210.032C806.305 197.108 803.615 184.578 801.854 171.762C799.812 156.903 801.152 140.995 810.815 128.745C821.973 114.602 851.412 112.279 868.116 110.472C902.859 106.714 938.609 106.263 973.55 106.681C1020.86 107.248 1280.13 119.747 1305.78 133.858C1327.28 145.686 1327.03 182.4 1334.71 188.233C1336.32 189.454 1337.32 190.149 1339.36 189.874C1340.38 185.703 1334.75 171.866 1333.53 167.034C1325.43 135.086 1324.02 99.6545 1337.14 68.7788C1340.95 59.8195 1348.82 45.0535 1358.09 41.2963C1359.77 41.4338 1360.63 41.1901 1361.86 42.4234C1369.28 49.8492 1391.77 95.9881 1398.3 108.239L1495.14 291.139C1500.79 301.851 1546.45 385.24 1546.41 390.983C1549.11 388.913 1550.62 385.934 1552.26 383.029C1566.26 358.317 1578.38 332.365 1591.88 307.343L1725.5 60.4149C1728.32 55.2994 1734.52 42.4587 1739.87 40.9016C1741.57 41.2012 1742.94 41.6361 1744.26 42.8029C1757.33 54.3481 1764.68 97.6316 1765.26 114.939C1765.87 133.179 1762.75 151.175 1757.68 168.659C1750.49 193.455 1650.45 463.176 1645.07 468.947C1648.16 471.328 1649.93 475.478 1651.31 479.019C1656.4 492.06 1654.96 507.604 1649.29 520.234C1643.61 532.875 1633.29 543.299 1620.32 548.342C1620.34 548.499 1620.39 548.655 1620.39 548.814C1620.47 553.333 1612.69 563.625 1609.86 567.125C1613.58 570.457 1646.54 636.249 1649.53 644.349C1652.05 644.277 1654.59 644.201 1657.12 644.315C1674.65 645.11 1684.13 675.694 1698.1 688.823C1726.61 715.618 1763.46 703.78 1799.39 721.559C1832 737.692 1857.94 764.92 1869.5 799.666Q1870.04 801.305 1870.55 802.957Q1871.05 804.609 1871.51 806.272Q1871.97 807.936 1872.4 809.61Q1872.82 811.284 1873.2 812.968Q1873.58 814.652 1873.92 816.345Q1874.26 818.038 1874.56 819.738Q1874.85 821.439 1875.11 823.146Q1875.37 824.854 1875.58 826.567Q1875.8 828.28 1875.97 829.998Q1876.15 831.715 1876.28 833.437Q1876.41 835.158 1876.5 836.883Q1876.59 838.607 1876.63 840.333Q1876.68 842.059 1876.69 843.785Q1876.69 845.512 1876.66 847.238Q1876.62 848.964 1876.54 850.689Q1876.46 852.413 1876.34 854.136Q1876.22 855.858 1876.06 857.577Q1875.9 859.296 1875.69 861.01Q1875.49 862.724 1875.24 864.433Q1874.99 866.142 1874.71 867.845Q1874.42 869.547 1874.09 871.242Q1873.76 872.937 1873.39 874.623Q1873.02 876.31 1872.61 877.986Q1872.2 879.663 1871.75 881.33Q1871.29 882.996 1870.8 884.651Q1870.31 886.306 1869.78 887.948Q1869.24 889.591 1868.67 891.22Q1868.1 892.849 1867.49 894.463Q1866.87 896.078 1866.22 897.677Q1865.57 899.276 1864.88 900.859Q1864.19 902.442 1863.46 904.007Q1862.74 905.573 1861.97 907.12C1846.2 938.468 1818.64 963.655 1785.11 974.645Q1783.6 975.153 1782.08 975.623Q1780.56 976.093 1779.02 976.526Q1777.49 976.958 1775.95 977.353Q1774.4 977.747 1772.85 978.104Q1771.3 978.46 1769.74 978.778Q1768.18 979.096 1766.61 979.375Q1765.04 979.654 1763.46 979.895Q1761.89 980.135 1760.31 980.337Q1758.73 980.538 1757.14 980.701Q1755.56 980.863 1753.97 980.986Q1752.38 981.11 1750.79 981.194Q1749.2 981.278 1747.61 981.322Q1746.02 981.367 1744.42 981.373Q1742.83 981.378 1741.24 981.344Q1739.64 981.31 1738.05 981.237Q1736.46 981.164 1734.87 981.051Q1733.28 980.939 1731.7 980.787Q1730.11 980.635 1728.53 980.444Q1726.95 980.254 1725.37 980.024Q1723.8 979.794 1722.23 979.525Q1720.66 979.257 1719.09 978.949Q1717.53 978.642 1715.97 978.296Q1714.42 977.951 1712.87 977.566Q1711.33 977.182 1709.79 976.76Q1708.25 976.338 1706.73 975.878Q1705.2 975.418 1703.69 974.921Q1702.18 974.423 1700.68 973.889Q1699.18 973.354 1697.69 972.782Q1696.2 972.211 1694.73 971.603Q1693.26 970.995 1691.8 970.351Q1690.34 969.706 1688.9 969.026Q1687.46 968.346 1686.04 967.631Q1683.84 966.52 1681.68 965.335Q1679.52 964.151 1677.4 962.894Q1675.28 961.637 1673.2 960.309Q1671.12 958.982 1669.09 957.585Q1667.06 956.188 1665.08 954.723Q1663.1 953.259 1661.17 951.728Q1659.23 950.198 1657.35 948.603Q1655.48 947.008 1653.65 945.351Q1651.83 943.693 1650.06 941.976Q1648.29 940.258 1646.58 938.481Q1644.88 936.705 1643.23 934.872Q1641.58 933.039 1640 931.151Q1638.41 929.263 1636.89 927.323Q1635.37 925.384 1633.92 923.393Q1632.47 921.403 1631.08 919.365Q1629.7 917.328 1628.38 915.244C1618.57 899.634 1614.23 882.835 1608.59 865.517L1594.29 822.911C1583.6 791.194 1571.91 759.655 1561.7 727.805C1559.1 719.688 1555.64 709.608 1560.23 701.65C1561.88 698.804 1564.39 696.443 1565.84 693.509C1566 693.189 1566.15 692.866 1566.31 692.545C1566.41 686.931 1557.58 665.627 1553.73 661.319C1553.13 661.944 1552.6 662.296 1551.85 662.722C1541.11 668.832 1529.31 665.693 1518.19 662.6C1517.49 670.765 1510.66 683.828 1506.6 690.935C1508.18 692.375 1509.7 693.914 1511.16 695.478C1514.23 698.787 1515.78 702.292 1515.52 706.857C1515.3 710.642 1514.3 714.521 1513.16 718.124C1503.26 749.408 1490.57 780.319 1479.74 811.354C1470.48 837.896 1461.53 871.555 1448.95 895.966C1441.51 910.422 1430.98 923.261 1418.93 934.124Q1417.68 935.237 1416.41 936.319Q1415.14 937.401 1413.84 938.452Q1412.54 939.503 1411.21 940.523Q1409.89 941.542 1408.54 942.529Q1407.19 943.516 1405.82 944.47Q1404.44 945.424 1403.05 946.344Q1401.65 947.265 1400.24 948.151Q1398.82 949.037 1397.38 949.889Q1395.94 950.741 1394.49 951.558Q1393.03 952.374 1391.55 953.156Q1390.07 953.937 1388.58 954.682Q1387.08 955.427 1385.57 956.136Q1384.05 956.844 1382.52 957.516Q1380.99 958.188 1379.44 958.823Q1377.9 959.457 1376.34 960.054Q1374.78 960.651 1373.2 961.21Q1371.62 961.769 1370.04 962.29Q1368.45 962.81 1366.85 963.292Q1365.25 963.774 1363.63 964.218Q1362.02 964.661 1360.4 965.065Q1358.78 965.469 1357.15 965.833Q1355.52 966.198 1353.88 966.523Q1352.24 966.848 1350.59 967.133Q1348.94 967.418 1347.29 967.663Q1345.64 967.908 1343.98 968.113Q1342.32 968.318 1340.65 968.483Q1338.99 968.648 1337.32 968.772Q1335.66 968.897 1333.99 968.981Q1332.32 969.065 1330.65 969.109Q1328.98 969.152 1327.3 969.155Q1325.63 969.158 1323.96 969.121Q1322.29 969.084 1320.62 969.006C1282.34 967.014 1244.34 945.962 1222.22 914.638C1215.96 905.771 1211.82 893.12 1204.66 885.48C1204.51 885.321 1204.35 885.17 1204.2 885.015C1204.25 885.74 1204.3 885.924 1204.26 886.588C1203.91 891.882 1194.26 904.373 1190.29 907.532C1174.62 919.996 1146.62 905.161 1128.83 903.001C1129.51 903.671 1148.77 953.014 1150.04 956.964C1154.13 956.904 1160.23 955.023 1163.89 957.041C1166.83 958.663 1167.41 962.211 1168.53 965.139C1172.99 964.525 1180.05 956.844 1184.33 954.184Q1187.25 952.383 1190.34 950.91Q1193.43 949.436 1196.67 948.307Q1198.05 947.823 1199.45 947.407Q1200.85 946.991 1202.26 946.644Q1203.68 946.297 1205.12 946.02Q1206.55 945.743 1207.99 945.536Q1209.44 945.329 1210.89 945.194Q1212.35 945.058 1213.81 944.993Q1215.27 944.929 1216.73 944.936Q1218.19 944.943 1219.64 945.022Q1221.1 945.1 1222.55 945.25Q1224.01 945.4 1225.45 945.62Q1226.89 945.841 1228.32 946.132Q1229.75 946.423 1231.17 946.784Q1232.58 947.145 1233.98 947.574Q1235.37 948.004 1236.75 948.501Q1238.12 948.998 1239.47 949.562Q1240.81 950.126 1242.13 950.755Q1243.47 951.4 1244.78 952.11Q1246.08 952.821 1247.35 953.595Q1248.62 954.369 1249.85 955.206Q1251.08 956.042 1252.27 956.938Q1253.45 957.834 1254.59 958.788Q1255.73 959.742 1256.83 960.752Q1257.92 961.761 1258.96 962.823Q1260 963.886 1260.98 964.998Q1261.97 966.111 1262.9 967.271Q1263.83 968.431 1264.7 969.636Q1265.57 970.841 1266.38 972.087Q1267.19 973.334 1267.94 974.619Q1268.69 975.904 1269.37 977.225Q1270.05 978.545 1270.67 979.898Q1271.28 981.251 1271.83 982.633Q1272.38 984.015 1272.86 985.422C1277.41 998.41 1278.86 1015.03 1272.54 1027.64Q1272.18 1028.34 1271.8 1029.03Q1271.41 1029.71 1270.98 1030.38Q1270.56 1031.05 1270.11 1031.69Q1269.65 1032.33 1269.17 1032.96Q1268.68 1033.58 1268.16 1034.17Q1267.65 1034.77 1267.1 1035.34Q1266.56 1035.91 1265.99 1036.45Q1265.42 1037 1264.82 1037.51Q1264.22 1038.03 1263.6 1038.51Q1262.98 1038.99 1262.33 1039.45Q1261.69 1039.9 1261.02 1040.32Q1260.36 1040.74 1259.67 1041.13Q1258.98 1041.52 1258.28 1041.87Q1257.57 1042.23 1256.85 1042.55Q1256.13 1042.87 1255.4 1043.15Q1254.66 1043.43 1253.91 1043.68C1236.02 1049.63 1146.27 1048.24 1130.59 1039.95C1115.57 1032 1119.04 1015.72 1114.65 1002.27L1114.4 1001.53C1113.56 998.77 1109.38 995.384 1107.64 992.798C1103.56 986.726 1108.39 982.12 1109.43 976.295C1109.49 975.945 1109.54 975.593 1109.6 975.242C1108.37 968.467 1099.14 951.494 1095.94 943.671Q1091.1 931.924 1087.18 919.841Q1083.26 907.757 1080.28 895.409C1054.58 891.319 1028.55 888.949 1002.79 885.085C986.157 882.591 950.569 874.98 936.232 875.346C923.49 869.926 900.742 868.859 886.302 865.506C887.007 893.873 892.092 921.413 898.463 948.979C903.489 952.107 907.207 955.041 910.632 959.882C914.816 970.77 919.493 1004.31 914.686 1014.55C911.399 1021.55 901.137 1025.6 894.274 1027.91C862.715 1038.51 790.203 1047.34 760.034 1031.9C754.675 1029.16 751.829 1025.33 750.017 1019.63C746.661 1009.08 747.431 994.547 749.823 983.809C727.709 988.179 703.175 988.744 680.636 990.57C621.748 995.34 562.782 999.05 503.668 998.178C463.633 997.588 423.886 993.581 383.976 990.956C283.989 984.38 184.323 978.257 86.1473 956.603C66.6874 952.311 46.0756 948.98 27.7265 940.994C22.7691 938.836 15.0055 935.257 13.1572 929.699C12.3923 927.399 12.8845 925.228 14.0035 923.143C25.4709 901.774 95.331 887.496 118.588 880.313C116.222 872.403 116.462 864.94 116.967 856.824C99.7407 834.02 50.8546 771.348 48.1795 745.291C47.9331 742.891 48.4022 740.586 49.0567 738.284C54.2537 720.009 67.5123 704.823 76.5841 688.363C85.5546 672.086 92.2965 654.613 100.566 637.973C106.542 625.947 114.235 614.79 119.794 602.566C133.913 571.517 141.313 537.526 154.486 505.974C172.638 462.497 196.124 421.415 213.977 377.795C220.538 361.764 221.358 339.107 232.14 325.705C245.957 308.531 348.161 259.241 375.285 249.684C393.878 243.133 415.898 240.728 432.9 230.716C443.43 224.516 452.332 215.352 461.327 207.186C485.563 185.183 515.745 158.022 549.788 154.616C569.95 152.599 587.68 161.126 602.861 173.57C637.06 201.602 657.814 241.364 686.494 274.259C715.405 307.419 752.625 335.213 776.335 372.497C787.165 389.527 791.677 406.035 793.627 425.953ZM1651.24 930.021C1657.53 930.6 1679.47 946.947 1689.44 951.008C1719.51 963.257 1754.15 960.84 1783.7 948.251Q1785.07 947.678 1786.42 947.072Q1787.78 946.466 1789.12 945.826Q1790.45 945.186 1791.78 944.512Q1793.1 943.839 1794.4 943.133Q1795.71 942.427 1797 941.689Q1798.28 940.951 1799.55 940.181Q1800.82 939.41 1802.07 938.609Q1803.32 937.807 1804.54 936.975Q1805.77 936.143 1806.98 935.28Q1808.19 934.417 1809.37 933.524Q1810.56 932.632 1811.72 931.71Q1812.88 930.788 1814.02 929.838Q1815.16 928.887 1816.27 927.908Q1817.39 926.93 1818.48 925.924Q1819.57 924.917 1820.63 923.884Q1821.7 922.851 1822.74 921.792Q1823.78 920.733 1824.79 919.648Q1825.8 918.563 1826.79 917.453Q1827.77 916.344 1828.73 915.21Q1829.68 914.076 1830.61 912.918Q1831.54 911.761 1832.44 910.581Q1833.34 909.4 1834.21 908.198Q1835.07 906.996 1835.91 905.772Q1836.75 904.549 1837.56 903.305Q1838.37 902.061 1839.14 900.797Q1839.92 899.533 1840.67 898.25Q1841.41 896.967 1842.12 895.666Q1842.84 894.365 1843.52 893.047Q1844.2 891.729 1844.84 890.394Q1845.49 889.059 1846.1 887.708Q1846.72 886.357 1847.3 884.992Q1847.87 883.626 1848.42 882.247C1863.63 844.429 1858.55 808.009 1842.97 771.431C1842.7 764.992 1831.76 754.974 1827.03 750.621C1809.85 734.825 1784.76 721.828 1761.47 718.793C1743.36 716.433 1725.01 716.446 1708.57 707.491Q1705.09 705.611 1701.8 703.411Q1698.51 701.211 1695.45 698.712Q1692.38 696.213 1689.56 693.436Q1686.74 690.659 1684.2 687.63C1678.29 680.472 1666.73 652.908 1658.26 653.301C1654.63 653.469 1650.71 655.255 1647.48 656.784C1636.21 662.114 1625.57 669.499 1614.72 675.653C1602.91 682.347 1590.22 688.153 1578.81 695.45C1575.64 697.476 1572.41 699.88 1569.94 702.743C1567.31 705.803 1566.96 708.035 1567.39 711.927C1569.08 727.156 1576.55 743.161 1581.59 757.646L1602.15 818.106L1618.91 868.121C1622.64 879.468 1625.84 891.515 1630.95 902.329C1636.51 914.098 1646.12 921.38 1651.24 930.021ZM1421.99 654.743C1421.96 655.357 1422.07 656.544 1421.88 657.084C1421.54 658.046 1401.29 689.041 1400.02 690.752Q1395.06 697.544 1388.87 703.247C1361.8 727.824 1328.65 718.729 1296.78 728.454C1287.65 731.24 1272.83 742.163 1264.98 742.942C1264.73 753.602 1217.86 865.854 1210.21 873.594C1215.94 880.613 1217.53 892.199 1221.97 900.243C1225.3 906.268 1233.1 911.986 1235.45 917.977C1243.58 918.579 1250.14 925.205 1257.05 928.938C1281.85 942.345 1313.58 948.592 1341.52 944.268C1371.69 939.597 1400.62 921.045 1418.47 896.27C1424.01 888.575 1428.76 879.175 1432.53 870.479C1440.65 851.771 1446.54 831.93 1454.13 812.959L1483.89 738.308C1488.25 727.552 1493.43 717.019 1497.49 706.169C1498.57 703.27 1499.63 700.538 1499.13 697.402L1498.53 696.032C1494.62 693.176 1424.24 655.217 1421.99 654.743ZM1378.76 287.234C1380.29 306.861 1338.79 517.49 1333.73 522.735C1333.54 522.932 1333.34 523.113 1333.14 523.303C1357.09 535.7 1381.32 574.164 1389.33 599.322C1394.82 616.609 1396.77 637.838 1387.99 654.405C1382.63 664.524 1373.56 671.122 1362.65 674.253C1347.67 678.548 1332.74 675.782 1317.93 672.381C1313.35 675.926 1307.74 678.275 1301.89 677.557C1296.52 676.899 1293.23 674.692 1289.06 671.419C1286.69 681.3 1280.65 707.439 1274.23 714.076C1274.08 714.233 1273.94 714.399 1273.79 714.561C1287.48 710.72 1300.24 705.893 1314.36 703.486C1338.3 702.4 1362.74 703.102 1380.29 683.714C1395.96 666.393 1394.33 645.602 1422.46 643.152C1430.22 632.648 1439.05 612.05 1445.81 599.508C1451.47 589.022 1465.18 566.922 1468.65 557.437C1469.02 556.435 1469.01 555.491 1468.95 554.438C1451.63 550.745 1438.94 545.527 1428.86 529.84Q1428.1 528.669 1427.4 527.461Q1426.71 526.253 1426.07 525.012Q1425.43 523.771 1424.86 522.499Q1424.29 521.228 1423.78 519.929Q1423.27 518.63 1422.83 517.307Q1422.38 515.985 1422.01 514.641Q1421.63 513.298 1421.32 511.938Q1421.01 510.577 1420.78 509.203Q1420.54 507.829 1420.37 506.444Q1420.2 505.06 1420.1 503.669Q1420 502.277 1419.97 500.883Q1419.94 499.488 1419.98 498.094Q1420.02 496.7 1420.13 495.309Q1420.24 493.919 1420.41 492.535Q1420.59 491.152 1420.84 489.78Q1421.09 488.407 1421.41 487.049C1424.58 473.23 1431.19 464.877 1441.92 456.051C1443.97 454.371 1447.15 452.564 1448.61 450.435C1448.74 447.985 1448.22 446.277 1447.35 444.04C1434.01 409.779 1418.19 376.141 1403.76 342.292C1398.18 329.209 1386.92 298.45 1380.08 287.925L1378.76 287.234ZM1128.99 1021.53C1133.25 1027.46 1139.35 1028.28 1146.23 1029.39C1162.76 1032.05 1244.54 1035.18 1255.14 1027.46C1255.87 1026.92 1255.71 1027.08 1256.1 1026.56L1257.9 1024.13L1257.21 1023.1C1245.25 1023.24 1233.43 1025.94 1221.44 1025.98C1190.54 1026.07 1159.8 1022.75 1128.99 1021.53Z"/>
	<path fill="#EC6313" d="M857.636 850.399L872.486 854.493Q872.639 861.53 872.941 868.563C868.78 868.793 862.629 868.108 859.315 870.77C858.33 872.868 858.177 874.466 858.082 876.768C856.665 868.381 857.486 858.914 857.636 850.399Z"/>
	<path fill="#EBECE6" d="M689.018 626.53C694.882 626.334 700.016 627.215 705.711 628.399C695.61 634.357 687.642 639.793 679.595 648.326C678.47 649.972 677.149 651.449 675.85 652.957C673.298 653 673.374 652.842 671.487 651.08C670.144 647.418 670.631 643.912 672.116 640.352C675.351 632.596 681.664 629.502 689.018 626.53Z"/>
	<path fill="#AAD5DF" d="M1173.54 865.694C1174.36 865.873 1174.15 865.762 1174.78 866.1C1176.39 866.954 1176.45 867.264 1176.98 868.978C1178.86 875.125 1178.66 891.863 1175.66 897.253C1169.02 894.133 1153.56 893.016 1145.87 891.662L1136.91 889.589C1147.51 885.904 1167.7 875.715 1173.54 865.694Z"/>
	<path fill="#EBECE6" d="M1331.45 202.309C1340.65 201.532 1359.79 206.48 1369.75 208.138C1369.73 208.38 1369.73 208.624 1369.7 208.866C1369.21 213.219 1363.17 218.812 1359.79 221.297C1359.74 221.776 1359.75 221.907 1359.5 222.398C1357.31 226.68 1350.69 229.783 1346.49 231.541C1346.45 230.661 1346.34 230.104 1345.81 229.381C1339.24 220.49 1335.25 212.705 1331.45 202.309Z"/>
	<path fill="#EBECE6" d="M1306.93 156.35L1309.05 157.361C1311.51 161.279 1336.14 228.298 1336.1 229.293C1327.89 227.889 1319.9 220.643 1312.73 216.602C1315.6 208.089 1310.61 165.238 1306.93 156.35Z"/>
	<path fill="#EBECE6" d="M1327.32 611.929L1330.5 612.433C1333.87 615.39 1335.88 617.874 1336.66 622.402C1338.28 631.799 1334.4 642.858 1329 650.456C1323.33 658.433 1316.26 663.373 1306.57 664.949C1304.3 665.606 1301.37 665.277 1298.99 665.28L1298.21 664.42C1304.68 659.641 1310.17 654.998 1314.82 648.325C1320.66 639.956 1329.16 622.113 1327.32 611.929Z"/>
	<path fill="#EBECE6" d="M1433.1 650.518C1432.25 649.389 1432.15 648.537 1431.91 647.183C1435.12 637.505 1474.67 562.528 1480.46 555.528C1482.13 553.519 1483.59 553.865 1486.04 553.606C1486.21 554.389 1486.83 556.068 1486.75 556.792C1486.26 561.163 1443.78 638.051 1437.49 647.71C1436.34 649.475 1435.06 649.978 1433.1 650.518Z"/>
	<path fill="#778D93" d="M749.779 585.563L750.823 586.181C753.155 592.301 738 623.474 734.909 630.549Q733.887 628.327 732.798 626.138C728.786 618.109 724.238 615.811 715.885 613.018C710.294 614.792 705.827 617.324 700.884 620.383Q701.168 619.807 701.458 619.235C712.215 598.074 728.751 592.424 749.779 585.563Z"/>
	<path fill="#EBECE6" d="M902.056 1004.22L903.798 1004.79L904.571 1006.57C904.008 1007.78 903.564 1008.47 902.475 1009.28C886.466 1021.17 830.051 1025.44 810.696 1025.2C797.418 1025.03 784.506 1023.44 771.412 1021.43C769.462 1020.93 767.842 1020.22 766.063 1019.28L766.101 1017.89C773.81 1014.29 803.705 1017.21 814.09 1017.07C844.244 1016.64 873.125 1012.94 902.056 1004.22Z"/>
	<path fill="#FA8C35" d="M858.082 876.768C858.177 874.466 858.33 872.868 859.315 870.77C862.629 868.108 868.78 868.793 872.941 868.563C876.394 898.111 880.8 926.301 888.135 955.167C881.085 955.026 873.98 955.058 866.942 954.673C865.45 939.901 862.804 925.273 861.032 910.535C859.679 899.291 859.176 888.023 858.082 876.768Z"/>
	<path fill="#FA8C35" d="M1090.37 887.3C1096.68 887.027 1103.36 888.139 1109.6 889.077C1114.2 893.161 1116.99 906.594 1119.05 912.648C1122.68 923.301 1126.48 934.188 1131.37 944.332C1134.62 951.067 1138.97 957.441 1141.48 964.48C1139.57 966.862 1137.69 967.16 1134.87 968.238C1134.81 968.383 1134.78 968.539 1134.7 968.674C1133.19 971.28 1126.71 973.298 1124.01 974.354C1124.12 968.889 1112.84 950.679 1110.17 944.664C1103.31 929.246 1097.29 897.949 1090.37 887.3Z"/>
	<path fill="#41687E" d="M72.6607 748.63C78.8225 747.844 85.3447 748.599 91.4647 749.414C91.48 749.571 91.4936 749.729 91.5105 749.886C93.4669 768.083 101.805 785.402 107.518 802.717C111.781 815.639 114.922 828.861 118.061 842.089C116.013 839.824 114.102 837.398 112.14 835.056C92.6709 809.506 72.6269 780.536 58.6537 751.64C63.2272 750.297 67.9829 749.529 72.6607 748.63Z"/>
	<path fill="#B7B8B9" d="M107.494 651.087C108.699 655.774 101.379 724.893 99.9854 731.132C98.8846 736.062 96.2944 740.38 93.8247 744.732C81.8326 742.195 72.1136 742.371 60.2097 745.063L58.5544 744.536C57.9911 741.221 59.1731 738.689 60.7203 735.727C67.4082 722.92 76.4529 711.171 83.7752 698.671C92.6765 683.476 100.021 667.032 107.494 651.087Z"/>
	<path fill="#EBECE6" d="M1270.08 727.059C1282.88 722.468 1294.59 716.554 1308.02 713.614C1330.76 708.635 1353.13 713.127 1374.15 700.554C1390.62 690.708 1402.73 656.698 1416.42 652.499C1418.86 652.705 1420.06 653.24 1421.99 654.743C1421.96 655.357 1422.07 656.544 1421.88 657.084C1421.54 658.046 1401.29 689.041 1400.02 690.752Q1395.06 697.544 1388.87 703.247C1361.8 727.824 1328.65 718.729 1296.78 728.454C1287.65 731.24 1272.83 742.163 1264.98 742.942C1265.29 742.571 1265.47 742.378 1265.73 741.996C1268.13 738.396 1270.89 731.316 1270.08 727.059Z"/>
	<path fill="#FA8C35" d="M762.4 545.816L763.951 546.607C765.549 552.749 759.994 564.019 757.807 569.841C742.108 572.53 723.852 577.317 710.568 586.342C697.435 595.265 693.985 605.811 691.237 620.615C681.196 623.768 674.952 629.115 667.886 636.599C666.982 635.678 666.59 634.735 666.337 633.461C663.722 620.302 671.684 600.568 679.114 590.104C697.617 564.045 731.979 550.864 762.4 545.816Z"/>
	<path fill="#EBECE6" d="M1522.14 469.606C1521.62 467.549 1520.06 465.875 1519.52 463.566C1527.29 445.988 1537.94 429.057 1547.1 412.098L1591.35 328.423Q1646.14 225.123 1702.79 122.825C1712.55 104.948 1720.85 86.3033 1730.84 68.5824C1733.16 64.4527 1736.18 58.1734 1740.25 55.5873L1741.86 56.3673L1742.06 58.8867C1742.23 60.6362 1742.6 61.6913 1741.82 63.2893C1728.18 91.1835 1711.83 118.284 1697.14 145.69L1589.57 345.811L1544.96 430.023C1539.25 440.911 1532.2 458.213 1524.92 467.482C1524.18 468.431 1523.22 469.094 1522.14 469.606Z"/>
	<path fill="#EC6313" d="M1842.97 771.431C1853.61 777.942 1860.96 800.913 1863.77 812.463Q1864.15 814.062 1864.49 815.67Q1864.82 817.278 1865.12 818.893Q1865.42 820.509 1865.68 822.131Q1865.94 823.753 1866.16 825.381Q1866.38 827.01 1866.56 828.643Q1866.75 830.276 1866.89 831.913Q1867.03 833.55 1867.13 835.189Q1867.23 836.829 1867.29 838.471Q1867.35 840.113 1867.38 841.756Q1867.4 843.399 1867.38 845.042Q1867.36 846.685 1867.3 848.326Q1867.24 849.968 1867.15 851.608Q1867.05 853.248 1866.91 854.886Q1866.77 856.523 1866.59 858.156Q1866.42 859.79 1866.2 861.418Q1865.98 863.047 1865.72 864.67Q1865.47 866.292 1865.17 867.909Q1864.88 869.525 1864.54 871.133Q1864.21 872.742 1863.83 874.342Q1863.46 875.941 1863.04 877.532Q1862.63 879.122 1862.18 880.702Q1861.73 882.282 1861.24 883.85Q1860.75 885.418 1860.22 886.974Q1859.69 888.53 1859.13 890.073Q1858.56 891.616 1857.96 893.145Q1857.36 894.673 1856.72 896.187Q1856.08 897.7 1855.4 899.198Q1854.73 900.695 1854.01 902.176Q1853.3 903.657 1852.55 905.12Q1851.81 906.583 1851.02 908.027Q1850.24 909.471 1849.42 910.896Q1848.6 912.321 1847.75 913.726Q1846.97 915.014 1846.15 916.281Q1845.34 917.549 1844.49 918.797Q1843.65 920.044 1842.77 921.27Q1841.89 922.497 1840.99 923.701Q1840.08 924.905 1839.15 926.087Q1838.21 927.269 1837.25 928.427Q1836.28 929.585 1835.29 930.719Q1834.3 931.854 1833.28 932.963Q1832.26 934.072 1831.21 935.156Q1830.16 936.24 1829.09 937.298Q1828.02 938.356 1826.92 939.387Q1825.82 940.418 1824.69 941.422Q1823.57 942.426 1822.42 943.402Q1821.27 944.378 1820.1 945.325Q1818.93 946.272 1817.73 947.19Q1816.54 948.108 1815.32 948.997Q1814.1 949.885 1812.86 950.743Q1811.62 951.601 1810.36 952.429Q1809.1 953.256 1807.82 954.052Q1806.55 954.848 1805.25 955.613Q1803.95 956.377 1802.63 957.109Q1801.31 957.842 1799.98 958.541Q1798.64 959.241 1797.29 959.907Q1795.94 960.574 1794.57 961.207Q1793.2 961.84 1791.82 962.439Q1790.44 963.038 1789.04 963.603Q1787.64 964.168 1786.23 964.698Q1784.82 965.229 1783.4 965.724Q1781.97 966.219 1780.54 966.68Q1779.1 967.14 1777.65 967.565Q1776.21 967.99 1774.75 968.379Q1773.3 968.768 1771.83 969.121C1741.35 976.258 1706.32 970.96 1679.67 954.278C1672.3 949.657 1665.7 943.941 1659.41 937.953C1656.78 935.452 1654.25 931.923 1651.24 930.021C1657.53 930.6 1679.47 946.947 1689.44 951.008C1719.51 963.257 1754.15 960.84 1783.7 948.251Q1785.07 947.678 1786.42 947.072Q1787.78 946.466 1789.12 945.826Q1790.45 945.186 1791.78 944.512Q1793.1 943.839 1794.4 943.133Q1795.71 942.427 1797 941.689Q1798.28 940.951 1799.55 940.181Q1800.82 939.41 1802.07 938.609Q1803.32 937.807 1804.54 936.975Q1805.77 936.143 1806.98 935.28Q1808.19 934.417 1809.37 933.524Q1810.56 932.632 1811.72 931.71Q1812.88 930.788 1814.02 929.838Q1815.16 928.887 1816.27 927.908Q1817.39 926.93 1818.48 925.924Q1819.57 924.917 1820.63 923.884Q1821.7 922.851 1822.74 921.792Q1823.78 920.733 1824.79 919.648Q1825.8 918.563 1826.79 917.453Q1827.77 916.344 1828.73 915.21Q1829.68 914.076 1830.61 912.918Q1831.54 911.761 1832.44 910.581Q1833.34 909.4 1834.21 908.198Q1835.07 906.996 1835.91 905.772Q1836.75 904.549 1837.56 903.305Q1838.37 902.061 1839.14 900.797Q1839.92 899.533 1840.67 898.25Q1841.41 896.967 1842.12 895.666Q1842.84 894.365 1843.52 893.047Q1844.2 891.729 1844.84 890.394Q1845.49 889.059 1846.1 887.708Q1846.72 886.357 1847.3 884.992Q1847.87 883.626 1848.42 882.247C1863.63 844.429 1858.55 808.009 1842.97 771.431Z"/>
	<path fill="#FA8C35" d="M1304.28 522.012C1304.83 521.902 1305.08 521.84 1305.68 521.795C1313.49 521.21 1326.85 532.859 1332.6 537.821C1357.58 559.391 1379.29 589.007 1381.59 622.994C1382.27 632.962 1380.86 643.438 1373.95 651.146C1366.25 659.736 1355.04 661.719 1344.09 662.459C1338.47 662.994 1332.47 662.452 1326.81 662.337C1326.94 662.261 1327.07 662.189 1327.19 662.109C1333.78 657.844 1340 644.527 1341.73 636.908C1344.07 636.003 1346.49 635.112 1348.72 633.942C1352.34 632.036 1354.45 628.867 1355.62 625.02C1359.07 613.707 1351.82 599.064 1346.44 589.219C1335.62 569.403 1316.76 550.925 1294.68 544.381C1294.86 544.218 1295.04 544.063 1295.2 543.893C1297.93 541.125 1304.3 525.932 1304.28 522.012Z"/>
	<path fill="#B7B8B9" d="M1604.55 578.966L1606.15 579.569C1611.79 586.245 1641.14 643.014 1641.62 649.75C1639.81 652.713 1596.02 676.55 1590.09 678.917C1586.56 682.956 1578.54 686.222 1573.59 688.182C1573.69 687.629 1573.71 687.605 1573.75 686.969C1574.1 681.559 1564.37 659.757 1560.88 655.523C1566.05 651.269 1599.5 589.052 1604.55 578.966Z"/>
	<path fill="#EBECE6" d="M717.097 629.373C718.104 629.378 717.793 629.288 718.649 629.585C723.19 631.163 725.134 636.931 728.851 639.859C735.582 645.16 748.597 644.766 752.249 653.691C753.881 657.679 752.996 663.095 751.455 667.005C750.479 669.48 749.023 671.739 746.406 672.687C737.804 675.803 721.565 660.894 713.178 657.462C723.813 675.604 740.304 672.757 747.578 682.668C748.802 684.335 749.502 686.56 749.162 688.624C748.633 691.838 745.738 696.089 743.065 697.946C730.333 706.794 713.597 684.067 702.138 681.46L701.663 682.708C705.323 691.773 711.539 697.061 719.46 702.299C722.612 703.817 727.315 705.78 728.256 709.483C728.779 711.543 728.334 712.846 727.253 714.579C725.48 717.424 720.183 720.604 716.904 721.14C703.525 723.328 697.028 696.459 688.301 689.562L687.293 690.349C688.006 701.1 694.887 709.802 701.202 717.983L694.334 724.976C685.293 719.331 678.837 711.948 675.235 701.798C670.43 688.26 671.615 672.668 677.827 659.787C686.144 642.541 699.844 635.309 717.097 629.373Z"/>
	<path fill="#778D93" d="M679.562 811.502Q697.376 819.419 715.756 825.913C701.766 851.409 688.093 887.623 670.127 908.948C667.827 911.679 650.029 928.116 650.038 928.986C650.045 929.67 650.396 930.307 650.574 930.968C650.026 933.885 648.497 934.944 646.519 937.11C631.497 937.95 613.86 940.624 598.942 938.86C599.861 938.251 599.435 938.375 600.553 938.279C601.841 938.169 603.209 938.218 604.444 937.796C606.554 937.076 608.243 933.112 609.367 931.182C617.684 916.901 620.451 900.065 628.973 886.264C637.051 873.181 648.457 862.424 657.73 850.201C666.679 838.406 673.007 824.708 679.562 811.502Z"/>
	<path fill="#EBECE6" d="M1271.43 559.983C1276.26 559.354 1281.43 559.124 1286.29 559.362C1297.17 559.893 1307.59 563.575 1314.98 571.829C1323.57 581.425 1325.38 594.725 1324.59 607.124C1323.63 622.273 1318.03 644.731 1306.11 654.959C1301.88 658.584 1296.56 659.578 1291.11 659.071C1278.12 657.862 1260.8 649.591 1251.35 640.686C1248.29 637.804 1245.73 634.076 1243.04 630.824C1245.91 628.507 1246.81 623.892 1249.6 621.197C1253.46 617.469 1259.69 616.361 1264.87 616.26C1270.37 616.153 1278.48 617.342 1282.56 621.295C1286.04 622.591 1288.12 623.847 1290.75 626.523L1291.49 627.289L1291.29 626.803L1292.08 626.77C1291.32 623.967 1290.4 621.593 1288.38 619.46C1284.76 615.619 1281.07 613.837 1276.06 612.289C1258.49 606.853 1255.87 616.927 1244.05 616.634C1243.04 614.39 1243.1 613.322 1243.71 610.926C1245.69 603.245 1248.31 596.644 1255.34 592.421C1265.59 586.262 1286.21 585.065 1296.32 592.115C1298.99 593.98 1302.37 599.992 1305.17 600.665C1305.2 599.643 1305.17 598.58 1304.87 597.594C1303.96 594.636 1301.14 591.88 1298.85 589.927C1280.38 574.156 1261.16 589.847 1251.14 583.72C1250.62 580.955 1250.84 579.521 1252.03 576.931C1256.35 567.525 1261.95 563.45 1271.43 559.983Z"/>
	<path fill="#EC6313" d="M1499.13 697.402C1502.11 698.868 1504.61 700.277 1505.68 703.688C1506.79 707.207 1505.75 711.845 1504.83 715.295C1502.48 723.994 1498.78 732.386 1495.88 740.916Q1482.41 780.644 1467.73 819.943C1459.1 843.74 1450.29 877.456 1437.7 898.538C1420.31 927.654 1390.27 948.959 1357.5 957.12C1327.43 964.608 1292.16 959.527 1265.57 943.492C1253.8 936.398 1245.69 926.665 1235.45 917.977C1243.58 918.579 1250.14 925.205 1257.05 928.938C1281.85 942.345 1313.58 948.592 1341.52 944.268C1371.69 939.597 1400.62 921.045 1418.47 896.27C1424.01 888.575 1428.76 879.175 1432.53 870.479C1440.65 851.771 1446.54 831.93 1454.13 812.959L1483.89 738.308C1488.25 727.552 1493.43 717.019 1497.49 706.169C1498.57 703.27 1499.63 700.538 1499.13 697.402Z"/>
	<path fill="#41687E" d="M1206.54 959.615C1217.62 958.538 1227.66 959.177 1237.77 964.453C1249.01 970.318 1256.98 980.326 1260.63 992.424C1262.2 997.627 1263.49 1008.46 1260.83 1013.33C1246.05 1022.51 1167.18 1017.39 1146.19 1017L1128.25 1016.24C1130.74 1011.53 1127.69 1001.44 1126.36 996.353C1125.71 993.105 1119.93 987.068 1117.45 984.861C1128.84 981.495 1137.98 971.494 1150.09 969.119C1153.04 968.54 1155.01 968.771 1157.52 970.495C1162.97 978.52 1152.28 982.452 1152.92 990.475C1157.11 991.164 1162.67 984.255 1165.61 981.416C1178.08 969.346 1189.81 963.705 1206.54 959.615Z"/>
	<path fill="#41687E" d="M800.728 952.494C830.135 950.957 850.729 967.815 872.935 984.546C870.183 975.094 859.451 966.502 858.454 961.304C864.949 959.218 876.731 962.018 883.782 962.047C888.127 962.065 892.596 961.412 896.914 960.926C898.122 963.289 899.319 965.671 900.371 968.109C903.51 975.381 905.964 988.2 902.604 995.695C901.407 998.366 899.971 999.476 897.323 1000.59C851.901 1010.61 808.645 1010.97 762.422 1009.95C761.895 995.065 761.925 979.128 771.553 966.761C778.983 957.217 789.239 954.032 800.728 952.494Z"/>
	<path fill="#EBECE6" d="M1465.68 454.081C1479.57 452.307 1491.65 453.561 1503.26 462.12Q1504.19 462.803 1505.08 463.531Q1505.97 464.259 1506.82 465.031Q1507.68 465.802 1508.49 466.615Q1509.31 467.428 1510.08 468.28Q1510.86 469.132 1511.59 470.021Q1512.32 470.91 1513.01 471.835Q1513.69 472.759 1514.33 473.716Q1514.97 474.673 1515.56 475.661Q1516.16 476.648 1516.7 477.664Q1517.24 478.68 1517.73 479.721Q1518.22 480.762 1518.66 481.826Q1519.1 482.891 1519.48 483.975Q1519.87 485.06 1520.2 486.162Q1520.53 487.265 1520.81 488.382Q1521.08 489.499 1521.3 490.629Q1521.53 491.759 1521.69 492.898C1523.44 505.016 1520.32 518.008 1512.92 527.809C1505.54 537.586 1494.52 543.312 1482.5 544.915C1474.44 547.27 1462.88 545.153 1455.51 541.666Q1454.47 541.174 1453.46 540.631Q1452.44 540.088 1451.45 539.495Q1450.47 538.902 1449.51 538.26Q1448.56 537.619 1447.64 536.93Q1446.71 536.242 1445.83 535.508Q1444.94 534.775 1444.09 533.998Q1443.24 533.221 1442.43 532.403Q1441.63 531.584 1440.86 530.726Q1440.09 529.869 1439.37 528.974Q1438.64 528.079 1437.97 527.149Q1437.29 526.219 1436.66 525.257Q1436.03 524.294 1435.45 523.301Q1434.87 522.308 1434.34 521.288Q1433.8 520.267 1433.33 519.221Q1432.85 518.175 1432.42 517.107Q1431.99 516.038 1431.62 514.95Q1431.25 513.851 1430.93 512.736Q1430.61 511.62 1430.35 510.491Q1430.09 509.361 1429.88 508.22Q1429.67 507.079 1429.52 505.929Q1429.37 504.779 1429.27 503.623Q1429.18 502.467 1429.14 501.308Q1429.1 500.149 1429.12 498.99Q1429.14 497.83 1429.21 496.673Q1429.28 495.515 1429.42 494.363Q1429.55 493.21 1429.73 492.066Q1429.92 490.921 1430.16 489.787Q1430.4 488.652 1430.7 487.531Q1431 486.41 1431.35 485.305Q1431.7 484.199 1432.1 483.112Q1432.51 482.025 1432.96 480.959Q1433.42 479.893 1433.93 478.851C1440.63 465.248 1451.97 458.826 1465.68 454.081Z"/>
	<path d="M1478.92 473.063C1486.08 472.233 1492.2 472.19 1498.7 475.7Q1499.29 476.012 1499.86 476.352Q1500.43 476.693 1500.98 477.062Q1501.54 477.43 1502.07 477.826Q1502.61 478.221 1503.12 478.643Q1503.64 479.065 1504.13 479.511Q1504.62 479.958 1505.09 480.428Q1505.56 480.899 1506.01 481.392Q1506.46 481.885 1506.88 482.4Q1507.3 482.915 1507.7 483.45Q1508.09 483.985 1508.46 484.539Q1508.83 485.093 1509.17 485.665Q1509.51 486.236 1509.82 486.824Q1510.13 487.412 1510.41 488.014Q1510.7 488.617 1510.95 489.233Q1511.2 489.848 1511.42 490.476Q1511.64 491.103 1511.83 491.741C1513.81 498.406 1513.23 505.91 1509.78 511.999C1505.91 518.812 1499.78 522.256 1492.43 524.246C1488.39 525.196 1483.56 525.112 1479.56 523.985Q1478.94 523.809 1478.33 523.603Q1477.73 523.396 1477.13 523.161Q1476.53 522.926 1475.95 522.662Q1475.36 522.399 1474.79 522.107Q1474.22 521.815 1473.66 521.496Q1473.1 521.177 1472.56 520.832Q1472.02 520.486 1471.5 520.115Q1470.97 519.744 1470.47 519.347Q1469.96 518.951 1469.48 518.531Q1468.99 518.111 1468.53 517.668Q1468.06 517.225 1467.62 516.76Q1467.18 516.295 1466.76 515.809Q1466.34 515.324 1465.95 514.818Q1465.55 514.313 1465.18 513.789Q1464.81 513.265 1464.46 512.724Q1464.12 512.182 1463.8 511.625Q1463.49 511.054 1463.2 510.468Q1462.92 509.882 1462.66 509.282Q1462.41 508.682 1462.18 508.071Q1461.96 507.459 1461.77 506.837Q1461.57 506.215 1461.41 505.584Q1461.25 504.953 1461.12 504.314Q1460.99 503.676 1460.89 503.032Q1460.79 502.388 1460.73 501.74Q1460.66 501.091 1460.63 500.441Q1460.59 499.79 1460.59 499.139Q1460.59 498.487 1460.62 497.836Q1460.66 497.186 1460.72 496.537Q1460.78 495.889 1460.88 495.245Q1460.98 494.6 1461.11 493.962Q1461.24 493.323 1461.4 492.692Q1461.56 492.06 1461.75 491.438C1464.62 482.09 1470.7 477.436 1478.92 473.063Z"/>
	<path fill="#EBECE6" d="M1477.04 479.057C1479.09 478.467 1481.72 477.834 1483.84 478.375C1486.53 479.065 1487.41 480.451 1488.89 482.569C1489.18 484.292 1489.38 485.865 1488.73 487.538C1487.31 491.154 1484.5 492.733 1481.12 494.048Q1480.64 494.206 1480.14 494.318Q1479.65 494.429 1479.14 494.494Q1478.64 494.559 1478.13 494.576Q1477.62 494.594 1477.11 494.563Q1476.61 494.533 1476.11 494.455Q1475.6 494.377 1475.11 494.252Q1474.62 494.127 1474.14 493.957Q1473.66 493.786 1473.2 493.572C1472.6 492.555 1471.83 491.699 1471.81 490.498C1471.72 484.98 1473.32 482.9 1477.04 479.057Z"/>
	<path fill="#EBECE6" d="M1588.92 448.087C1601.39 446.729 1614.63 450.149 1624.74 457.565Q1625.71 458.277 1626.64 459.036Q1627.57 459.796 1628.47 460.6Q1629.36 461.404 1630.21 462.251Q1631.07 463.098 1631.88 463.986Q1632.69 464.874 1633.45 465.801Q1634.22 466.728 1634.94 467.691Q1635.66 468.654 1636.33 469.652Q1637 470.65 1637.62 471.679Q1638.24 472.708 1638.81 473.767Q1639.38 474.826 1639.89 475.911Q1640.41 476.997 1640.87 478.106Q1641.34 479.216 1641.74 480.346Q1642.15 481.477 1642.5 482.627Q1642.85 483.776 1643.15 484.942Q1643.44 486.107 1643.68 487.286Q1643.91 488.464 1644.09 489.653Q1644.28 490.867 1644.4 492.088Q1644.53 493.31 1644.6 494.536Q1644.66 495.763 1644.67 496.991Q1644.67 498.219 1644.61 499.446Q1644.56 500.672 1644.44 501.895Q1644.32 503.117 1644.14 504.332Q1643.97 505.547 1643.73 506.752Q1643.49 507.957 1643.19 509.148Q1642.89 510.34 1642.54 511.515Q1642.18 512.69 1641.76 513.846Q1641.35 515.002 1640.88 516.135Q1640.4 517.269 1639.88 518.378Q1639.35 519.487 1638.77 520.568Q1638.18 521.649 1637.55 522.7Q1636.91 523.751 1636.22 524.769Q1635.54 525.787 1634.8 526.77C1626.53 537.638 1614.78 543.538 1601.44 545.329C1591.04 546.376 1579.43 543.651 1570.56 538.179Q1569.53 537.537 1568.53 536.845Q1567.53 536.153 1566.56 535.413Q1565.6 534.673 1564.67 533.886Q1563.74 533.1 1562.85 532.269Q1561.96 531.438 1561.12 530.565Q1560.27 529.692 1559.47 528.778Q1558.66 527.865 1557.91 526.913Q1557.15 525.961 1556.44 524.973Q1555.73 523.986 1555.07 522.964Q1554.41 521.943 1553.8 520.891Q1553.19 519.839 1552.63 518.758Q1552.07 517.677 1551.57 516.57Q1551.07 515.463 1550.62 514.333Q1550.17 513.203 1549.78 512.052Q1549.38 510.902 1549.05 509.733Q1548.71 508.565 1548.43 507.381C1545.49 494.817 1547.4 481.17 1554.35 470.219C1562.53 457.309 1574.52 451.399 1588.92 448.087Z"/>
	<path d="M1600.57 470.067C1607.58 469.074 1614.18 469.26 1620.39 473.003Q1620.95 473.343 1621.49 473.711Q1622.03 474.078 1622.55 474.472Q1623.07 474.866 1623.57 475.285Q1624.07 475.704 1624.55 476.147Q1625.03 476.59 1625.49 477.057Q1625.95 477.523 1626.38 478.012Q1626.82 478.5 1627.23 479.01Q1627.63 479.519 1628.02 480.048Q1628.4 480.577 1628.76 481.124Q1629.11 481.671 1629.44 482.235Q1629.77 482.8 1630.07 483.379Q1630.38 483.959 1630.65 484.553Q1630.92 485.147 1631.16 485.754Q1631.4 486.36 1631.62 486.978Q1631.83 487.596 1632.01 488.224Q1632.19 488.851 1632.34 489.487C1634.07 496.55 1633.11 504.382 1629.14 510.543C1624.61 517.598 1618.4 520.594 1610.41 522.24C1606.09 523.008 1600.92 522.23 1596.84 520.701C1590.37 518.271 1585.44 513.732 1582.71 507.343C1579.85 500.63 1579.69 492.634 1582.53 485.889C1586.23 477.099 1592.17 473.506 1600.57 470.067Z"/>
	<path fill="#EBECE6" d="M1599.9 475.061C1601.53 474.897 1603.7 474.753 1605.25 475.268C1607.88 476.139 1608.68 477.451 1609.98 479.662C1610.22 481.987 1610.02 483.628 1608.75 485.65C1606.66 488.987 1603.97 489.743 1600.39 490.555C1597.65 490.561 1595.35 490.083 1593.27 488.229C1592.95 487.203 1592.3 485.93 1592.49 484.872C1593.4 479.999 1596.04 477.765 1599.9 475.061Z"/>
	<path fill="#41687E" d="M721.029 827.531C760.8 841.251 803.342 849.622 844.55 857.944C844.741 864.309 844.695 870.781 845.445 877.106C837.006 884.19 828.569 889.964 818.499 894.518C801.145 902.367 782.059 906.556 763.719 911.498C724.51 922.064 686.756 931.452 646.519 937.11C648.497 934.944 650.026 933.885 650.574 930.968C657.985 927.581 663.733 923.933 669.311 917.894C680.095 906.217 686.977 890.364 694.231 876.355C702.753 859.897 711.185 843.252 721.029 827.531Z"/>
	<path fill="#4EAAB9" d="M1239.38 638.901C1244.74 640.568 1246.85 647.12 1251.63 650.217C1258.66 654.772 1267.72 656.79 1275.43 660.127C1276.15 662.212 1275.99 663.749 1275.56 665.874C1268.39 701.316 1202.63 879.947 1180.56 894.546C1181.01 893.812 1181.39 893.156 1181.68 892.346C1184.47 884.563 1182.6 863.891 1179.16 856.695L1178.48 855.701C1175.15 856.361 1163.56 869.477 1159.38 872.415C1151.21 878.162 1141.93 882.339 1132.4 885.245C1132.95 884.844 1133.46 884.45 1133.97 884.002C1140.06 878.667 1144.91 866.627 1148.9 859.38C1182.69 797.998 1208.51 734.135 1230.64 667.779C1233.5 659.199 1238.88 647.881 1239.38 638.901Z"/>
	<path fill="#EBECE6" d="M105.517 732.925C107.628 684.913 120.289 641.722 134.504 596.173C148.077 552.678 163.236 510.198 182.294 468.772C194.517 442.205 209.457 416.956 221.518 390.283C228.918 373.918 229.726 352.934 238.3 338.069C250.654 316.653 347.312 272.096 374.129 261.443C387.247 256.232 400.467 252.043 414.102 248.471C407.097 254.173 399.923 261.115 391.95 265.339C344.039 273.585 284.421 326.602 256.871 365.675C226.748 408.397 211.372 455.904 192.266 503.926C181.728 530.412 170.201 556.505 160.518 583.326C148.372 616.965 138.719 651.429 129.494 685.961C124.221 705.703 117.794 726.544 115.539 746.874C114.186 759.064 115.685 771.271 117.798 783.287C121.5 804.337 127.29 824.945 132.027 845.772C134.192 855.288 135.275 865.028 137.441 874.519C138.892 880.874 143.087 887.641 142.654 894.171C136.874 889.678 131.338 884.442 128.689 877.463C125.795 869.838 126.193 859.632 125.024 851.477C123.653 841.922 121.514 832.247 119.149 822.889C112.921 798.242 102.314 775.096 95.0555 750.777C98.0925 744.5 101.724 738.766 105.517 732.925Z"/>
	<path fill="#AAD5DF" d="M1370.75 217.295L1372.21 217.573C1373.28 218.736 1373.41 218.934 1373.71 220.502C1377.74 241.923 1329.27 508.244 1319.53 522.762C1316.18 519.919 1309.24 518.103 1305.03 516.691C1304.19 523.602 1290.16 533.13 1291.85 542.848C1292.97 549.306 1302.2 550.643 1306.95 553.677C1307.15 553.802 1307.34 553.932 1307.53 554.059C1308.43 554.678 1309.25 555.349 1309.99 556.152C1312.07 558.381 1313.12 560.961 1312.91 564.02C1306.77 557.832 1295.84 555.732 1287.47 554.588C1278.31 553.412 1269.45 554.827 1260.38 556.045C1265.52 550.205 1267.3 537.982 1269.24 530.336C1291.76 441.931 1307.48 350.048 1312.62 258.993C1313.09 250.559 1316.05 230.574 1311.96 223.688C1325.02 228.741 1335.7 239.844 1351.1 235.952C1360.64 233.54 1366.08 225.32 1370.75 217.295Z"/>
	<path fill="#EBECE6" d="M937.986 120.437C976.086 118.545 1014.91 121.04 1052.98 123.169Q1121.36 126.918 1189.67 131.874Q1217.8 133.945 1245.89 136.444C1255.57 137.241 1266.3 137.168 1275.71 139.413C1260.5 147.493 1247.02 155.42 1240 172.273C1237.69 177.813 1236.23 184.5 1232.67 189.346C1232.53 189.531 1232.38 189.709 1232.24 189.89C1221.77 185.066 1173.81 181.415 1159.68 180.335Q1116.71 175.248 1073.59 171.668Q1030.47 168.088 987.256 166.018Q944.038 163.948 900.774 163.392Q857.509 162.835 814.252 163.793C814.795 154.622 815.689 144.494 822.236 137.419C837.498 120.928 912.8 121.425 937.986 120.437Z"/>
	<path fill="#B7B8B9" d="M1350.19 190.884C1341.77 165.085 1334.93 139.13 1336.74 111.733C1337.82 95.4864 1344.23 65.4166 1357.02 54.2613C1361.32 56.0852 1372.76 81.0316 1375.76 86.435Q1437.72 199.874 1497.48 314.486L1529.64 375.294C1533.37 382.357 1539.53 391.259 1541.85 398.801C1542.14 399.758 1542.08 400.404 1542.01 401.387C1541.57 406.332 1514.55 454.608 1511.18 457.625C1505.31 450.181 1492.09 445.993 1483.2 444.873C1474.62 443.793 1466.27 444.724 1457.89 446.616C1456.69 440.656 1416.12 347.888 1414.16 345.589C1414.48 333.237 1383.06 282.046 1382.19 262.816C1383.13 261.524 1383.6 260.454 1383.93 258.899C1386.44 247.193 1391.73 209.911 1384.88 200.037C1380.63 193.906 1357.65 192.358 1350.19 190.884Z"/>
	<path fill="#EBECE6" d="M1382.19 262.816C1385.43 263.971 1386.03 264.636 1387.5 267.749C1394.96 283.601 1413.12 327.248 1416.68 343.198C1415.91 344.881 1415.86 344.804 1414.16 345.589C1414.48 333.237 1383.06 282.046 1382.19 262.816Z"/>
	<path fill="#EBECE6" d="M1350.19 190.884C1341.77 165.085 1334.93 139.13 1336.74 111.733C1337.82 95.4864 1344.23 65.4166 1357.02 54.2613C1357.18 54.9805 1357.82 56.693 1357.73 57.3426C1357.16 61.4943 1353.27 68.1073 1351.64 72.2133C1345.28 88.235 1341.84 103.789 1341.79 121.038C1341.76 135.868 1343.71 150.152 1346.69 164.658C1348.03 171.177 1355.33 184.603 1353.26 190.384L1350.19 190.884Z"/>
	<path fill="#B7B8B9" d="M118.588 880.313C132.252 903.743 156.464 922.861 182.823 929.851C199.32 934.226 216.526 934.97 233.128 939.369C274.326 950.284 312.305 966.557 355.351 970.447C425.416 976.777 493.16 958.536 562.575 954.251C576.334 953.401 589.757 956.254 603.425 957.352C618.347 958.55 633.433 957.04 648.194 954.846C692.697 948.228 731.023 930.909 773.587 918.579C791.522 913.384 811.241 913.776 827.692 904.013C834.142 900.185 840.219 895.247 846.048 890.537C847.111 909.364 850.021 927.753 853.014 946.344C851.089 948.389 849.236 949.726 846.858 951.145C826.756 941.64 805.608 934.468 783.502 942.577Q782.293 943.023 781.108 943.529Q779.924 944.035 778.766 944.6Q777.608 945.165 776.48 945.788Q775.352 946.41 774.257 947.088Q773.161 947.767 772.101 948.499Q771.041 949.231 770.02 950.016Q768.998 950.801 768.017 951.636Q767.036 952.471 766.098 953.354Q765.16 954.237 764.268 955.166Q763.376 956.095 762.531 957.068Q761.687 958.041 760.892 959.054Q760.098 960.068 759.355 961.121Q758.613 962.173 757.924 963.262Q757.235 964.35 756.602 965.472Q755.969 966.594 755.392 967.745Q754.816 968.898 754.299 970.077C752.305 974.504 750.917 979.086 749.823 983.809C727.709 988.179 703.175 988.744 680.636 990.57C621.748 995.34 562.782 999.05 503.668 998.178C463.633 997.588 423.886 993.581 383.976 990.956C283.989 984.38 184.323 978.257 86.1473 956.603C66.6874 952.311 46.0756 948.98 27.7265 940.994C22.7691 938.836 15.0055 935.257 13.1572 929.699C12.3923 927.399 12.8845 925.228 14.0035 923.143C25.4709 901.774 95.331 887.496 118.588 880.313Z"/>
	<path fill="#778D93" d="M567.223 165.885C583.754 172.056 598.247 182.408 610.717 194.79C625.421 209.39 637.3 226.406 649.581 243.004C665.803 264.928 682.126 286.965 700.179 307.438C723.019 333.338 755.013 355.141 769.549 386.977C774.893 398.682 778.184 411.146 781.327 423.582C783.743 433.144 787.332 444.124 787.69 453.934C788.241 469.009 773.054 515.907 768.994 533.973C759.833 534.366 751.321 535.53 742.442 537.846Q729.72 500.366 715.6 463.39Q701.48 426.414 685.981 389.994Q670.483 353.574 653.628 317.761Q636.773 281.948 618.585 246.792C608.061 226.246 598.49 203.151 584.577 184.705C590.264 204.361 600.854 222.789 609.839 241.128L648.886 321.675Q674.065 374.687 696.093 429.082Q718.12 483.478 736.92 539.07C716.381 546.01 696.884 555.156 680.865 570.095C677.195 547.732 671.056 526.017 665.799 504.011C660.99 483.877 657.124 463.563 651.123 443.726C644.901 423.161 637.156 403.062 630.693 382.566C621.394 353.073 613.921 322.591 601.723 294.117C590.63 268.221 551.69 206.213 554.969 181.126C555.921 173.84 561.905 170.094 567.223 165.885Z"/>
	<path fill="#4EAAB9" d="M1742.06 58.8867C1749.48 64.7533 1753.68 90.2412 1754.78 99.5289C1756.97 118.021 1755.95 137.958 1751.45 156.046Q1747.62 171.392 1742.4 186.32C1718.6 254.512 1691.92 321.919 1666.5 389.534C1662.47 400.255 1644.92 452.274 1640.14 458.133C1639.61 458.781 1639.03 459.363 1638.41 459.918C1636.52 453.833 1627.39 448.116 1621.99 445.293C1608.3 438.139 1592.35 436.418 1577.55 441.158C1563.18 445.765 1550.93 456.727 1544.23 470.184Q1543.59 471.49 1543.02 472.825Q1542.45 474.16 1541.94 475.522Q1541.43 476.883 1540.99 478.268Q1540.55 479.653 1540.18 481.057Q1539.8 482.462 1539.5 483.883Q1539.2 485.304 1538.96 486.738Q1538.73 488.172 1538.57 489.616Q1538.4 491.06 1538.31 492.51Q1538.22 493.96 1538.19 495.413Q1538.17 496.866 1538.22 498.318Q1538.27 499.77 1538.39 501.219Q1538.51 502.667 1538.7 504.107Q1538.89 505.548 1539.15 506.977Q1539.41 508.407 1539.74 509.822Q1540.07 511.238 1540.47 512.635Q1540.86 514.033 1541.33 515.409C1546.18 529.742 1556.61 542.391 1570.31 549.024C1581.2 554.3 1594.82 555.807 1606.77 553.684C1607.28 559.176 1560.2 642.022 1552.71 650.916C1549.26 654.997 1545.3 656.473 1540.03 656.828C1530.93 657.444 1522.72 653.609 1513.87 652.558C1512.08 658.476 1501.28 683.034 1497.65 687.321C1495.11 683.955 1438.44 652.518 1433.1 650.518C1435.06 649.978 1436.34 649.475 1437.49 647.71C1443.78 638.051 1486.26 561.163 1486.75 556.792C1486.83 556.068 1486.21 554.389 1486.04 553.606Q1487.79 553.245 1489.51 552.781Q1491.23 552.317 1492.92 551.751Q1494.61 551.185 1496.26 550.519Q1497.92 549.854 1499.53 549.091Q1501.14 548.328 1502.7 547.47Q1504.27 546.613 1505.78 545.663Q1507.28 544.714 1508.73 543.677Q1510.18 542.64 1511.57 541.518C1522.98 532.211 1529.55 518.692 1530.86 504.105C1531.89 492.545 1529.81 478.774 1522.14 469.606C1523.22 469.094 1524.18 468.431 1524.92 467.482C1532.2 458.213 1539.25 440.911 1544.96 430.023L1589.57 345.811L1697.14 145.69C1711.83 118.284 1728.18 91.1835 1741.82 63.2893C1742.6 61.6913 1742.23 60.6362 1742.06 58.8867Z"/>
	<path d="M1511.94 559.983C1513.47 559.811 1515.24 559.535 1516.76 559.722C1524.75 560.703 1524.42 569.281 1528.58 574.183C1530.34 576.264 1532.92 577.21 1535.58 577.381C1546.66 578.096 1546.03 566.249 1552.62 561.026C1554.41 559.607 1556.53 559.139 1558.77 559.333C1562.63 559.667 1566.37 561.292 1568.82 564.349C1571.09 567.169 1571.97 570.993 1571.45 574.54C1570.74 579.394 1568.54 583.201 1564.64 586.139C1563.47 589.312 1560.14 591.535 1557.48 593.413C1549.76 598.874 1538.9 599.813 1529.82 598.177C1520.65 596.524 1511 591.293 1505.78 583.393C1503.26 579.587 1502.07 575.345 1503.08 570.825C1504.32 565.304 1507.41 562.92 1511.94 559.983Z"/>
	<path fill="#FA8C35" d="M1421.99 654.743C1424.24 655.217 1494.62 693.176 1498.53 696.032L1499.13 697.402C1499.63 700.538 1498.57 703.27 1497.49 706.169C1493.43 717.019 1488.25 727.552 1483.89 738.308L1454.13 812.959C1446.54 831.93 1440.65 851.771 1432.53 870.479C1428.76 879.175 1424.01 888.575 1418.47 896.27C1400.62 921.045 1371.69 939.597 1341.52 944.268C1313.58 948.592 1281.85 942.345 1257.05 928.938C1250.14 925.205 1243.58 918.579 1235.45 917.977C1233.1 911.986 1225.3 906.268 1221.97 900.243C1217.53 892.199 1215.94 880.613 1210.21 873.594C1217.86 865.854 1264.73 753.602 1264.98 742.942C1272.83 742.163 1287.65 731.24 1296.78 728.454C1328.65 718.729 1361.8 727.824 1388.87 703.247Q1395.06 697.544 1400.02 690.752C1401.29 689.041 1421.54 658.046 1421.88 657.084C1422.07 656.544 1421.96 655.357 1421.99 654.743ZM1316.76 748.809C1290.28 754.713 1268.41 765.693 1253.5 789.215Q1252.91 790.152 1252.34 791.104Q1251.77 792.056 1251.23 793.022Q1250.68 793.987 1250.16 794.966Q1249.64 795.945 1249.15 796.937Q1248.65 797.928 1248.18 798.932Q1247.71 799.935 1247.26 800.95Q1246.82 801.965 1246.39 802.99Q1245.97 804.016 1245.58 805.051Q1245.18 806.087 1244.81 807.132Q1244.44 808.177 1244.1 809.231Q1243.76 810.285 1243.44 811.348Q1243.12 812.41 1242.83 813.479Q1242.54 814.549 1242.28 815.626Q1242.01 816.702 1241.78 817.785Q1241.54 818.868 1241.33 819.956Q1241.12 821.045 1240.94 822.138Q1240.75 823.231 1240.6 824.328Q1240.44 825.426 1240.31 826.527Q1240.18 827.628 1240.08 828.732Q1239.98 829.836 1239.91 830.942Q1239.83 832.048 1239.79 833.155Q1239.74 834.263 1239.72 835.371Q1239.7 836.479 1239.71 837.588Q1239.72 838.696 1239.75 839.804Q1239.79 840.912 1239.85 842.018Q1239.92 843.125 1240.01 844.23Q1240.1 845.335 1240.22 846.437Q1240.34 847.539 1240.48 848.638Q1240.63 849.737 1240.8 850.831Q1240.97 851.926 1241.17 853.017Q1241.37 854.107 1241.6 855.192Q1241.83 856.277 1242.08 857.356Q1242.33 858.43 1242.61 859.498Q1242.88 860.566 1243.18 861.627Q1243.49 862.687 1243.81 863.74Q1244.14 864.793 1244.5 865.838Q1244.85 866.882 1245.23 867.918Q1245.61 868.953 1246.01 869.979Q1246.42 871.005 1246.85 872.021Q1247.28 873.037 1247.73 874.042Q1248.19 875.046 1248.67 876.04Q1249.14 877.033 1249.65 878.015Q1250.15 878.996 1250.68 879.964Q1251.21 880.933 1251.76 881.888Q1252.31 882.844 1252.88 883.785Q1253.46 884.727 1254.06 885.654Q1254.65 886.581 1255.27 887.494Q1255.89 888.406 1256.53 889.303Q1257.18 890.199 1257.84 891.08Q1258.51 891.961 1259.19 892.825Q1259.88 893.689 1260.58 894.536Q1261.29 895.383 1262.02 896.212Q1262.74 897.042 1263.49 897.853Q1264.24 898.664 1265.01 899.457Q1265.77 900.25 1266.56 901.023Q1267.34 901.797 1268.15 902.551Q1268.95 903.305 1269.78 904.039Q1270.6 904.773 1271.44 905.487Q1272.28 906.201 1273.14 906.893Q1274 907.586 1274.88 908.258Q1275.75 908.929 1276.64 909.579Q1277.53 910.229 1278.44 910.856Q1279.35 911.484 1280.27 912.089Q1281.19 912.695 1282.13 913.277C1296.85 922.445 1320.65 928.278 1337.7 924.556C1338 924.491 1338.29 924.378 1338.58 924.288Q1339.6 924.217 1340.62 924.121Q1341.64 924.025 1342.66 923.904Q1343.67 923.783 1344.69 923.637Q1345.7 923.491 1346.71 923.321Q1347.72 923.151 1348.73 922.955Q1349.73 922.76 1350.73 922.541Q1351.73 922.321 1352.73 922.077Q1353.72 921.833 1354.71 921.565Q1355.7 921.297 1356.68 921.004Q1357.66 920.712 1358.64 920.396Q1359.61 920.08 1360.58 919.74Q1361.54 919.4 1362.5 919.037Q1363.46 918.673 1364.4 918.286Q1365.35 917.9 1366.29 917.49Q1367.23 917.08 1368.16 916.648Q1369.09 916.215 1370 915.76Q1370.92 915.305 1371.83 914.827Q1372.73 914.35 1373.63 913.851Q1374.52 913.351 1375.4 912.83Q1376.28 912.309 1377.15 911.767Q1378.02 911.224 1378.88 910.661Q1379.73 910.097 1380.57 909.513Q1381.41 908.928 1382.24 908.324Q1383.07 907.719 1383.88 907.095Q1384.69 906.47 1385.48 905.826Q1386.28 905.181 1387.06 904.518Q1387.84 903.854 1388.6 903.172Q1389.37 902.489 1390.11 901.788Q1390.86 901.088 1391.59 900.369Q1392.32 899.65 1393.03 898.913Q1393.74 898.177 1394.43 897.423Q1395.13 896.669 1395.8 895.899C1411.43 878.145 1420.41 853.428 1418.8 829.745C1417.23 806.727 1407.1 784.989 1389.63 769.773C1369.75 752.46 1346.06 746.696 1320.19 748.548L1316.76 748.809Z"/>
	<path d="M1316.76 748.809L1320.19 748.548C1346.06 746.696 1369.75 752.46 1389.63 769.773C1407.1 784.989 1417.23 806.727 1418.8 829.745C1420.41 853.428 1411.43 878.145 1395.8 895.899Q1395.13 896.669 1394.43 897.423Q1393.74 898.177 1393.03 898.913Q1392.32 899.65 1391.59 900.369Q1390.86 901.088 1390.11 901.788Q1389.37 902.489 1388.6 903.172Q1387.84 903.854 1387.06 904.518Q1386.28 905.181 1385.48 905.825Q1384.69 906.47 1383.88 907.094Q1383.07 907.719 1382.24 908.324Q1381.41 908.928 1380.57 909.513Q1379.73 910.097 1378.88 910.661Q1378.02 911.224 1377.15 911.767Q1376.28 912.309 1375.4 912.83Q1374.52 913.351 1373.63 913.851Q1372.73 914.35 1371.83 914.827Q1370.92 915.305 1370 915.76Q1369.09 916.215 1368.16 916.648Q1367.23 917.08 1366.29 917.49Q1365.35 917.9 1364.4 918.286Q1363.46 918.673 1362.5 919.037Q1361.54 919.4 1360.58 919.74Q1359.61 920.08 1358.64 920.396Q1357.66 920.712 1356.68 921.004Q1355.7 921.297 1354.71 921.565Q1353.72 921.833 1352.73 922.077Q1351.73 922.321 1350.73 922.541Q1349.73 922.76 1348.73 922.955Q1347.72 923.151 1346.71 923.321Q1345.7 923.491 1344.69 923.637Q1343.67 923.783 1342.66 923.904Q1341.64 924.025 1340.62 924.121Q1339.6 924.217 1338.58 924.288C1338.29 924.378 1338 924.491 1337.7 924.556C1320.65 928.278 1296.85 922.445 1282.13 913.277Q1281.19 912.695 1280.27 912.089Q1279.35 911.484 1278.44 910.856Q1277.53 910.229 1276.64 909.579Q1275.75 908.929 1274.88 908.258Q1274 907.586 1273.14 906.893Q1272.28 906.201 1271.44 905.487Q1270.6 904.773 1269.78 904.039Q1268.95 903.305 1268.15 902.551Q1267.34 901.797 1266.56 901.023Q1265.77 900.25 1265.01 899.457Q1264.24 898.664 1263.49 897.853Q1262.74 897.042 1262.02 896.212Q1261.29 895.383 1260.58 894.536Q1259.88 893.689 1259.19 892.825Q1258.51 891.961 1257.84 891.08Q1257.18 890.199 1256.53 889.303Q1255.89 888.406 1255.27 887.494Q1254.65 886.581 1254.06 885.654Q1253.46 884.727 1252.88 883.785Q1252.31 882.844 1251.76 881.888Q1251.21 880.933 1250.68 879.964Q1250.15 878.996 1249.65 878.015Q1249.14 877.033 1248.67 876.04Q1248.19 875.046 1247.73 874.042Q1247.28 873.037 1246.85 872.021Q1246.42 871.005 1246.01 869.979Q1245.61 868.953 1245.23 867.918Q1244.85 866.882 1244.5 865.838Q1244.14 864.793 1243.81 863.74Q1243.49 862.687 1243.18 861.627Q1242.88 860.566 1242.61 859.498Q1242.33 858.43 1242.08 857.356Q1241.83 856.277 1241.6 855.192Q1241.37 854.107 1241.17 853.017Q1240.97 851.926 1240.8 850.831Q1240.63 849.737 1240.48 848.638Q1240.34 847.539 1240.22 846.437Q1240.1 845.334 1240.01 844.23Q1239.92 843.125 1239.85 842.018Q1239.79 840.912 1239.75 839.804Q1239.72 838.696 1239.71 837.587Q1239.7 836.479 1239.72 835.371Q1239.74 834.262 1239.79 833.155Q1239.83 832.047 1239.91 830.942Q1239.98 829.835 1240.08 828.732Q1240.18 827.628 1240.31 826.527Q1240.44 825.426 1240.6 824.328Q1240.75 823.231 1240.94 822.138Q1241.12 821.045 1241.33 819.956Q1241.54 818.868 1241.78 817.785Q1242.01 816.702 1242.28 815.626Q1242.54 814.549 1242.83 813.479Q1243.12 812.41 1243.44 811.347Q1243.76 810.285 1244.1 809.231Q1244.44 808.177 1244.81 807.132Q1245.18 806.087 1245.58 805.051Q1245.97 804.016 1246.39 802.99Q1246.82 801.965 1247.26 800.95Q1247.71 799.935 1248.18 798.932Q1248.65 797.928 1249.15 796.937Q1249.64 795.945 1250.16 794.966Q1250.68 793.987 1251.23 793.022Q1251.77 792.056 1252.34 791.104Q1252.91 790.152 1253.5 789.215C1268.41 765.693 1290.28 754.713 1316.76 748.809ZM1327.77 756.804C1303.37 759.527 1281.96 766.709 1266.1 786.444Q1265.48 787.233 1264.87 788.037Q1264.27 788.841 1263.69 789.66Q1263.1 790.478 1262.54 791.311Q1261.98 792.143 1261.44 792.989Q1260.89 793.835 1260.37 794.694Q1259.85 795.554 1259.35 796.425Q1258.85 797.297 1258.37 798.18Q1257.89 799.064 1257.43 799.958Q1256.98 800.853 1256.54 801.759Q1256.1 802.665 1255.69 803.581Q1255.28 804.498 1254.89 805.424Q1254.5 806.35 1254.13 807.285Q1253.76 808.22 1253.42 809.164Q1253.07 810.108 1252.75 811.06Q1252.43 812.012 1252.13 812.972Q1251.83 813.932 1251.56 814.898Q1251.28 815.865 1251.03 816.838Q1250.78 817.812 1250.55 818.791Q1250.33 819.77 1250.12 820.754Q1249.92 821.738 1249.74 822.727Q1249.56 823.716 1249.41 824.709Q1249.25 825.702 1249.12 826.698Q1248.99 827.695 1248.88 828.694Q1248.78 829.693 1248.7 830.695Q1248.61 831.697 1248.56 832.7Q1248.5 833.703 1248.47 834.708Q1248.44 835.712 1248.43 836.717Q1248.42 837.722 1248.44 838.727Q1248.45 839.732 1248.49 840.736Q1248.53 841.74 1248.6 842.743Q1248.67 843.746 1248.76 844.747Q1248.85 845.748 1248.96 846.746Q1249.07 847.718 1249.2 848.686Q1249.34 849.655 1249.49 850.62Q1249.65 851.585 1249.83 852.546Q1250.02 853.506 1250.22 854.463Q1250.43 855.419 1250.65 856.369Q1250.88 857.32 1251.13 858.265Q1251.39 859.209 1251.66 860.148Q1251.94 861.086 1252.24 862.017Q1252.53 862.948 1252.86 863.872Q1253.18 864.796 1253.52 865.711Q1253.86 866.626 1254.23 867.533Q1254.6 868.439 1254.99 869.337Q1255.37 870.234 1255.79 871.121Q1256.2 872.009 1256.63 872.886Q1257.06 873.763 1257.51 874.629Q1257.97 875.495 1258.44 876.35Q1258.92 877.204 1259.42 878.047Q1259.91 878.89 1260.43 879.72Q1260.95 880.55 1261.48 881.367Q1262.02 882.184 1262.58 882.988Q1263.13 883.792 1263.71 884.581Q1264.29 885.371 1264.88 886.146Q1265.48 886.921 1266.1 887.682Q1266.71 888.442 1267.34 889.187Q1267.98 889.932 1268.63 890.661Q1269.28 891.39 1269.95 892.103Q1270.62 892.815 1271.31 893.511Q1272 894.207 1272.7 894.886Q1273.4 895.565 1274.12 896.226Q1274.84 896.887 1275.58 897.531Q1276.32 898.174 1277.07 898.799Q1277.82 899.424 1278.59 900.03C1291.91 910.455 1310.97 918.231 1328.1 917.202C1350.44 916.585 1372.19 908.311 1387.69 891.862Q1388.38 891.125 1389.06 890.372Q1389.73 889.619 1390.39 888.85Q1391.05 888.08 1391.69 887.295Q1392.33 886.51 1392.94 885.709Q1393.56 884.909 1394.16 884.094Q1394.76 883.279 1395.34 882.449Q1395.92 881.619 1396.48 880.776Q1397.04 879.933 1397.58 879.076Q1398.11 878.219 1398.63 877.35Q1399.15 876.48 1399.64 875.598Q1400.14 874.716 1400.61 873.823Q1401.09 872.929 1401.54 872.024Q1401.99 871.119 1402.42 870.204Q1402.85 869.288 1403.26 868.362Q1403.67 867.436 1404.06 866.501Q1404.44 865.565 1404.8 864.621Q1405.17 863.676 1405.5 862.723Q1405.84 861.77 1406.16 860.809Q1406.48 859.848 1406.77 858.88Q1407.06 857.911 1407.33 856.936Q1407.6 855.961 1407.84 854.979Q1408.09 853.998 1408.31 853.01Q1408.53 852.023 1408.73 851.031Q1408.93 850.039 1409.1 849.042Q1409.27 848.045 1409.42 847.044Q1409.57 846.044 1409.69 845.04Q1409.82 844.036 1409.92 843.029Q1410.02 842.022 1410.09 841.014Q1410.17 840.005 1410.22 838.995Q1410.27 837.984 1410.29 836.973Q1410.32 835.962 1410.32 834.95Q1410.32 833.938 1410.3 832.927C1409.62 812.379 1401.24 792.288 1386.11 778.201C1371.02 764.154 1349.43 755.767 1328.75 756.747L1327.77 756.804Z"/>
	<path fill="#FA8C35" d="M1651.24 930.021C1646.12 921.38 1636.51 914.098 1630.95 902.329C1625.84 891.515 1622.64 879.468 1618.91 868.121L1602.15 818.106L1581.59 757.646C1576.55 743.161 1569.08 727.156 1567.39 711.927C1566.96 708.035 1567.31 705.803 1569.94 702.743C1572.41 699.88 1575.64 697.476 1578.81 695.45C1590.22 688.153 1602.91 682.347 1614.72 675.653C1625.57 669.499 1636.21 662.114 1647.48 656.784C1650.71 655.255 1654.63 653.469 1658.26 653.301C1666.73 652.908 1678.29 680.472 1684.2 687.63Q1686.74 690.659 1689.56 693.436Q1692.38 696.213 1695.45 698.712Q1698.51 701.211 1701.8 703.411Q1705.09 705.611 1708.57 707.491C1725.01 716.446 1743.36 716.433 1761.47 718.793C1784.76 721.828 1809.85 734.825 1827.03 750.621C1831.76 754.974 1842.7 764.992 1842.97 771.431C1858.55 808.009 1863.63 844.429 1848.42 882.247Q1847.87 883.626 1847.3 884.992Q1846.72 886.357 1846.1 887.708Q1845.49 889.059 1844.84 890.394Q1844.2 891.729 1843.52 893.047Q1842.84 894.365 1842.12 895.666Q1841.41 896.967 1840.67 898.25Q1839.92 899.533 1839.14 900.797Q1838.37 902.06 1837.56 903.305Q1836.75 904.549 1835.91 905.772Q1835.07 906.996 1834.21 908.198Q1833.34 909.4 1832.44 910.581Q1831.54 911.761 1830.61 912.918Q1829.68 914.076 1828.73 915.209Q1827.77 916.343 1826.79 917.453Q1825.8 918.563 1824.79 919.648Q1823.78 920.733 1822.74 921.792Q1821.7 922.851 1820.64 923.884Q1819.57 924.917 1818.48 925.923Q1817.39 926.93 1816.27 927.908Q1815.16 928.887 1814.02 929.838Q1812.88 930.788 1811.72 931.71Q1810.56 932.632 1809.37 933.524Q1808.19 934.417 1806.98 935.28Q1805.77 936.143 1804.54 936.975Q1803.32 937.807 1802.07 938.609Q1800.82 939.41 1799.55 940.181Q1798.28 940.951 1797 941.689Q1795.71 942.427 1794.4 943.133Q1793.1 943.839 1791.78 944.512Q1790.45 945.186 1789.12 945.826Q1787.78 946.466 1786.42 947.072Q1785.07 947.678 1783.7 948.251C1754.15 960.84 1719.51 963.257 1689.44 951.008C1679.47 946.947 1657.53 930.6 1651.24 930.021ZM1735.13 759.801C1708.08 764.881 1685.67 774.836 1669.7 798.212Q1669.08 799.12 1668.48 800.044Q1667.89 800.967 1667.32 801.905Q1666.74 802.843 1666.19 803.794Q1665.64 804.746 1665.12 805.711Q1664.59 806.676 1664.09 807.654Q1663.59 808.632 1663.11 809.622Q1662.63 810.612 1662.18 811.613Q1661.73 812.615 1661.3 813.627Q1660.88 814.64 1660.47 815.663Q1660.07 816.685 1659.69 817.718Q1659.32 818.75 1658.97 819.792Q1658.62 820.833 1658.29 821.883Q1657.97 822.933 1657.67 823.99Q1657.37 825.048 1657.1 826.112Q1656.82 827.177 1656.58 828.248Q1656.33 829.319 1656.11 830.396Q1655.89 831.473 1655.7 832.555Q1655.51 833.637 1655.34 834.723Q1655.18 835.809 1655.04 836.9Q1654.9 837.99 1654.79 839.083Q1654.68 840.176 1654.59 841.272Q1654.51 842.367 1654.45 843.465Q1654.4 844.562 1654.37 845.661Q1654.34 846.759 1654.34 847.858Q1654.33 848.957 1654.36 850.056Q1654.38 851.154 1654.44 852.252Q1654.49 853.35 1654.57 854.446Q1654.65 855.542 1654.75 856.635Q1654.86 857.729 1654.99 858.82Q1655.13 859.911 1655.29 860.998Q1655.45 862.085 1655.64 863.167Q1655.83 864.25 1656.04 865.328Q1656.25 866.432 1656.5 867.53Q1656.74 868.628 1657.01 869.72Q1657.27 870.812 1657.57 871.897Q1657.86 872.983 1658.19 874.06Q1658.51 875.137 1658.86 876.207Q1659.2 877.276 1659.58 878.336Q1659.95 879.396 1660.35 880.447Q1660.75 881.498 1661.18 882.539Q1661.61 883.579 1662.06 884.609Q1662.51 885.639 1662.99 886.657Q1663.46 887.675 1663.97 888.682Q1664.47 889.688 1665 890.682Q1665.52 891.675 1666.07 892.656Q1666.62 893.636 1667.2 894.603Q1667.77 895.569 1668.37 896.521Q1668.97 897.473 1669.59 898.41Q1670.21 899.348 1670.86 900.269Q1671.5 901.191 1672.17 902.096Q1672.84 903.001 1673.53 903.89Q1674.22 904.779 1674.93 905.65Q1675.64 906.521 1676.37 907.375Q1677.1 908.229 1677.86 909.064Q1678.61 909.9 1679.38 910.716Q1680.16 911.533 1680.95 912.33Q1681.74 913.127 1682.55 913.905Q1683.37 914.683 1684.2 915.44Q1685.03 916.197 1685.88 916.934Q1686.73 917.671 1687.6 918.386Q1688.47 919.102 1689.35 919.795Q1690.24 920.489 1691.14 921.161Q1692.04 921.833 1692.96 922.483Q1693.88 923.132 1694.81 923.759C1710.4 934.138 1733.15 940.494 1751.89 938.42C1776.87 935.502 1799.6 924.984 1815.4 905.02Q1816.08 904.157 1816.74 903.278Q1817.39 902.399 1818.03 901.504Q1818.67 900.609 1819.28 899.698Q1819.9 898.788 1820.49 897.863Q1821.08 896.938 1821.65 895.999Q1822.22 895.06 1822.76 894.107Q1823.31 893.154 1823.83 892.189Q1824.35 891.223 1824.85 890.245Q1825.35 889.266 1825.83 888.276Q1826.3 887.286 1826.75 886.285Q1827.2 885.283 1827.63 884.271Q1828.05 883.259 1828.45 882.237Q1828.85 881.215 1829.23 880.183Q1829.61 879.151 1829.96 878.111Q1830.31 877.07 1830.63 876.022Q1830.96 874.973 1831.26 873.916Q1831.56 872.86 1831.83 871.797Q1832.1 870.733 1832.35 869.664Q1832.6 868.594 1832.82 867.518Q1833.04 866.443 1833.23 865.362Q1833.43 864.282 1833.6 863.197Q1833.77 862.112 1833.91 861.023Q1834.05 859.935 1834.16 858.843Q1834.28 857.751 1834.37 856.656Q1834.46 855.562 1834.52 854.466Q1834.58 853.37 1834.61 852.272Q1834.65 851.175 1834.66 850.077Q1834.67 848.979 1834.65 847.881Q1834.63 846.784 1834.58 845.687Q1834.54 844.59 1834.47 843.494Q1834.39 842.399 1834.29 841.305Q1834.2 840.212 1834.07 839.121Q1833.93 838.002 1833.77 836.887Q1833.6 835.772 1833.41 834.661Q1833.22 833.55 1833 832.445Q1832.78 831.339 1832.54 830.239Q1832.29 829.139 1832.02 828.045Q1831.75 826.952 1831.45 825.865Q1831.15 824.778 1830.82 823.7Q1830.49 822.621 1830.14 821.55Q1829.79 820.48 1829.41 819.418Q1829.03 818.357 1828.62 817.305Q1828.22 816.253 1827.79 815.211Q1827.36 814.17 1826.9 813.139Q1826.44 812.108 1825.96 811.089Q1825.48 810.07 1824.97 809.063Q1824.47 808.056 1823.94 807.062Q1823.4 806.067 1822.85 805.086Q1822.29 804.105 1821.71 803.138Q1821.13 802.171 1820.53 801.219Q1819.93 800.267 1819.3 799.329Q1818.68 798.392 1818.03 797.47Q1817.38 796.549 1816.71 795.643Q1816.03 794.738 1815.34 793.849Q1814.65 792.961 1813.93 792.089Q1813.22 791.218 1812.48 790.365Q1811.74 789.511 1810.98 788.676Q1810.23 787.841 1809.45 787.025Q1808.67 786.208 1807.87 785.412Q1807.08 784.615 1806.26 783.838Q1805.44 783.061 1804.61 782.304Q1803.77 781.547 1802.92 780.811Q1802.06 780.075 1801.19 779.361Q1800.32 778.646 1799.43 777.953C1780.52 763.101 1758.78 757.795 1735.13 759.801Z"/>
	<path d="M1735.13 759.801C1758.78 757.795 1780.52 763.101 1799.43 777.953Q1800.32 778.646 1801.19 779.361Q1802.06 780.075 1802.92 780.811Q1803.77 781.547 1804.61 782.304Q1805.44 783.061 1806.26 783.838Q1807.08 784.615 1807.87 785.412Q1808.67 786.208 1809.45 787.025Q1810.23 787.841 1810.98 788.676Q1811.74 789.511 1812.48 790.365Q1813.22 791.218 1813.93 792.089Q1814.65 792.961 1815.34 793.849Q1816.03 794.738 1816.71 795.643Q1817.38 796.549 1818.03 797.47Q1818.68 798.392 1819.3 799.329Q1819.93 800.266 1820.53 801.219Q1821.13 802.171 1821.71 803.138Q1822.29 804.105 1822.85 805.086Q1823.4 806.067 1823.94 807.061Q1824.47 808.056 1824.97 809.063Q1825.48 810.07 1825.96 811.089Q1826.44 812.108 1826.9 813.139Q1827.36 814.17 1827.79 815.211Q1828.22 816.253 1828.62 817.305Q1829.03 818.357 1829.41 819.418Q1829.79 820.48 1830.14 821.55Q1830.49 822.621 1830.82 823.7Q1831.15 824.778 1831.45 825.865Q1831.75 826.952 1832.02 828.045Q1832.29 829.139 1832.54 830.239Q1832.78 831.339 1833 832.445Q1833.22 833.55 1833.41 834.661Q1833.6 835.772 1833.77 836.887Q1833.93 838.002 1834.07 839.121Q1834.2 840.212 1834.29 841.305Q1834.39 842.399 1834.47 843.494Q1834.54 844.59 1834.58 845.687Q1834.63 846.784 1834.65 847.881Q1834.67 848.979 1834.66 850.077Q1834.65 851.175 1834.61 852.272Q1834.58 853.37 1834.52 854.466Q1834.46 855.562 1834.37 856.656Q1834.28 857.751 1834.16 858.843Q1834.05 859.935 1833.91 861.023Q1833.77 862.112 1833.6 863.197Q1833.43 864.282 1833.23 865.362Q1833.04 866.443 1832.82 867.518Q1832.6 868.594 1832.35 869.664Q1832.1 870.733 1831.83 871.797Q1831.56 872.86 1831.26 873.916Q1830.96 874.973 1830.63 876.022Q1830.31 877.07 1829.96 878.111Q1829.61 879.151 1829.23 880.183Q1828.85 881.215 1828.45 882.237Q1828.05 883.259 1827.63 884.271Q1827.2 885.283 1826.75 886.285Q1826.3 887.286 1825.83 888.276Q1825.35 889.266 1824.85 890.245Q1824.35 891.223 1823.83 892.189Q1823.31 893.154 1822.76 894.107Q1822.22 895.06 1821.65 895.999Q1821.08 896.938 1820.49 897.863Q1819.9 898.788 1819.28 899.698Q1818.67 900.609 1818.03 901.504Q1817.39 902.399 1816.74 903.278Q1816.08 904.157 1815.4 905.02C1799.6 924.984 1776.87 935.502 1751.89 938.42C1733.15 940.494 1710.4 934.138 1694.81 923.759Q1693.88 923.132 1692.96 922.483Q1692.04 921.833 1691.14 921.161Q1690.24 920.489 1689.35 919.795Q1688.47 919.102 1687.6 918.386Q1686.73 917.671 1685.88 916.934Q1685.03 916.197 1684.2 915.44Q1683.37 914.683 1682.55 913.905Q1681.74 913.127 1680.95 912.33Q1680.16 911.533 1679.38 910.716Q1678.61 909.9 1677.86 909.064Q1677.1 908.229 1676.37 907.375Q1675.64 906.521 1674.93 905.65Q1674.22 904.779 1673.53 903.89Q1672.84 903.001 1672.17 902.096Q1671.5 901.191 1670.86 900.269Q1670.21 899.348 1669.59 898.41Q1668.97 897.473 1668.37 896.521Q1667.77 895.569 1667.2 894.603Q1666.62 893.636 1666.07 892.656Q1665.52 891.675 1665 890.682Q1664.47 889.688 1663.97 888.682Q1663.46 887.675 1662.99 886.657Q1662.51 885.639 1662.06 884.609Q1661.61 883.579 1661.18 882.539Q1660.75 881.498 1660.35 880.447Q1659.95 879.396 1659.58 878.336Q1659.2 877.276 1658.86 876.207Q1658.51 875.137 1658.19 874.06Q1657.86 872.982 1657.57 871.897Q1657.27 870.812 1657.01 869.72Q1656.74 868.628 1656.5 867.53Q1656.25 866.432 1656.04 865.328Q1655.83 864.25 1655.64 863.167Q1655.45 862.085 1655.29 860.998Q1655.13 859.911 1654.99 858.82Q1654.86 857.729 1654.75 856.635Q1654.65 855.542 1654.57 854.446Q1654.49 853.35 1654.44 852.252Q1654.38 851.154 1654.36 850.056Q1654.33 848.957 1654.34 847.858Q1654.34 846.759 1654.37 845.661Q1654.4 844.562 1654.45 843.465Q1654.51 842.367 1654.59 841.272Q1654.68 840.176 1654.79 839.083Q1654.9 837.99 1655.04 836.9Q1655.18 835.809 1655.34 834.723Q1655.51 833.637 1655.7 832.555Q1655.89 831.473 1656.11 830.396Q1656.33 829.319 1656.58 828.248Q1656.82 827.177 1657.1 826.112Q1657.37 825.048 1657.67 823.99Q1657.97 822.933 1658.29 821.883Q1658.62 820.833 1658.97 819.792Q1659.32 818.75 1659.69 817.718Q1660.07 816.685 1660.47 815.663Q1660.88 814.64 1661.3 813.627Q1661.73 812.615 1662.18 811.613Q1662.63 810.612 1663.11 809.622Q1663.59 808.632 1664.09 807.654Q1664.59 806.676 1665.12 805.711Q1665.64 804.746 1666.19 803.794Q1666.74 802.843 1667.32 801.905Q1667.89 800.967 1668.48 800.044Q1669.08 799.12 1669.7 798.212C1685.67 774.836 1708.08 764.881 1735.13 759.801ZM1734.72 768.793C1710.54 773.833 1690.27 783.517 1676.41 804.806C1664.64 822.886 1661.16 845.085 1665.67 866.074Q1665.87 867.04 1666.1 868.002Q1666.32 868.963 1666.57 869.918Q1666.82 870.873 1667.09 871.822Q1667.36 872.771 1667.66 873.713Q1667.95 874.655 1668.27 875.589Q1668.59 876.524 1668.93 877.45Q1669.27 878.376 1669.64 879.293Q1670 880.211 1670.39 881.119Q1670.78 882.027 1671.19 882.926Q1671.59 883.824 1672.03 884.712Q1672.46 885.6 1672.91 886.477Q1673.36 887.354 1673.84 888.22Q1674.31 889.086 1674.81 889.939Q1675.3 890.793 1675.82 891.634Q1676.34 892.476 1676.87 893.304Q1677.41 894.132 1677.97 894.947Q1678.53 895.762 1679.1 896.562Q1679.68 897.363 1680.28 898.149Q1680.88 898.936 1681.49 899.707Q1682.11 900.478 1682.74 901.234Q1683.38 901.99 1684.03 902.73Q1684.69 903.47 1685.36 904.194Q1686.03 904.917 1686.72 905.624Q1687.41 906.331 1688.11 907.021Q1688.82 907.711 1689.54 908.383Q1690.27 909.055 1691.01 909.709Q1691.75 910.363 1692.5 910.998Q1693.26 911.634 1694.03 912.25Q1694.8 912.867 1695.59 913.465Q1696.37 914.062 1697.17 914.64Q1697.97 915.218 1698.79 915.776Q1699.6 916.334 1700.43 916.872C1715.03 926.207 1734.52 932.079 1751.89 929.206C1773.41 927.458 1792.65 917.794 1806.68 901.336Q1807.32 900.576 1807.94 899.801Q1808.56 899.026 1809.16 898.235Q1809.77 897.445 1810.35 896.64Q1810.93 895.836 1811.49 895.017Q1812.05 894.198 1812.6 893.365Q1813.14 892.533 1813.66 891.687Q1814.18 890.841 1814.68 889.983Q1815.18 889.125 1815.66 888.255Q1816.14 887.385 1816.6 886.503Q1817.05 885.621 1817.49 884.729Q1817.93 883.836 1818.34 882.933Q1818.75 882.03 1819.14 881.117Q1819.53 880.203 1819.9 879.281Q1820.27 878.359 1820.62 877.428Q1820.96 876.496 1821.29 875.557Q1821.61 874.618 1821.91 873.67Q1822.21 872.723 1822.48 871.769Q1822.76 870.815 1823.01 869.854Q1823.26 868.894 1823.49 867.927Q1823.72 866.961 1823.93 865.989Q1824.13 865.017 1824.31 864.04Q1824.49 863.064 1824.65 862.083Q1824.81 861.102 1824.94 860.118Q1825.07 859.133 1825.18 858.146Q1825.29 857.159 1825.37 856.169Q1825.46 855.179 1825.52 854.188Q1825.58 853.197 1825.61 852.204Q1825.65 851.211 1825.66 850.218Q1825.67 849.225 1825.65 848.232Q1825.64 847.239 1825.6 846.246Q1825.56 845.254 1825.5 844.263Q1825.44 843.271 1825.35 842.282Q1825.26 841.277 1825.15 840.275Q1825.04 839.272 1824.9 838.273Q1824.76 837.274 1824.6 836.278Q1824.44 835.283 1824.25 834.291Q1824.07 833.3 1823.86 832.314Q1823.64 831.327 1823.41 830.346Q1823.17 829.365 1822.92 828.391Q1822.66 827.416 1822.37 826.448Q1822.09 825.48 1821.78 824.519Q1821.48 823.558 1821.14 822.605Q1820.81 821.652 1820.46 820.708Q1820.11 819.763 1819.73 818.828Q1819.35 817.892 1818.95 816.966Q1818.55 816.041 1818.13 815.125Q1817.7 814.209 1817.26 813.304Q1816.81 812.399 1816.34 811.506Q1815.88 810.612 1815.39 809.73Q1814.9 808.848 1814.38 807.979Q1813.87 807.109 1813.34 806.253Q1812.81 805.396 1812.25 804.553Q1811.7 803.71 1811.13 802.88Q1810.55 802.051 1809.96 801.236Q1809.36 800.421 1808.75 799.621Q1808.13 798.822 1807.5 798.037Q1806.86 797.253 1806.21 796.484Q1805.56 795.715 1804.88 794.963Q1804.21 794.211 1803.52 793.475Q1802.83 792.74 1802.12 792.022Q1801.41 791.304 1800.69 790.603Q1799.96 789.903 1799.22 789.221Q1798.48 788.538 1797.72 787.875Q1796.96 787.211 1796.18 786.566C1778.91 772.258 1757.57 766.647 1735.43 768.722L1734.72 768.793Z"/>
	<path fill="#B7B8B9" d="M361.988 292.225C375.842 284.461 388.568 274.695 401.593 265.653C415.503 255.995 430.11 246.652 443.191 235.89C461.241 221.038 477.518 204.904 496.817 191.417C517.475 176.98 540.776 161.208 567.223 165.885C561.905 170.094 555.921 173.84 554.969 181.126C551.69 206.213 590.63 268.221 601.723 294.117C613.921 322.591 621.394 353.073 630.693 382.566C637.156 403.062 644.901 423.161 651.123 443.726C657.124 463.563 660.99 483.877 665.799 504.011C671.056 526.017 677.195 547.732 680.865 570.095C664.787 586.383 654.721 605.092 654.914 628.444C655.001 638.834 657.135 648.308 663.794 656.437C659.212 677.941 657.128 700.613 669.666 720.073C673.579 726.147 678.6 730.994 684.717 734.813C679.104 746.589 658.175 786.56 661.677 798.064C663.739 804.839 673.653 808.713 679.562 811.502C673.007 824.708 666.679 838.406 657.73 850.201C648.457 862.424 637.051 873.181 628.973 886.264C620.451 900.065 617.684 916.901 609.367 931.182C608.243 933.112 606.554 937.076 604.444 937.796C603.209 938.218 601.841 938.169 600.553 938.279C599.435 938.375 599.861 938.251 598.942 938.86C562.397 939.773 526.132 941.48 489.739 945.194C459.407 948.289 429.345 953.24 398.856 954.83C337.207 958.046 284.937 941.623 226.593 926.033C193.981 917.318 169.067 917.905 142.654 894.171C143.087 887.641 138.892 880.874 137.441 874.519C135.275 865.028 134.192 855.288 132.027 845.772C127.29 824.945 121.5 804.337 117.798 783.287C115.685 771.271 114.186 759.064 115.539 746.874C117.794 726.544 124.221 705.703 129.494 685.961C138.719 651.429 148.372 616.965 160.518 583.326C170.201 556.505 181.728 530.412 192.266 503.926C211.372 455.904 226.748 408.397 256.871 365.675C284.421 326.602 344.039 273.585 391.95 265.339C382.284 274.679 371.284 282.401 361.988 292.225Z"/>
	<path d="M364.055 733.176C371.993 735.174 378.02 742.425 386.301 743.522C392.648 744.362 401.818 737.768 407.105 739.67L405.757 743.299C403.009 746.003 400.334 748.489 396.721 749.977C391.005 752.332 384.642 752.403 378.95 749.934C371.361 746.643 367.066 740.62 364.055 733.176Z"/>
	<path d="M306.863 333.615C310.065 333.532 313.29 333.392 316.322 334.588C323.019 337.23 325.393 344.066 327.98 350.169C304.003 358.912 288.711 369.799 270.537 387.666L260.07 399.059C268.094 373.188 282.161 346.7 306.863 333.615Z"/>
	<path d="M483.944 666.226C485.059 666.648 484.857 666.721 485.371 667.714C482.659 674.702 477.613 679.503 471.858 684.092C446.04 704.681 408.868 718.602 375.589 714.646C352.931 711.953 335.428 700.856 321.449 683.164C318.886 679.588 317.056 675.384 315.076 671.461C339.077 685.948 341.839 701.091 374.857 705.567C416.179 711.17 452.45 690.259 483.944 666.226Z"/>
	<path d="M527.934 325.816C535.278 325.241 540.065 326.164 546.552 329.84C569.913 343.079 583.563 374.851 590.187 399.467C586.599 396.572 583.562 392.902 580.451 389.509C553.558 360.105 548.039 357.238 512.43 340.84C516.959 333.337 519.76 329.729 527.934 325.816Z"/>
	<path d="M291.263 400.851C299.193 400.739 306.131 401.92 313.076 405.923C326.672 413.759 334.255 429.134 338.272 443.769C348.121 479.649 343.513 522.029 324.906 554.385C314.94 571.713 301.935 583.484 282.247 588.8C274.655 588.666 268.01 587.879 261.09 584.532C248.116 578.257 240.134 565.808 235.548 552.561C223.619 518.103 228.533 477.264 244.356 444.883C254.711 423.692 268.622 408.649 291.263 400.851Z"/>
	<path fill="#EBECE6" d="M291.713 405.683C298.722 404.795 305.293 406.57 311.211 410.399C324.03 418.694 330.29 435.13 333.321 449.51C340.513 483.636 335.496 526.639 316.003 556.136C307.018 569.733 296.194 578.452 280.017 581.793C273.64 581.841 268.217 580.885 262.503 577.939C249.784 571.383 242.401 558.763 238.358 545.476C228.344 512.567 234.392 473.052 250.433 443.055C259.891 425.37 271.903 411.667 291.713 405.683Z"/>
	<path d="M305.328 465.418C306.908 465.578 308.534 465.749 310.067 466.182C315.624 467.751 319.992 472.443 322.583 477.421C329.101 489.944 328.669 508.912 324.487 522.101C321.182 532.525 316.09 539.669 306.394 544.764C304.332 544.799 302.077 544.653 300.11 543.984C294.94 542.227 290.586 537.6 288.152 532.843C281.818 520.471 282.194 501.695 286.355 488.645C289.8 477.843 295.295 470.626 305.328 465.418Z"/>
	<path fill="#EBECE6" d="M302.807 473.109C305.486 473.141 307.836 474.262 309.766 476.116C313.128 479.343 314.343 484.254 314.243 488.781C314.052 497.391 311.816 502.532 305.632 508.391C305.394 508.434 305.159 508.489 304.92 508.52C302.579 508.824 299.729 507.27 298.126 505.686C295.154 502.749 294.413 497.662 294.489 493.67C294.652 485.106 296.557 479.012 302.807 473.109Z"/>
	<path d="M528.658 395.798C538.251 394.832 547.085 397.306 555.188 402.525C575.427 415.564 586.497 441.583 591.253 464.257C598.586 499.206 595.987 542.893 575.854 573.443C565.884 588.572 553.42 597.196 535.576 600.827C525.494 600.477 516.88 598.884 508.088 593.494C488.255 581.336 477.178 557.177 472.05 535.356C463.695 499.807 467.282 458.483 486.868 427.067C496.898 410.979 509.853 400.167 528.658 395.798Z"/>
	<path fill="#EBECE6" d="M529.133 400.884C538.087 401.325 545.074 402.43 552.862 407.414C571.364 419.255 580.622 443.595 585.171 464.097C592.873 498.808 590.252 539.39 570.682 569.973C562.076 583.423 550.892 591.439 535.303 594.87C526.327 594.283 518.783 592.75 510.978 588.022C491.842 576.43 481.685 552.919 476.804 532.018C468.876 498.068 472.117 459.334 490.844 429.3C499.885 414.801 512.248 404.756 529.133 400.884Z"/>
	<path d="M525.468 463.381C527.465 463.168 529.353 463.376 531.278 463.946C538.095 465.964 543.262 471.295 546.427 477.484C554.116 492.521 555.272 514.118 550.152 530.085C546.639 541.039 541.342 548.467 531.088 553.727Q530.16 553.798 529.23 553.772Q528.299 553.746 527.377 553.622Q526.454 553.499 525.55 553.28Q524.646 553.061 523.769 552.748C516.787 550.261 511.79 544.757 508.629 538.203C501.249 522.902 500.579 501.502 506.17 485.589C509.96 474.799 515.204 468.273 525.468 463.381Z"/>
	<path fill="#EBECE6" d="M531.999 476.157C535.848 476.469 538.649 477.353 541.332 480.267C545.127 484.389 546.319 490.048 546.049 495.509C545.64 503.799 543.252 509.145 537.079 514.625C534.143 514.376 531.761 513.619 529.534 511.611C525.737 508.186 524.012 503.173 523.787 498.159C523.378 489.052 525.849 482.738 531.999 476.157Z"/>
	<path fill="#AAD5DF" d="M1289.45 143.367C1292.11 143.332 1293.13 143.054 1295.21 144.902C1304.39 153.048 1305.42 173.318 1306.52 184.757C1310.99 231.461 1306.88 278.708 1301.48 325.15Q1296.39 370.026 1288.53 414.499Q1280.67 458.973 1270.06 502.874C1265.85 520.326 1261.87 538.235 1256.53 555.369C1254.16 562.996 1249.16 568.45 1246.33 575.609C1244.11 581.245 1245.59 587.597 1244.28 593.394C1243.15 598.343 1239.21 602.527 1238.29 607.523C1237.51 611.698 1238.92 616.404 1239.18 620.608C1239.7 628.879 1232.3 645.918 1229.51 654.366C1206.62 723.659 1180.21 790.633 1145.53 854.97C1140.27 864.74 1134.7 877.896 1127.25 886.004C1116.99 882.012 1094.85 881.594 1083.27 880.208Q1039.56 875.051 995.986 868.866C906.004 855.907 805.707 838.716 719.499 810.894C703.791 806.187 688.807 800.25 673.774 793.772C681.676 769.029 692.168 746.264 705.208 723.864Q707.451 724.992 709.752 725.994C713.962 727.797 719.055 728.433 723.35 726.497C730.746 723.162 733.416 714.69 735.922 707.668C736.294 707.636 736.666 707.604 737.036 707.554C742.394 706.836 747.357 703.633 750.632 699.362C751.839 697.788 752.563 696.122 753.013 694.2C753.642 691.51 759.094 655.018 758.976 654.165C757.984 647.004 751.944 642.798 746.669 638.649C755.959 612.187 766.398 586.119 774.64 559.294C812.889 434.806 833.237 299.036 815.905 169.197Q853.091 168.424 890.283 168.794Q927.475 169.165 964.638 170.677Q1001.8 172.19 1038.9 174.843Q1076 177.497 1113 181.289C1153.76 185.259 1195.21 189.357 1235.59 196.091C1240.89 190.99 1245.52 172.029 1251.04 164.116C1259.99 151.297 1274.7 146.004 1289.45 143.367Z"/>
	<path d="M929.701 253.756C930.14 253.729 930.483 253.694 930.912 253.71C935.853 253.888 939.985 255.53 943.233 259.302C945.286 261.687 946.23 263.932 946.013 267.114C943.02 274.264 921.862 279.395 914.354 283.009C910.824 285.314 906.858 288.875 902.619 288.634L901.283 286.922C900.816 282.343 902.168 278.439 904.106 274.328C910.128 261.55 917.122 258.162 929.701 253.756Z"/>
	<path d="M1112.99 257.232C1113.5 257.154 1114.01 257.078 1114.52 257.034C1120.49 256.518 1126.89 258.904 1131.3 262.888C1142.3 272.821 1143.37 290.302 1143.99 304.122L1143.15 304.321L1138.08 300.218C1135.97 291.144 1114.73 279.837 1107.84 273.73C1105.45 271.61 1104.52 270.038 1104.31 266.882C1106.15 262.797 1109.75 260.191 1112.99 257.232Z"/>
	<path d="M934.492 325.817C941.991 325.203 948.728 325.771 955.69 328.871C965.74 333.346 972.515 342.186 976.204 352.35C983.398 372.169 980.222 395.007 971.361 413.747C962.76 431.941 949.957 444.416 930.852 451.208C930.469 451.338 930.085 451.467 929.695 451.575C921.86 453.758 912.306 452.369 905.243 448.45C895.772 443.196 890.054 433.322 887.12 423.184C880.914 401.74 885.301 376.65 895.908 357.304C904.808 341.073 916.686 330.99 934.492 325.817Z"/>
	<path fill="#EBECE6" d="M936.559 330.808C942.314 330.422 948.017 331.298 953.267 333.726C962.132 337.825 967.934 345.5 971.147 354.563C977.774 373.252 974.405 395.138 966.003 412.691C957.763 429.904 945.59 440.727 927.552 447.102C920.032 447.885 913.208 447.037 906.588 443.141C898.323 438.277 893.675 429.663 891.356 420.615C885.968 399.586 890.781 375.594 901.884 357.194C910.042 343.676 921.108 334.663 936.559 330.808Z"/>
	<path d="M948.889 369.605C950.834 369.783 952.843 369.955 954.73 370.475C959.309 371.738 963.348 374.647 965.618 378.863C969.68 386.404 968.201 397.292 965.864 405.127C961.77 418.849 954.08 428.981 941.579 435.832C939.088 436.337 936.58 436.34 934.109 435.712C930.096 434.693 926.627 432.2 924.65 428.54C920.233 420.364 922.103 407.631 924.673 399.18C928.866 385.388 936.229 376.237 948.889 369.605Z"/>
	<path fill="#EBECE6" d="M944.84 387.126C948.817 387.216 951.075 387.491 953.826 390.365C954.016 393.895 953.191 395.097 951.696 398.238C951.064 398.381 950.496 398.529 949.84 398.445C946.944 398.079 945.914 397.427 943.995 395.329C943.048 391.962 943.629 390.273 944.84 387.126Z"/>
	<path d="M1084.52 334.88C1093.38 334.063 1102.84 336.355 1110.31 341.178C1121.15 348.167 1127.19 360.172 1129.81 372.482C1134.7 395.499 1128.83 420.31 1116.09 439.867C1105.82 455.638 1091.89 465.467 1073.32 469.361C1064.97 469.446 1057 467.768 1049.74 463.518C1038.57 456.988 1032.04 445.659 1028.91 433.397C1023.24 411.203 1028.28 386.992 1039.98 367.566C1050.39 350.269 1064.82 339.813 1084.52 334.88Z"/>
	<path fill="#EBECE6" d="M1081.36 340.863C1088.84 339.934 1095.81 340.303 1102.8 343.313C1112.22 347.368 1118.49 355.35 1122.03 364.797C1129.16 383.823 1126.3 407.36 1117.95 425.558C1109.56 443.84 1096.99 456.123 1077.96 463.164C1069.8 464.231 1062.19 463.735 1054.68 460.112C1045.24 455.557 1039.19 446.891 1035.8 437.196C1028.92 417.491 1032.34 394.104 1041.48 375.707C1050.17 358.217 1062.77 347.118 1081.36 340.863Z"/>
	<path d="M1096.98 379.068C1100.64 378.5 1103.99 378.317 1107.43 379.881C1111.89 381.906 1114.91 385.578 1116.54 390.137C1120.61 401.498 1118.04 416.28 1113 426.92C1108.42 436.586 1101.81 443.971 1091.65 447.641C1090.28 447.796 1088.86 447.94 1087.49 447.814C1083.69 447.468 1079.96 445.723 1077.49 442.796C1072.39 436.742 1071.96 426.568 1072.68 419.088C1074.73 397.774 1080.81 392.397 1096.64 379.359L1096.98 379.068Z"/>
	<path fill="#EBECE6" d="M1090.64 399.774C1092.39 399.563 1094.76 399.374 1096.44 399.977C1098.71 400.793 1099.25 401.893 1100.03 403.931C1099.12 406.69 1098.32 407.369 1096.26 409.285C1096.09 409.342 1095.92 409.423 1095.74 409.457C1093.27 409.925 1092.45 409.751 1090.44 408.49C1089.16 405.279 1089.87 403.007 1090.64 399.774Z"/>
	<path d="M859.128 455.495C862.04 455.542 864.557 455.803 867.191 457.14L866.935 458.8C863.428 461.386 860.3 461.667 856.041 462.068C865.993 472.109 876.144 480.258 888.469 487.239C944.61 519.041 1019.66 521.438 1080.79 504.416C1083.96 503.535 1106.65 497.575 1106.96 494.692C1107.09 493.436 1105.9 490.329 1105.61 488.947C1105.2 487.045 1104.75 486.319 1105.75 484.532L1107.47 484.487C1112.79 490.951 1118.34 500.676 1121.26 508.54L1119.96 510.313C1115.54 510.138 1111.73 503.619 1106.87 502.348C1106.19 502.563 1105.45 502.645 1104.82 502.992C1104.14 503.37 1086.24 537.817 1083.3 542.36C1074.13 555.526 1063.01 567.699 1049.61 576.65C1029.5 590.077 1003.81 595.784 980 590.9C967.444 588.325 956.376 582.221 949.363 571.243C938.183 553.747 942.545 533.217 946.891 514.418C910.929 505.756 879.391 490.62 851.66 466.007L838.504 483.278C839.339 479.577 840.093 475.727 841.324 472.138C844.433 463.078 850.966 459.29 859.128 455.495Z"/>
	<path fill="#FA8C35" d="M1036.34 548.631C1048.03 547.518 1055.25 549.573 1065.47 554.938C1051.42 571.585 1034.06 580.208 1013.38 585.904C1004.12 587.454 994.661 586.848 985.354 586.274C998.041 568.694 1015.32 554.538 1036.34 548.631Z"/>
	<path fill="#833836" d="M1093.06 506.964L1094.42 507.299L1095.31 508.805C1093.22 520.882 1077 540.126 1069.47 550.473C1059.37 544.039 1048.95 540.9 1036.93 542.691C1012.41 546.343 993.765 566.729 979.813 585.523C972.906 583.51 966.996 580.919 960.944 577.076C958.328 574.568 955.968 571.501 954.042 568.44C943.693 551.99 948.054 533.009 952.353 515.508C995.214 523.244 1052.14 522.245 1093.06 506.964Z"/>
</svg>
