<?xml version="1.0" encoding="utf-8" ?>
<svg xmlns="http://www.w3.org/2000/svg" xmlns:xlink="http://www.w3.org/1999/xlink" width="1024" height="1023">
	<path d="M416.639 42.75C456.368 41.0045 496.454 43.1792 536.149 45.0053Q636.923 49.7064 737.284 59.9645C750.301 61.3567 782.646 63.0466 793.037 69.0009C810.106 78.7822 816.867 107.058 821.919 124.835C833.789 126.404 863.789 128.971 872.893 134.935C873.121 135.303 873.352 135.671 873.556 136.052C875.419 139.532 875.952 143.591 876.022 147.491C876.489 173.627 870.913 200.545 866.975 226.312Q855.068 307.164 838.007 387.087C833.018 411.04 829.379 435.474 822.363 458.94Q825.903 461.676 829.294 464.596Q832.684 467.516 835.914 470.612Q839.145 473.707 842.207 476.97Q845.268 480.233 848.153 483.654Q851.037 487.074 853.735 490.643Q856.434 494.212 858.94 497.919Q861.445 501.627 863.75 505.461Q866.056 509.296 868.154 513.248C879.125 534.262 886.598 559.424 879.04 582.814C875.679 593.215 869.082 601.736 859.272 606.742C843.731 614.672 823.327 613.138 807.218 607.925C802.376 610.905 796.326 613.439 790.566 613.436C784.717 613.433 781.351 610.807 777.521 606.825Q770.335 630.86 762.281 654.618Q754.227 678.376 745.314 701.826Q736.402 725.276 726.643 748.386Q716.885 771.496 706.293 794.237C699.421 809.015 689.08 835.626 676.114 845.131C665.826 852.672 647.156 845.116 635.957 842.333C630.07 840.87 624.149 839.765 618.168 838.766C623.305 857.09 629.886 876.302 639.045 893.022Q642.033 892.405 645.039 891.884C647.621 891.455 650.504 891.45 652.66 893.153C655.515 895.408 655.79 899.098 656.31 902.427C667.654 890.684 682.137 882.596 698.495 880.899C713.965 879.294 730.574 884.195 742.614 894.05C755.344 904.47 762.601 919.674 764.18 935.911C765.321 947.644 763.714 961.433 755.784 970.725C749.572 978.005 740.262 980.699 731.058 981.489C706.216 983.621 680.945 982.535 656.09 981.114C645.826 980.527 634.922 980.411 624.92 977.897C621.146 976.949 617.604 975.424 614.653 972.829C604.618 964.005 604.308 949.675 603.588 937.37C599.989 934.082 595.913 930.682 594.61 925.772C593.154 920.286 595.778 915.355 598.502 910.791C594.51 904.333 591.483 897.042 588.339 890.147C580.262 870.736 573.013 851.46 568.238 830.963L503.703 822.653Q458.62 815.993 413.699 808.31C400.511 806.012 387.2 804.009 374.106 801.247C374.983 829.779 379.948 857.232 386.621 884.919C392.969 887.886 397.311 892.313 400.001 898.789C404.039 908.507 402.674 918.328 403.289 928.506C403.698 935.271 406.58 942.308 403.666 948.894C400.625 955.768 392.985 959.623 386.255 962.048C354.272 973.576 279.696 982.669 248.41 967.623C243.453 965.239 240.614 963.14 238.817 957.681C233.758 942.311 235.596 919.216 242.737 904.699C248.918 892.134 259.507 882.255 272.832 877.745C294.798 870.311 315.332 876.954 335.178 886.904C335.276 886.82 335.372 886.734 335.47 886.651L335.963 886.237C337.682 884.774 339.213 883.822 341.275 882.891C339.852 871.491 337.213 860.288 335.864 848.868C333.705 830.592 333.246 812.15 332.536 793.774C276.135 780.951 218.226 770.781 165.42 746.096C160.27 743.688 151.15 739.61 149.281 733.775C146.439 724.897 168.048 679.824 172.745 670.313C165.774 666.312 160.723 661.195 156.736 654.188C145.811 634.987 146.427 612.979 152.005 592.254Q151.227 591.426 150.481 590.569C143.166 582.121 142.509 567.535 143.273 556.962C144.815 535.618 155.696 516.958 171.708 503.118C190.411 486.952 214.308 476.259 238.526 471.642C244.424 470.517 250.941 469.41 256.956 469.867C261.537 449.151 267.964 428.827 272.519 408.051C289.482 330.688 299.291 251.879 296.762 172.571C296.29 157.77 295.632 142.748 293.551 128.077C292.167 118.32 289.226 108.64 288.771 98.7852C288.211 86.6881 292.041 71.7235 300.542 62.7558C304.813 58.2508 310.783 55.3906 316.591 53.4317C341.439 45.05 389.577 43.8784 416.639 42.75ZM237.23 521.508C220.264 526.827 201.163 532.876 192.273 549.764C191.091 552.01 190.136 554.403 189.151 556.741C193.73 553.048 198.214 549.82 204.305 549.284C210.928 550.788 215.437 552.614 219.199 558.663C220.728 561.122 221.918 563.965 222.872 566.688C226.87 557.236 239.443 529.832 239.772 521.703C238.836 521.463 238.191 521.409 237.23 521.508ZM617.856 956.557C618.554 958.663 619.09 960.579 621.107 961.762C634.466 969.6 710.153 968.201 728.471 966.31C733.904 965.75 739.431 964.859 744.565 962.938L745.118 962.725C745.761 961.111 746.481 959.49 746.983 957.828C719.195 963.254 690.488 960.996 662.387 959.818C647.697 959.201 632.346 959.096 617.856 956.557Z"/>
	<path fill="#599CB6" d="M799.13 493.36L799.36 494.266C800.444 495.331 802.045 496.555 802.43 498.044C801.955 498.577 801.894 498.973 801.097 498.923C799.413 498.816 797.513 497.226 796.144 496.271C797.221 495.386 798.158 494.357 799.13 493.36Z"/>
	<path fill="#B87245" d="M345.504 786.026L360.473 790.217C360.457 794.826 360.677 799.409 360.904 804.011C356.074 803.935 350.363 804.059 345.728 805.546C344.836 799.295 345.435 792.367 345.504 786.026Z"/>
	<path fill="#E5E0D1" d="M177.905 562.066C183.515 561.767 188.341 562.641 193.661 564.355C183.163 569.652 174.836 575.343 167.171 584.382L162.596 590.938C160.763 589.122 158.996 587.275 158.31 584.714C157.353 581.142 158.175 577.675 160.039 574.551C163.964 567.977 170.697 564.015 177.905 562.066Z"/>
	<path fill="#ABD6E1" d="M663.681 800.368C667.049 804.81 665.179 826.838 664.922 832.795C654.702 831.65 644.497 829.19 634.422 827.138L625.149 825.556C639.51 819.455 652.531 811.377 663.681 800.368Z"/>
	<path fill="#E5E0D1" d="M819.96 137.226C833.062 140.338 846.406 142.148 859.753 143.859C856.023 148.066 852.619 152.632 849.053 156.983C845.024 161.406 841.191 164.476 835.809 167.088C827.83 159.157 821.288 148.529 819.96 137.226Z"/>
	<path fill="#E5E0D1" d="M795.356 90.3018C801.66 95.4571 813.309 138.335 817.394 148.727C819.731 154.671 823.12 160.221 826.19 165.81C817.724 163.667 808.925 157.958 802.131 152.589C800.508 141.569 800.8 130.089 799.769 118.972C798.878 109.357 796.616 99.8766 795.356 90.3018Z"/>
	<path fill="#E5E0D1" d="M816.756 545.793C820.839 549.401 823.656 553.614 824.607 559.057C826.252 568.47 822.389 578.743 817.097 586.404C811.22 594.91 803.961 599.307 793.871 601.148C790.698 601.242 787.664 601.13 784.504 600.828Q786.169 599.797 787.818 598.74C807.32 586.215 812.113 567.189 816.756 545.793Z"/>
	<path fill="#E5E0D1" d="M389.678 939.993C390.767 939.813 391.317 939.721 392.34 940.173C392.582 940.896 392.871 941.358 392.719 942.136C392.447 943.526 391.51 944.374 390.388 945.144C383.594 949.807 372.903 951.651 364.907 953.445C329.973 961.286 295.22 964.026 259.887 957.089C258.704 956.841 257.544 956.571 256.391 956.2C254.904 955.722 252.607 954.988 251.891 953.569C254.902 951.015 272.87 952.337 277.599 952.48C314.726 953.602 354.163 951.856 389.678 939.993Z"/>
	<path fill="#E7A66F" d="M345.728 805.546C350.363 804.059 356.074 803.935 360.904 804.011C362.963 820.767 364.453 837.5 367.53 854.128C369.815 866.482 373.369 878.537 376.019 890.812C369.116 890.715 362.209 890.757 355.311 890.458C353.048 874.665 350.295 858.846 348.478 843.001C347.048 830.531 346.355 818.075 345.728 805.546Z"/>
	<path fill="#E7A66F" d="M579.596 822.415C586.089 823.259 592.58 824.199 599.116 824.63C603.806 839.315 608.383 853.968 614.321 868.213C618.951 879.323 624.451 889.951 630.072 900.578C628.327 901.737 626.463 902.764 624.665 903.841C620.749 905.872 616.908 908.103 613.047 910.237C596.614 880.616 588.138 855.123 579.596 822.415Z"/>
	<path fill="#E7A66F" d="M248.361 481.604C249.873 481.494 251.067 481.381 252.536 481.884C252.779 487.325 247.944 499.56 246.11 505.239C228.113 509.576 210.021 513.034 194.92 524.611C183.65 533.251 181.278 542.599 179.479 556.173C169.453 558.818 163.593 563.547 156.892 571.293C156.336 571.894 156.023 572.131 155.34 572.534C154.647 571.86 154.472 571.874 154.257 570.869C153.689 568.224 154.109 564.877 154.306 562.195C155.219 549.805 158.405 538.739 165.273 528.299C183.414 500.718 217.45 487.927 248.361 481.604Z"/>
	<path fill="#E7A66F" d="M794.505 456.271C801.618 459.429 807.901 463.476 814.059 468.23C841.52 489.431 864.921 518.904 869.206 554.294C870.526 565.197 870.011 577.113 862.803 586.013C854.802 595.892 843.285 597.12 831.513 598.47Q823.825 598.676 816.182 597.825C822.914 589.994 827.259 581.222 830.15 571.37C831.681 571.115 833.27 570.897 834.771 570.497C838.097 569.612 841.104 567.219 842.746 564.198C846.394 557.482 843.792 548.284 841.554 541.477C834.932 521.338 821.729 502.121 803.846 490.406C797.613 486.323 790.77 483.348 784.142 479.987C786.291 471.132 789.976 464.091 794.505 456.271Z"/>
	<path fill="#E5E0D1" d="M207.15 564.639C211.078 566.576 212.179 572.212 215.704 574.864C222.644 580.086 234.762 579.652 239.21 587.756C241.534 591.99 240.893 597.973 239.536 602.462C238.688 605.265 237.502 607.957 234.867 609.424C224.701 610.645 214.972 598.903 205.997 595.306C204.886 594.86 204.516 594.525 203.41 595.021C203.425 595.815 203.528 596.435 203.868 597.161C208.474 606.996 226.768 612.573 236.127 615.951C236.857 621.068 237.051 626.161 233.979 630.643C232.195 633.247 229.799 635.052 226.653 635.577C215.324 637.466 203.68 624.581 195.477 618.514C193.702 617.202 191.353 615.438 189.105 615.775C188.805 616.653 188.903 617.184 189.178 618.043C192.083 627.138 201.986 635.251 210.222 639.45C211.957 640.228 214.22 640.993 215.507 642.425C216.439 643.462 216.904 645.123 216.84 646.494C216.711 649.246 214.271 651.689 212.276 653.317C209.52 655.567 206.262 657.277 202.604 656.784C190.476 655.15 184.522 633.317 177.627 625.32C176.775 624.333 176.33 623.853 174.989 623.717L174.533 624.425C174.437 633.998 183.414 646.496 189.214 653.689C187.049 656.063 184.698 658.292 182.421 660.558Q181.603 660.124 180.794 659.675C171.373 654.436 165.458 645.417 162.594 635.17C158.629 620.985 160.095 604.915 167.381 592.021C176.592 575.724 189.766 569.44 207.15 564.639Z"/>
	<path fill="#E5E0D1" d="M763.026 495.144C767.378 494.67 771.664 494.686 776.022 495.122C786.779 496.198 797.138 499.694 804.108 508.376C812.749 519.142 813.858 534.004 812.248 547.204C810.3 563.175 803.348 584.109 790.289 594.418C781.734 596.464 772.846 593.564 764.826 590.625C750.687 585.444 739.06 580.945 732.391 566.631C733.083 564.21 733.688 561.629 735.127 559.526C737.894 555.482 742.084 553.209 746.837 552.314C756.986 550.403 767.859 553.841 776.189 559.547C778.962 561.448 780.264 564.802 781.761 567.698C780.953 563.749 780.092 560.189 777.719 556.85C773.61 551.068 767.039 548.265 760.262 547.076C749.163 545.129 740.629 547.543 731.488 553.949C731.479 552.216 731.463 550.475 731.556 548.744C731.93 541.788 734.82 534.894 740.131 530.278C748.073 523.377 759.011 522.649 769.02 523.564C775.602 524.166 783.669 525.65 788.216 530.856C790.402 533.359 792.126 536.302 794.289 538.874C793.999 537.396 793.719 535.872 793.216 534.448C791.257 528.899 786.543 524.383 781.286 521.938C767.557 515.554 752.974 517.675 739.391 522.849L738.868 521.988C738.426 516.14 740.621 510.193 743.99 505.529C748.89 498.748 755.112 496.44 763.026 495.144Z"/>
	<path fill="#306284" d="M698.963 894.679C700.149 894.525 701.364 894.532 702.56 894.518C714.998 894.368 727.79 898.887 736.712 907.682C748.377 919.181 750.185 933.279 750.357 948.873C744.913 951.538 739.737 952.94 733.713 953.655C718.213 955.497 702.615 953.964 687.086 953.591C668.298 953.141 649.625 953.451 630.829 952.522C626.436 952.524 622.014 952.158 617.627 951.921L615.159 932.237C612.121 928.541 609.17 924.743 606.778 920.593C613.935 916.374 635.585 903.153 642.992 903.752C645.986 905.616 646.72 908.698 647.879 911.843C645.216 915.204 642.242 919.547 641.236 923.74C640.899 925.142 640.655 926.335 641.44 927.591C644.11 927.312 655.329 914.606 658.492 911.904Q663.198 907.833 668.541 904.642C678.059 899.031 688.086 896.178 698.963 894.679Z"/>
	<path fill="#306284" d="M288.296 888.19C305.028 886.399 323.899 893.512 337.523 902.767C345.517 908.198 352.779 914.648 360.828 920.027C359.861 916.627 358.708 913.413 356.739 910.454C354.666 907.34 345.923 899.662 345.537 897.26C346.456 896.24 347.36 895.588 348.789 895.51C352.548 895.302 356.931 897.135 360.741 897.562C368.416 898.42 376.945 897.636 384.579 896.617C387.06 900.015 388.789 903.407 389.933 907.475C391.857 914.317 393.55 927.237 389.659 933.489C388.191 935.847 386.179 936.093 383.667 936.712C353.813 943.61 324.059 946.463 293.412 946.506C279.067 946.527 264.75 945.707 250.413 945.661C249.334 930.274 249.977 913.452 260.434 901.088C267.504 892.728 277.66 889.125 288.296 888.19Z"/>
	<path fill="#599CB6" d="M728.645 572.818C730.881 574.843 731.922 578.566 734.066 580.882C741.795 589.23 754.668 592.449 765.064 595.901C759.392 621.326 749.861 646.678 741.068 671.195C724.547 717.256 705.487 768.027 682.136 810.888C678.607 817.365 675.025 824.38 670.509 830.221C670.568 823.177 670.543 816.155 670.016 809.126C669.598 803.542 668.77 797.988 668.437 792.406C667.719 791.54 667.55 791.312 666.473 790.864C665.831 791.018 665.376 791.196 664.903 791.677C659.825 796.843 655.838 802.072 649.928 806.494C641.793 812.581 632.306 816.598 623.043 820.625C627.598 810.362 633.902 800.622 639.27 790.752Q653.394 765.041 665.782 738.45C678.499 711.085 690.647 683.122 700.997 654.769C710.889 627.669 719.336 600.112 728.645 572.818Z"/>
	<path fill="#ABD6E1" d="M801.814 159.462C809.53 164.566 817.522 169.887 826.656 172.018C837.585 174.568 847.413 169.732 853.723 160.824C855.671 158.074 857.791 153.891 860.68 152.095L861.346 152.397C863.817 159.609 859.57 184.763 858.526 192.837Q849.348 259.813 836.927 326.264Q824.506 392.716 808.872 458.485C803.923 456.745 799.101 454.46 794.247 452.458C788.776 458.416 782.548 466.878 780.287 474.735C776.715 487.148 794.975 485.028 798.743 492.523C798.881 492.798 799.001 493.081 799.13 493.36C798.158 494.357 797.221 495.386 796.144 496.271C781.402 489.052 765.773 487.707 749.968 492.055C759.079 462.031 765.626 430.947 772.07 400.256C788.83 320.428 800.564 241.153 801.814 159.462Z"/>
	<path fill="#E5E0D1" d="M434.364 55.7573C445.748 55.1843 457.222 55.5697 468.616 55.7807Q505.894 56.6678 543.117 58.8922Q620.192 63.0969 697.162 68.9219C720.094 70.6506 742.929 73.3191 765.888 74.7553C761.471 76.5441 756.999 78.3126 752.821 80.6184C735.15 90.3726 726.932 106.813 721.633 125.517C695.605 120.108 668.339 117.846 641.878 115.307Q524.185 102.627 405.875 98.7562Q369.151 97.8978 332.424 98.5965C322.441 98.7658 312.476 99.418 302.49 99.4874C302.376 90.1777 303.861 79.4158 310.548 72.3885C313.978 68.7844 318.738 66.6187 323.433 65.1861C336.306 61.2581 350.365 60.4406 363.712 59.3419C387.267 57.403 410.74 56.4796 434.364 55.7573Z"/>
	<path fill="#ABD6E1" d="M777.353 79.2004C778.832 78.9855 780.509 79.056 782.012 78.9981C792.772 90.3046 793.713 110.23 795.011 124.968C798.372 163.16 795.586 202.068 791.848 240.134Q789.396 264.858 786.098 289.483Q782.799 314.108 778.659 338.606Q774.518 363.104 769.54 387.445Q764.562 411.787 758.753 435.943Q754.375 453.682 749.781 471.366C747.681 479.509 745.774 487.8 743.038 495.758C740.961 501.799 735.732 506.092 734.078 512.349C732.66 517.713 732.657 523.246 732.95 528.744Q731.622 530.901 730.366 533.101C725.775 541.246 725.153 549.966 727.667 558.875C715.632 595.624 703.985 632.526 689.982 668.588Q682.257 688.388 673.775 707.875Q665.292 727.362 656.065 746.508Q646.838 765.653 636.88 784.429Q626.922 803.205 616.247 821.583C601.821 818.883 587.299 817.805 572.75 816.107Q538.643 811.997 504.592 807.441Q423.962 796.435 344.196 780.322C298.53 771.206 252.696 761.259 208.337 746.949C192.288 742.278 176.973 736.266 161.728 729.443Q164.541 720.231 167.925 711.213Q171.309 702.195 175.25 693.407Q179.191 684.618 183.674 676.094Q188.157 667.569 193.165 659.341C195.622 660.781 198.215 662.159 200.995 662.839C205.189 663.865 209.507 663.439 213.215 661.13C219.681 657.104 221.818 650.074 223.412 643.099Q225.071 643.018 226.722 642.839C231.217 642.317 235.37 639.078 238.014 635.553Q238.73 634.586 239.348 633.554Q239.967 632.523 240.482 631.436Q240.997 630.348 241.404 629.216Q241.81 628.084 242.105 626.918C243.468 621.63 241.866 617.52 242.564 612.497C243.613 604.957 248.51 597.975 247.297 590.061C246.211 582.973 239.979 578.409 234.585 574.499C243.783 547.838 254.487 521.872 262.741 494.852C292.211 398.378 310.029 298.327 310.037 197.262C310.04 166.232 308.743 135.7 303.785 105.03Q355.925 103.356 408.078 104.546Q460.231 105.736 512.24 109.786Q565.504 113.356 618.632 118.576C654.257 122.363 689.637 127.39 725.186 131.696C728.496 119.721 732.58 107.803 740.654 98.1304C750.003 86.931 762.901 80.4246 777.353 79.2004Z"/>
	<path d="M417.589 189.568C420.915 189.237 424.592 189.843 427.46 191.618C432.491 194.734 434 199.798 435.348 205.178C424.101 209.826 412.321 213.414 401.508 219.036C399.098 220.724 396.692 222.551 394.181 224.078C392.972 224.813 392.186 225.3 390.786 225.009C390.425 224.492 390.372 224.476 390.127 223.78C388.391 218.867 391.41 210.203 393.836 205.789C398.946 196.492 407.817 192.325 417.589 189.568Z"/>
	<path d="M602.959 192.449C609.154 192.53 615.035 194.53 619.555 198.854C630.805 209.618 631.788 227.095 632.022 241.641L626.86 235.475C616.263 222.754 606.799 216.331 592.86 208.082C592.085 206.268 592.012 204.355 592.597 202.469C594.172 197.393 598.499 194.668 602.959 192.449Z"/>
	<path d="M425.337 261.182Q426.731 261.037 428.131 261.006Q429.532 260.975 430.93 261.06Q432.329 261.144 433.716 261.342Q435.103 261.54 436.469 261.851Q437.835 262.162 439.171 262.583Q440.507 263.005 441.805 263.535Q443.102 264.064 444.351 264.698Q445.601 265.332 446.794 266.066C457.188 272.511 463.741 283.732 466.422 295.469C471.336 316.989 465.846 340.515 454.191 358.983C445.126 373.346 431.88 384.153 415.121 387.885C414.649 387.966 414.178 388.05 413.704 388.111C405.344 389.185 396.333 386.817 389.637 381.685C379.474 373.896 374.559 361.044 372.944 348.703C369.908 325.505 376.865 300.289 391.158 281.781C399.705 270.713 411.338 262.972 425.337 261.182Z"/>
	<path fill="#E5E0D1" d="M423.564 266.59C430.422 265.838 436.874 266.747 442.999 270.008C451.566 274.57 457.079 283.153 459.838 292.261C465.843 312.08 461.795 334.345 452.118 352.297C443.773 367.781 432.503 377.702 415.609 382.686Q414.96 382.815 414.306 382.915Q413.652 383.015 412.995 383.085Q412.337 383.154 411.677 383.194Q411.016 383.234 410.355 383.245Q409.694 383.255 409.032 383.234Q408.371 383.214 407.712 383.164Q407.052 383.114 406.396 383.035Q405.739 382.955 405.087 382.845Q404.434 382.736 403.788 382.596Q403.141 382.457 402.501 382.289Q401.862 382.121 401.23 381.924Q400.599 381.726 399.977 381.501Q399.355 381.275 398.744 381.022Q398.133 380.768 397.534 380.487Q396.936 380.206 396.35 379.898Q395.765 379.59 395.194 379.256C386.388 374.084 381.346 364.52 378.953 354.896C373.989 334.934 378.928 310.746 389.439 293.314C397.597 279.784 408.104 270.394 423.564 266.59Z"/>
	<path d="M436.458 305.494C438.877 305.448 441.128 305.455 443.466 306.199C448.019 307.648 451.53 310.58 453.561 314.928C457.784 323.97 456.004 335.48 452.724 344.519C448.435 356.335 441.319 365.921 429.833 371.337C426.628 371.97 423.643 372.256 420.524 371.085C416.799 369.686 414.178 366.909 412.562 363.312C408.191 353.579 410.414 340.344 413.983 330.731C418.43 318.752 424.8 310.868 436.458 305.494Z"/>
	<path fill="#E5E0D1" d="M434.119 323.01C436.108 322.982 438.439 322.756 440.174 323.93C441.274 324.675 442.073 325.538 442.273 326.901C442.673 329.635 440.747 331.815 439.143 333.768C438.464 333.988 438.295 334.084 437.5 334.119C435.942 334.189 433.741 333.369 432.659 332.292C431.488 331.126 430.961 329.512 431.044 327.875C431.165 325.488 432.423 324.476 434.119 323.01Z"/>
	<path d="M572.094 270.598C581.442 269.703 590.715 271.48 598.477 276.904C609.582 284.663 616.119 297.917 618.464 310.992C622.6 334.056 615.68 359.283 602.343 378.28C592.528 392.261 579.052 401.928 562.118 404.878C553.598 405.572 544.751 403.678 537.47 399.16C525.805 391.922 519.266 379.598 516.292 366.525C511.25 344.358 517.133 320.081 529.19 301.123C539.459 284.977 553.449 274.742 572.094 270.598Z"/>
	<path fill="#E5E0D1" d="M571.624 276.112C579.774 274.981 588.053 276.417 594.995 280.937C604.784 287.311 610.454 298.752 612.697 309.925C616.952 331.121 611.531 355.091 599.606 372.966C590.539 386.555 578.854 396.206 562.617 399.404C554.71 400.234 547.232 398.966 540.435 394.707C530.394 388.414 524.377 377.394 521.813 366.07C517.008 344.846 522.446 321.121 534.12 303.017C543.192 288.947 555.214 279.651 571.624 276.112Z"/>
	<path d="M587.788 314.054C590.083 313.89 592.479 314.173 594.627 315.022C598.983 316.742 601.932 320.335 603.729 324.56C608.251 335.19 606.579 348.935 602.497 359.428C597.946 371.124 591.285 378.725 579.75 383.726C576.789 383.885 574.027 383.697 571.263 382.526C567.054 380.743 564.197 377.487 562.54 373.274C558.175 362.18 560.507 347.196 565.22 336.59C570.013 325.804 576.678 318.32 587.788 314.054Z"/>
	<path fill="#E5E0D1" d="M580.761 334.954C582.762 335.028 585.132 335.075 586.671 336.581C587.549 337.439 588.007 338.269 588.024 339.516C588.061 342.228 586.418 343.745 584.698 345.613C582.592 345.733 580.115 345.795 578.478 344.234C577.636 343.431 577.273 342.405 577.289 341.258C577.327 338.426 578.884 336.885 580.761 334.954Z"/>
	<path d="M349.144 391.06C350.616 391.151 352.416 391.251 353.716 392.022C354.844 392.69 355.257 393.337 355.608 394.552L354.901 395.53C351.704 397.32 347.54 397.389 343.959 397.633C357.113 412.295 373.107 422.067 390.846 430.202C440.829 453.125 505.071 455.08 558.037 442.987C571.061 440.013 583.479 435.734 595.988 431.087C594.554 428.265 592.383 424.05 593.003 420.859C593.883 419.902 593.902 420.044 595.222 419.983C596.394 420.528 597.265 420.99 598.042 422.056C599.828 424.507 600.506 428.49 601.962 431.275C603.939 435.059 607.029 438.325 608.865 442.148C609.44 443.344 609.491 443.774 609.303 445.029C608.741 445.285 608.458 445.512 607.828 445.475C602.745 445.168 599.98 441.047 596.853 437.515L591.809 438.836C589.12 444.035 587.093 449.687 584.588 455C580.716 463.213 575.98 471.126 570.926 478.664C562.518 490.227 553.043 501.067 541.572 509.698Q540.656 510.38 539.723 511.04Q538.791 511.7 537.842 512.337Q536.894 512.974 535.93 513.587Q534.967 514.201 533.988 514.791Q533.01 515.381 532.017 515.946Q531.025 516.512 530.019 517.053Q529.013 517.594 527.994 518.111Q526.975 518.628 525.943 519.119Q524.912 519.611 523.869 520.077Q522.826 520.543 521.772 520.983Q520.718 521.424 519.654 521.838Q518.589 522.253 517.515 522.641Q516.44 523.03 515.357 523.392Q514.273 523.754 513.181 524.089Q512.089 524.425 510.989 524.734Q509.889 525.042 508.782 525.324Q507.675 525.606 506.562 525.86Q505.448 526.115 504.328 526.342Q503.209 526.569 502.084 526.769Q500.959 526.969 499.83 527.141Q498.7 527.314 497.567 527.458Q496.434 527.603 495.298 527.72Q494.161 527.837 493.022 527.926Q491.883 528.015 490.743 528.076Q489.602 528.138 488.46 528.171Q487.318 528.204 486.176 528.21Q485.033 528.215 483.891 528.193Q482.749 528.17 481.608 528.12Q480.466 528.069 479.327 527.991Q478.187 527.913 477.049 527.807Q475.912 527.7 474.777 527.566Q473.643 527.433 472.512 527.271C459.235 525.376 447.223 520.623 439.053 509.521C429.463 496.491 428.649 480.395 431.544 464.97C432.444 460.173 433.961 455.478 434.663 450.652L434.732 450.143C397.982 441.014 368.071 427.306 339.778 401.953C339.391 402.343 339.02 402.74 338.642 403.137C334.352 407.647 331.62 413.261 327.406 417.738C327.69 412.239 328.817 407.013 331.821 402.32C335.928 395.904 341.844 392.571 349.144 391.06Z"/>
	<path fill="#E7A66F" d="M527.814 483.625C537.572 483.045 545.277 485.362 553.415 490.662C539.923 507.214 519.967 517.831 499.21 521.927C490.825 523.023 481.918 523.137 473.565 521.769Q473.896 521.231 474.252 520.709C476.555 517.337 479.509 514.299 482.26 511.283C494.828 497.507 509.208 486.945 527.814 483.625Z"/>
	<path fill="#823735" d="M583.994 442.091C584.442 449.554 562.565 479.544 557.372 486.236Q555.894 485.179 554.357 484.211C544.432 477.923 533.268 476.199 521.834 478.84C500.601 483.745 479.603 502.685 468.41 520.8C461.087 519.813 455.043 516.974 449.031 512.79Q446.728 510.663 444.777 508.209Q442.826 505.754 441.273 503.031C431.961 486.643 435.711 468.447 440.337 451.318C452.273 452.227 464.118 454.31 476.126 455.098Q481.638 455.45 487.16 455.598Q492.682 455.746 498.205 455.69Q503.728 455.634 509.246 455.374Q514.763 455.114 520.267 454.65Q525.771 454.186 531.255 453.519Q536.738 452.852 542.193 451.983Q547.647 451.114 553.066 450.044Q558.485 448.974 563.861 447.705C570.624 446.098 577.293 443.953 583.994 442.091Z"/>
</svg>
