<?xml version="1.0" encoding="utf-8" ?>
<svg xmlns="http://www.w3.org/2000/svg" xmlns:xlink="http://www.w3.org/1999/xlink" width="1023" height="1023">
	<path fill="#B4B8BA" d="M880.827 789.017C888.308 790.535 895.636 792.133 902.751 794.985C917.019 800.705 929.83 809.193 944.48 814.151C953.985 817.368 963.906 819.673 973.673 821.928C979.784 823.338 986.27 824.441 992.065 826.871C996.526 828.743 1000.36 831.645 1003.05 835.696C1006.18 840.396 1007.55 846.373 1006.32 851.935C1004.63 859.569 997.65 865.104 991.266 868.914C958.18 888.658 881.218 901.785 841.206 907.96Q744.608 922.376 647.159 928.906C599.073 932.25 551.017 934.847 502.79 933.991C456.08 933.162 409.744 927.975 363.138 925.396Q309.044 922.756 255.094 918.004Q189.523 911.474 124.698 899.645C101.639 895.474 78.6748 891.416 55.957 885.575C44.6815 882.676 20.6142 877.172 14.2844 867.171C13.0001 865.141 12.4702 862.915 13.1273 860.572C15.0657 853.661 23.414 848.674 29.4121 845.575C51.218 834.308 76.5289 828.189 100.026 821.38C106.25 819.577 112.714 818.026 118.816 815.871C122.961 824.629 129.113 831.745 136.249 838.238C151.118 851.767 169.301 864.047 189.536 867.18C202.799 869.233 215.594 870.136 228.674 873.564C261.986 882.296 293.575 895.562 327.576 902.154C407.359 917.622 487.203 894.906 566.699 889.422C577.084 888.705 586.332 891.126 596.504 892.433C605.213 893.553 614.259 893.495 623.026 893.037C660.804 891.06 698.468 879.849 734.094 867.665C747.661 863.025 760.966 857.656 774.777 853.733C792.871 848.594 810.074 849.573 827.092 839.842C848.266 827.735 864.72 806.937 880.827 789.017Z"/>
	<path d="M116.937 792.36C110.839 783.878 103.73 776.138 97.5207 767.735C91.0586 758.99 85.7339 749.339 79.8133 740.224C69.0544 723.66 51.3181 702.767 48.6599 682.791C47.728 675.789 49.7416 669.763 52.5799 663.476C57.973 651.53 67.2166 641.079 73.7173 629.61C84.6301 610.357 92.1151 590.24 101.875 570.598C105.727 562.847 110.696 555.769 114.953 548.25C117.975 542.912 120.378 537.285 122.651 531.598C134.344 502.332 141.73 471.675 154.059 442.58C172.715 398.557 196.266 356.678 214.406 312.458Q217.876 303.899 220.275 294.981C223.265 283.698 224.373 270.97 231.812 261.509C238.352 253.19 250.453 248.085 259.432 242.833C296.871 220.933 334.97 199.929 375.918 185.22C384.176 182.254 392.693 179.682 401.162 177.4C410.694 174.833 421.379 173.002 430.078 168.241C440.335 162.627 449.273 153.562 457.995 145.818C483.824 122.887 515.022 94.2603 550.808 90.2661C569.676 88.1601 586.463 96.1 600.911 107.643C637.041 136.51 659.645 179.402 689.871 213.786C716.492 244.07 749.347 269.721 772.756 302.65C781.863 315.46 788.799 329.749 791.649 345.285C793.082 353.093 792.514 360.869 796.577 368.021C801.165 376.098 807.29 383.61 812.535 391.307L844.835 439.258L882.877 497.164C899.053 521.394 915.597 545.34 929.944 570.729C939.146 587.013 946.417 604.281 954.838 620.971C963.292 637.726 975.205 655.406 977.173 674.401Q977.26 675.173 977.313 675.948Q977.366 676.723 977.385 677.5Q977.404 678.276 977.389 679.053Q977.374 679.83 977.324 680.605Q977.274 681.38 977.191 682.153Q977.107 682.925 976.989 683.693Q976.872 684.461 976.72 685.223Q976.569 685.985 976.384 686.739Q976.199 687.494 975.982 688.24Q975.764 688.985 975.513 689.721Q975.263 690.456 974.98 691.18Q974.697 691.903 974.383 692.614Q974.069 693.324 973.723 694.02Q973.378 694.716 973.002 695.396Q972.627 696.076 972.221 696.739Q971.816 697.402 971.382 698.046C964.235 708.54 951.015 716.872 941.68 725.616C920.295 745.647 899.23 766.154 880.827 789.017C864.72 806.937 848.266 827.735 827.092 839.842C810.074 849.573 792.871 848.594 774.777 853.733C760.966 857.656 747.661 863.025 734.094 867.665C698.468 879.849 660.804 891.06 623.026 893.037C614.259 893.495 605.213 893.553 596.504 892.433C586.332 891.126 577.084 888.705 566.699 889.422C487.203 894.906 407.359 917.622 327.576 902.154C293.575 895.562 261.986 882.296 228.674 873.564C215.594 870.136 202.799 869.233 189.536 867.18C169.301 864.047 151.118 851.767 136.249 838.238C129.113 831.745 122.961 824.629 118.816 815.871C115.822 808.271 116.314 800.339 116.937 792.36Z"/>
	<path fill="#4F6E78" d="M72.3423 684.311C79.0889 683.504 85.4551 684.299 92.1608 685.05C91.8197 687.172 91.6839 689.031 91.994 691.168C93.134 699.022 96.3676 706.665 99.091 714.08C102.637 723.734 106.301 733.406 109.253 743.261C112.741 754.906 115.5 766.704 118.166 778.556L111.596 770.058C99.8571 755.12 89.8561 739.207 79.6601 723.207C72.2449 711.57 64.2754 699.88 58.5251 687.31C63.0723 686.146 67.6593 684.76 72.3423 684.311Z"/>
	<path fill="#B4B8BA" d="M108.354 584.334C109.159 587.339 105.33 611.497 104.839 616.667Q103.434 631.058 102.388 645.48C101.96 652.125 102.205 659.643 100.758 666.141C99.6478 671.127 96.2952 675.902 93.7757 680.282C81.8626 677.761 71.4609 676.993 59.8147 680.971C59.2296 681.023 58.66 680.942 58.076 680.892C57.0881 677.763 60.0579 672.713 61.5252 669.9C67.406 658.629 75.5758 648.682 82.0099 637.71C92.0547 620.58 100.043 602.34 108.354 584.334Z"/>
	<path fill="#EBF3F6" d="M105.387 668.926Q105.835 657.299 107.003 645.722Q108.171 634.145 110.054 622.663Q111.937 611.18 114.528 599.837Q117.12 588.493 120.409 577.332C123.78 565.528 127.885 553.95 131.398 542.189C145.306 495.632 160.274 452.141 180.68 407.925C193.422 380.314 209.003 354.051 221.361 326.24Q226.328 315.048 229.592 303.247C232.388 292.797 233.057 281.143 239.177 271.893C245.096 262.948 260.319 255.104 269.569 249.518C299.619 231.371 330.11 215.406 362.526 201.853C379.542 194.738 396.17 188.279 414.216 184.235C406.539 190.165 398.975 197.205 390.718 202.248C379.182 200.077 340.957 223.052 330.504 230.196C302.247 249.506 270.599 281.035 251.738 309.624C235.095 334.85 222.189 362.299 211.239 390.415C205.424 405.346 200.274 420.534 194.431 435.45C184.352 461.18 172.979 486.351 163.347 512.273C151.747 543.492 141.563 578.757 132.836 610.995C126.623 633.95 120.234 657.335 115.96 680.742C111.529 704.999 127.304 757.339 132.986 783.244C135.075 792.768 136.021 802.536 138.14 812.035C139.477 818.026 143.914 824.977 143.882 830.982C137.78 826.604 130.751 819.361 128.092 812.177C125.648 805.571 127.182 798.575 126.123 791.769C124.217 779.52 121.085 766.739 118.064 754.698C112.232 731.458 101.755 709.697 95.051 686.69C97.9314 680.258 101.344 674.66 105.387 668.926Z"/>
	<path fill="#4F6E78" d="M792.635 648.786L793.244 648.892C800.452 650.085 807.79 650.221 815.005 651.465C853.001 658.014 882.772 668.249 917.138 685.727C928.392 691.451 940.029 696.964 950.512 704.038Q936.411 715.77 923.074 728.364Q909.737 740.959 897.218 754.366C876.394 776.746 853.396 812.081 826.559 826.403C805.6 837.588 781.193 842.035 758.54 848.5C721.965 858.939 685.213 868.702 647.271 872.538C648.932 870.713 652.2 867.821 652.92 865.508C661.537 862.057 668.199 856.196 673.587 848.685C681.066 838.261 686.618 826.545 692.46 815.17Q703.281 793.578 715.306 772.632Q735.388 738.566 756.991 705.443C763.712 695.173 770.926 685.216 777.507 674.857C782.901 666.367 787.332 657.318 792.635 648.786Z"/>
	<path fill="#778D94" d="M567.979 101.585C584.272 107.937 598.562 118.188 610.897 130.512C625.255 144.857 636.713 161.429 648.805 177.639C666.165 200.911 683.456 224.237 702.701 246.011Q713.396 257.93 724.931 269.037C742.548 285.839 760.201 300.92 770.295 323.813C776.059 336.884 779.255 350.928 782.656 364.746C790.539 396.778 797.336 431.708 814.224 460.413C810.902 449.498 806.618 438.924 803.178 428.057C798.38 412.899 794.666 397.268 791.058 381.79C803.746 400.093 817.012 417.986 829.667 436.303Q853.124 470.568 875.617 505.474C885.405 520.441 895.536 535.191 904.64 550.591C919.55 575.815 932.353 602.092 945.424 628.29C952.978 643.429 968.528 666.193 965.392 683.677C963.99 691.496 958.525 697.848 952.563 702.742C915.473 674.305 879.516 656.711 832.798 650.146C819.107 648.222 805.908 646.99 792.084 648.273C765.469 686.515 738.024 723.335 714.604 763.771Q703.949 782.551 694.852 802.133C690.383 811.622 686.288 821.629 680.662 830.496Q677.261 835.93 673.324 840.989Q669.387 846.047 664.955 850.679C662.444 853.283 649.605 863.584 649.144 865.585C650.36 866.201 651.644 865.749 652.92 865.508C652.2 867.821 648.932 870.713 647.271 872.538C633.449 873.447 619.609 874.513 605.747 874.495C608.149 867.238 613.124 861.551 616.259 854.704C621.28 843.735 623.478 831.367 629.741 820.981C636.273 810.147 648.754 798.493 656.84 787.646C672.501 766.635 681.731 743 691.267 718.833C694.943 709.517 699.226 700.142 701.259 690.305C706.695 664.009 694.853 629.55 691.308 602.89C689.714 590.9 690.654 579.117 689.653 567.172C688.74 556.292 685.766 545.723 684.225 534.934C682.493 522.803 682.024 510.496 679.985 498.408C676.864 479.902 671.579 461.856 667.021 443.675C662.261 424.689 659.014 405.31 653.658 386.478C647.252 363.953 638.591 342.155 631.463 319.861C624.395 297.758 618.714 275.279 611.025 253.358C606.541 240.575 601.667 227.988 595.754 215.792C589.35 202.583 581.524 190.073 574.904 176.964C568.719 164.719 563.944 151.888 559.644 138.878C557.408 132.111 554.395 123.843 555.087 116.641C555.833 108.872 562.656 106.003 567.979 101.585Z"/>
	<path d="M585.148 121.774C585.456 122.023 585.748 122.29 586.033 122.564C592.872 129.111 606.534 159.293 612.03 169.853Q636.32 215.537 658.077 262.479Q679.835 309.421 698.996 357.482Q709.816 383.306 719.744 409.486Q729.671 435.666 738.693 462.172Q747.716 488.678 755.823 515.478Q763.93 542.278 771.112 569.34Q775.849 587.551 780.05 605.892C781.801 613.361 784.564 621.917 784.518 629.61C780.376 624.001 768.314 575.623 765.076 564.291Q743.513 489.012 716.036 415.684Q686.162 335.901 649.641 258.933L601.653 159.558C596.012 147.613 587.8 134.718 585.148 121.774Z"/>
	<path fill="#B4B8BA" d="M361.959 227.574C374.958 221.046 386.841 211.519 398.666 203.063C413.777 192.258 429.644 182.428 444.158 170.812C452.441 164.183 459.76 156.366 467.81 149.451Q479.033 139.907 490.973 131.278Q502.912 122.648 515.495 114.986C531.431 105.114 548.891 97.098 567.979 101.585C562.656 106.003 555.833 108.872 555.087 116.641C554.395 123.843 557.408 132.111 559.644 138.878C563.944 151.888 568.719 164.719 574.904 176.964C581.524 190.073 589.35 202.583 595.754 215.792C601.667 227.988 606.541 240.575 611.025 253.358C618.714 275.279 624.395 297.758 631.463 319.861C638.591 342.155 647.252 363.953 653.658 386.478C659.014 405.31 662.261 424.689 667.021 443.675C671.579 461.856 676.864 479.902 679.985 498.408C682.024 510.496 682.493 522.803 684.225 534.934C685.766 545.723 688.74 556.292 689.653 567.172C690.654 579.117 689.714 590.9 691.308 602.89C694.853 629.55 706.695 664.009 701.259 690.305C699.226 700.142 694.943 709.517 691.267 718.833C681.731 743 672.501 766.635 656.84 787.646C648.754 798.493 636.273 810.147 629.741 820.981C623.478 831.367 621.28 843.735 616.259 854.704C613.124 861.551 608.149 867.238 605.747 874.495Q548.527 875.132 491.559 880.539C454.15 884.467 416.621 891.081 378.91 890.955C345.853 890.844 313.483 885.225 281.593 876.861C261.472 871.583 241.612 865.331 221.413 860.329C204.227 856.073 186.611 854.69 170.018 848.025C160.249 844.101 151.298 838.46 143.882 830.982C143.914 824.977 139.477 818.026 138.14 812.035C136.021 802.536 135.075 792.768 132.986 783.244C127.304 757.339 111.529 704.999 115.96 680.742C120.234 657.335 126.623 633.95 132.836 610.995C141.563 578.757 151.747 543.492 163.347 512.273C172.979 486.351 184.352 461.18 194.431 435.45C200.274 420.534 205.424 405.346 211.239 390.415C222.189 362.299 235.095 334.85 251.738 309.624C270.599 281.035 302.247 249.506 330.504 230.196C340.957 223.052 379.182 200.077 390.718 202.248C387.38 205.645 383.216 208.633 379.547 211.7C373.453 216.793 367.61 221.99 361.959 227.574Z"/>
	<path d="M364.093 668.447C370.324 670.268 375.691 675.858 381.946 678.119C391.063 681.415 400.893 676.482 408.99 672.559C408.008 674.686 406.822 676.669 405.635 678.685C402.71 682.557 398.778 685.354 394.109 686.725C388.062 688.5 381.535 687.451 376.145 684.267C370.224 680.769 365.74 675.155 364.093 668.447Z"/>
	<path d="M308.43 269.022C311.869 268.998 315.276 269.389 318.323 271.099C323.979 274.274 325.914 280.245 327.492 286.103C300.204 294.784 288.803 305.038 269.359 324.625C266.049 328.099 263.013 331.851 259.698 335.342C262.278 327.072 265.301 319.125 269.265 311.411C277.462 295.465 290.504 274.776 308.43 269.022Z"/>
	<path d="M484.645 601.416C485.131 601.618 484.787 601.445 485.491 602.204C485.502 602.878 485.539 602.97 485.344 603.726C483.302 611.634 469.836 621.511 463.346 625.931C437.236 643.715 400.999 655.545 369.511 649.443Q367.633 649.077 365.774 648.619Q363.916 648.161 362.083 647.612Q360.249 647.063 358.445 646.425Q356.641 645.787 354.87 645.061Q353.099 644.335 351.366 643.523Q349.633 642.71 347.942 641.814Q346.251 640.918 344.607 639.939Q342.962 638.961 341.367 637.902Q339.772 636.844 338.232 635.709Q336.691 634.574 335.208 633.364Q333.725 632.155 332.303 630.874Q330.881 629.593 329.524 628.243Q328.166 626.894 326.877 625.48Q325.588 624.065 324.37 622.589Q323.152 621.113 322.008 619.579Q320.863 618.045 319.796 616.456C318.628 614.528 317.251 612.262 317.177 609.978L317.777 609.372C322.694 610.586 331.283 620.55 335.614 624.144C345.864 632.65 357.878 638.571 371.045 640.818C401.963 646.094 436.243 634.926 462.092 618.101C469.949 612.987 476.994 606.798 484.645 601.416Z"/>
	<path d="M531.321 261.112C535.583 260.536 540.479 262.132 544.204 264.081C565.113 275.018 581.411 304.67 587.878 326.691C588.534 328.927 589.014 330.535 587.85 332.647L587.262 332.681L587.514 331.898L586.816 332.317Q583.123 328.367 579.581 324.28C567.265 308.751 551.485 294.041 533.495 285.472C526.97 282.364 519.954 280.386 513.496 277.25L513.022 277.015C513.847 274.645 514.668 272.373 516.084 270.273C519.874 264.654 524.831 262.262 531.321 261.112Z"/>
	<path d="M291.167 336.536C299.281 336.243 306.442 337.12 313.434 341.516C328.438 350.95 336.359 369.736 339.984 386.362C347.711 421.807 342.005 463.801 322.282 494.508C312.43 509.845 299.987 520.549 281.943 524.498C274.254 524.55 266.899 523.666 260.026 519.991C246.391 512.702 238.386 498.03 234.152 483.71C223.774 448.615 229.394 407.367 246.856 375.451C257.02 356.874 270.455 342.575 291.167 336.536Z"/>
	<path fill="#EBF3F6" d="M295.372 340.68C303.154 341.006 309.691 343.984 315.361 349.245C331.476 364.199 335.527 389.782 336.218 410.737C337.228 441.37 329.237 479.71 307.731 502.528C298.648 512.167 288.756 517.265 275.451 517.656Q274.277 517.543 273.113 517.352Q271.949 517.161 270.8 516.894Q269.652 516.627 268.523 516.285Q267.394 515.942 266.291 515.526Q265.187 515.11 264.114 514.622Q263.04 514.133 262.001 513.575Q260.962 513.017 259.962 512.392Q258.962 511.766 258.006 511.076C244.42 501.398 237.798 483.561 235.292 467.684C229.776 432.744 237.845 393.882 258.757 365.155C268.104 352.314 279.447 343.205 295.372 340.68Z"/>
	<path d="M304.654 401.577C307.264 401.311 309.414 401.327 311.889 402.318C317.431 404.537 320.867 409.298 323.074 414.651C329.184 429.472 328.944 448.528 322.605 463.223C319.111 471.32 314.489 477.134 306.102 480.418C303.718 480.664 301.725 480.504 299.46 479.633C293.459 477.324 289.738 472.118 287.374 466.364C281.535 452.15 282.217 432.934 288.179 418.866C291.613 410.764 296.355 404.946 304.654 401.577Z"/>
	<path fill="#EBF3F6" d="M303.909 408.549C307.204 409.304 309.461 410.882 311.31 413.761C314.626 418.925 314.896 426.342 313.537 432.225C312.216 437.945 309.659 441.299 304.74 444.289C303.772 444.329 304.064 444.367 303.006 444.171C300.448 443.696 298.073 441.759 296.776 439.55C293.818 434.511 293.787 426.225 295.192 420.651C296.575 415.166 299.031 411.386 303.909 408.549Z"/>
	<path d="M530.887 331.186C531.088 331.162 531.289 331.13 531.491 331.114C541.804 330.301 552.646 335.366 560.313 341.943C582.436 360.924 592.079 392.288 594.212 420.467C596.676 453.017 591.486 492.263 569.428 517.643C559.749 528.779 547.909 535.549 533.074 536.612C522.595 536.282 512.804 533.275 504.407 526.876C482.9 510.488 472.61 481.651 469.238 455.735C464.738 421.15 470.768 382.59 492.519 354.544C502.3 341.934 514.865 333.169 530.887 331.186Z"/>
	<path fill="#EBF3F6" d="M527.79 336.577C536.455 336.238 544.293 337.452 551.779 342.092C570.714 353.827 580.504 378.829 585.18 399.534C593.102 434.619 590.199 475.262 570.496 506.032C561.912 519.437 551.506 527.153 535.919 530.584C527.396 530.313 519.73 528.994 512.245 524.675C493.09 513.623 482.675 490.635 477.362 470.109C468.547 436.049 471.644 396.985 489.885 366.456C498.842 351.466 510.643 340.852 527.79 336.577Z"/>
	<path d="M528.06 398.619C530.436 399.121 532.648 399.717 534.796 400.882C543.304 405.496 547.802 414.78 550.3 423.713C555.051 440.696 554.661 460.961 545.721 476.567C541.858 483.309 536.679 487.654 529.124 489.714C525.631 489.443 522.589 488.551 519.594 486.679C511.127 481.383 506.545 470.256 504.402 460.9C500.737 444.9 502.012 424.934 510.96 410.764C515.158 404.115 520.352 400.303 528.06 398.619Z"/>
	<path fill="#EBF3F6" d="M532.302 411.953C533.357 411.958 534.448 411.948 535.493 412.107C538.477 412.562 541.175 415.079 542.728 417.535C546.435 423.397 546.822 432.148 545.101 438.791C543.809 443.775 541.499 447.308 537.034 449.877C536.363 449.95 535.683 450.045 535.005 449.987C532.37 449.761 529.832 448.037 528.207 446.032C524.405 441.34 523.08 433.128 523.731 427.244C524.453 420.731 527.196 415.942 532.302 411.953Z"/>
</svg>
