<?xml version="1.0" encoding="utf-8" ?>
<svg xmlns="http://www.w3.org/2000/svg" xmlns:xlink="http://www.w3.org/1999/xlink" width="1023" height="1023">
	<path d="M334.489 40.422C334.745 40.4989 335.002 40.572 335.256 40.6527C337.118 41.2433 338.608 42.1499 339.668 43.8405C342.254 47.9643 344.401 52.5571 346.713 56.8459L360.678 82.817L398.838 154.084L523.73 390.994C530.774 379.354 536.653 366.831 542.904 354.751L570.357 302.77L656.56 143.808L690.622 81.0742C695.974 71.192 700.91 60.9722 706.598 51.2878C708.092 48.744 711.196 43.0064 713.895 41.6601C715.018 41.0997 716.239 40.8742 717.44 41.3398C722.029 43.1191 725.79 51.5416 727.794 55.7101C740.703 82.5569 743.742 111.064 739.885 140.393C736.984 162.452 729.066 183.495 721.539 204.299Q711.139 232.913 700.378 261.393L649.19 397.379C640.188 421.261 630.72 445.029 622.26 469.107Q624.016 471.845 625.471 474.754C631.739 487.412 631.568 503.057 627.063 516.235C622.022 530.983 611.47 541.44 597.673 548.187L586.865 567.034C599.31 593.178 613.096 618.793 626.313 644.561C629.018 644.32 631.847 644.066 634.559 644.329C648.073 645.635 652.383 658.135 658.021 668.334Q661.812 675.199 666.775 681.271C679.101 696.281 695.83 704.837 714.915 707.686C721.83 708.719 728.821 708.95 735.763 709.711C770.106 713.477 803.477 734.14 824.764 760.931C847.026 788.951 855.869 825.571 851.815 860.898Q851.624 862.592 851.392 864.282Q851.16 865.971 850.886 867.654Q850.612 869.337 850.297 871.012Q849.981 872.688 849.625 874.356Q849.268 876.023 848.87 877.681Q848.472 879.339 848.034 880.987Q847.596 882.635 847.117 884.271Q846.637 885.908 846.118 887.532Q845.599 889.156 845.04 890.767Q844.481 892.377 843.882 893.974Q843.283 895.571 842.645 897.152Q842.007 898.733 841.331 900.298Q840.654 901.863 839.939 903.411Q839.223 904.959 838.47 906.489Q837.717 908.018 836.926 909.529Q836.136 911.04 835.308 912.531Q834.48 914.021 833.616 915.491Q832.752 916.961 831.851 918.409Q830.951 919.857 830.015 921.282Q829.08 922.708 828.109 924.11Q827.138 925.512 826.133 926.889Q825.129 928.267 824.09 929.619Q823.051 930.971 821.98 932.298Q820.908 933.624 819.804 934.923Q818.7 936.223 817.564 937.495Q816.428 938.766 815.262 940.01Q814.095 941.253 812.898 942.467Q811.7 943.681 810.474 944.866Q809.247 946.05 807.991 947.204Q806.736 948.357 805.452 949.48Q804.168 950.602 802.857 951.692Q801.546 952.782 800.209 953.84C772.287 975.872 737.354 984.367 702.373 980.258C673.569 977.031 643.751 960.688 623.99 939.855C613.734 929.042 603.941 916.487 597.613 902.977C592.692 892.47 589.642 881.151 586.103 870.13Q579.705 850.483 573.024 830.931L549.265 760.524C544.914 747.894 539.895 735.38 536.057 722.587C534.851 718.564 533.806 714.462 533.992 710.226C534.333 702.474 537.94 697.444 543.431 692.401C539.005 682.064 534.716 671.746 530.954 661.146C529.673 661.843 528.383 662.545 527.053 663.146C516.53 667.899 505.422 666.652 494.959 662.569C491.417 672.22 486.902 681.709 482.868 691.176C484.564 692.584 486.254 694.146 487.681 695.834C490.552 699.23 492.273 703.214 491.796 707.717C490.824 716.905 485.831 726.419 482.757 735.101L463.535 789.523L441.594 851.807C436.424 866.815 432.048 883.096 424.627 897.123C416.504 912.476 404.726 926.459 391.266 937.419C363.169 960.295 326.432 972.204 290.202 968.423C255.991 964.852 223.631 946.379 202.097 919.704C178.287 890.208 169.267 853.662 173.35 816.374C179.418 760.951 228.727 715.191 282.137 704.902C302.413 700.996 323.437 705.375 342.266 695.049C354.429 688.377 362.379 676.84 368.843 664.945C372.101 658.95 375.142 652.479 380.683 648.212C385.998 644.12 392.179 643.211 398.642 644.109C404.004 632.699 410.147 621.523 416.034 610.373Q430.884 582.129 446.532 554.319C442.909 553.897 439.207 553.309 435.676 552.388Q434.411 552.06 433.164 551.668Q431.917 551.277 430.692 550.823Q429.466 550.369 428.265 549.854Q427.064 549.339 425.891 548.764Q424.717 548.188 423.574 547.555Q422.431 546.921 421.321 546.231Q420.212 545.54 419.139 544.795Q418.065 544.049 417.031 543.25Q415.996 542.452 415.004 541.602Q414.011 540.752 413.062 539.853Q412.114 538.954 411.212 538.008Q410.309 537.063 409.456 536.073Q408.603 535.083 407.801 534.051Q406.999 533.019 406.25 531.948Q405.501 530.877 404.806 529.77Q404.112 528.663 403.475 527.522Q402.777 526.307 402.141 525.06Q401.505 523.812 400.932 522.534Q400.359 521.257 399.85 519.952Q399.341 518.647 398.898 517.318Q398.455 515.99 398.078 514.641Q397.702 513.292 397.393 511.926Q397.084 510.56 396.844 509.18Q396.604 507.801 396.432 506.411Q396.261 505.021 396.159 503.624Q396.057 502.227 396.025 500.827Q395.993 499.427 396.031 498.027Q396.069 496.627 396.176 495.23Q396.283 493.834 396.46 492.445Q396.637 491.055 396.883 489.677Q397.129 488.298 397.443 486.933Q397.757 485.568 398.139 484.221C402.396 468.874 412.522 458.199 426.141 450.528C417.528 429.296 408.079 408.397 399.048 387.34L349.628 271.478Q338.802 246.197 328.421 220.731C320.362 200.942 312.39 181.002 307.797 160.078C302.613 136.46 301.384 111.479 307.088 87.8378C311.016 71.5615 319.603 49.4915 334.489 40.422ZM627.921 929.613C634.393 931.423 640.417 937.979 646.151 941.603Q648.267 942.912 650.436 944.13Q652.605 945.348 654.823 946.474Q657.042 947.6 659.306 948.631Q661.57 949.662 663.875 950.596Q666.181 951.531 668.524 952.367Q670.867 953.203 673.243 953.94Q675.619 954.676 678.024 955.312Q680.429 955.948 682.859 956.481Q685.289 957.015 687.739 957.445Q690.189 957.876 692.655 958.202Q695.121 958.529 697.599 958.751Q700.077 958.974 702.562 959.091Q705.047 959.208 707.534 959.221Q710.022 959.233 712.508 959.141Q714.994 959.048 717.474 958.851Q719.954 958.653 722.423 958.351C755.119 954.431 787.019 938.347 807.469 912.17C832.094 880.649 839.647 839.586 829.859 801.018C828.669 796.327 827.341 791.46 825.573 786.952C823.532 781.746 820.428 776.747 819.769 771.116C819.748 770.939 819.732 770.762 819.714 770.585C806.141 746.822 775.416 728.472 749.592 721.4C736.65 717.855 723.353 717.904 710.196 715.867C687.889 712.414 664.789 698.143 653.349 678.39C649.422 671.609 645.06 656.294 637.117 653.831C629.923 651.601 620.224 658.764 614.079 662.264L570.199 687.365C563.241 691.294 554.255 695.062 548.186 700.218C545.714 702.318 543.331 706.193 542.84 709.425C542.344 712.683 544.15 717.909 545.105 721.002C548.901 733.287 553.573 745.346 557.746 757.512L581.957 828.93L595.86 870.545C598.86 879.821 601.396 889.403 605.267 898.361C608.774 906.475 617.355 919.428 623.579 925.912C624.905 927.294 626.248 928.656 627.921 929.613ZM400.246 655.119C394.419 660.723 390.754 667.245 386.713 674.174C378.473 688.304 369.905 701.693 355.645 710.44Q353.422 711.821 351.118 713.061Q348.814 714.301 346.437 715.395Q344.06 716.49 341.62 717.435Q339.18 718.379 336.686 719.17Q334.192 719.961 331.653 720.596Q329.115 721.231 326.542 721.706Q323.969 722.182 321.371 722.497Q318.773 722.811 316.161 722.964C304.823 723.615 294.089 723.391 282.921 726.026C228.249 738.925 186.51 790.551 185.608 846.838C185.536 851.326 187.009 861.36 185.265 865.004C189.32 881.741 195.629 899.024 206.992 912.279C208.385 913.903 209.826 915.83 211.558 917.097C219.448 919.774 226.22 925.276 233.479 929.273C249.772 938.245 269.393 943.374 287.763 945.366C318.661 948.715 347.669 939.601 371.734 920.063Q374.15 918.102 376.468 916.027Q378.786 913.951 381.001 911.766Q383.215 909.58 385.321 907.29Q387.427 904.999 389.42 902.609Q391.412 900.219 393.286 897.736Q395.16 895.252 396.911 892.68Q398.662 890.108 400.287 887.454Q401.911 884.801 403.405 882.071C411.553 867.067 417.216 846.629 423.417 830.377C430.597 811.56 438.449 792.997 445.877 774.277C452.689 757.108 459.083 739.686 466.46 722.757C469.613 715.522 475.43 704.783 476.203 697.075C468.979 691.298 458.735 687.783 450.529 683.4Q425.025 669.904 400.246 655.119Z"/>
	<path fill="#FEFEFE" d="M457.019 554.125L464.605 553.271C462.164 561.992 447.762 585.86 442.643 595.142C432.327 613.849 422.491 632.987 411.833 651.482C410.103 650.606 408.54 649.486 406.944 648.393C412.964 634.051 420.864 620.274 428.294 606.632L457.019 554.125Z"/>
	<path fill="#FEFEFE" d="M438.051 445.791C436.83 446.062 435.912 446.633 434.828 445.798C432.644 444.118 429.444 435.78 428.195 432.992C422.048 419.276 416.433 405.309 410.564 391.471L377.57 313.81C362.394 278.035 346.314 242.478 332.219 206.267C326.011 190.315 319.851 174.123 316.364 157.321C309.56 124.535 310.257 87.188 329.329 58.4601C330.484 56.7217 332.006 54.1289 334.166 53.6939L335.382 54.7137C335.361 54.8502 335.345 54.9874 335.32 55.1232C334.505 59.5511 330.933 63.9999 329.19 68.2298C322.846 83.6288 318.536 99.9825 318.032 116.686Q317.852 123.295 318.158 129.9Q318.463 136.505 319.252 143.069Q320.041 149.634 321.31 156.123Q322.578 162.612 324.319 168.99C333.129 200.977 349.498 233.065 362.331 263.788C379.734 305.455 395.548 347.744 412.876 389.427C420.771 408.418 430.296 426.788 438.051 445.791Z"/>
	<path fill="#FEFEFE" d="M494.832 464.355C499.483 454.886 504.984 445.664 510.022 436.384Q523.224 411.957 536.125 387.369Q596.024 273.025 658.217 159.914C668.255 141.505 678.754 123.263 688.449 104.678C696.455 89.3303 705.888 66.7488 716.524 53.8847C717.947 55.8088 719.033 57.9644 720.187 60.0565C699.909 95.3476 681.189 131.633 661.792 167.424L560.733 355.322L516.601 438.82C513.017 445.591 503.289 465.956 499.433 470.478C498.001 468.358 496.407 466.367 494.832 464.355Z"/>
	<path fill="#FEFEFE" d="M392.786 651.942C395.214 653.108 397.761 654.079 400.246 655.119C394.419 660.723 390.754 667.245 386.713 674.174C378.473 688.304 369.905 701.693 355.645 710.44Q353.422 711.821 351.118 713.061Q348.814 714.301 346.437 715.395Q344.06 716.49 341.62 717.435Q339.18 718.379 336.686 719.17Q334.192 719.961 331.653 720.596Q329.115 721.231 326.542 721.706Q323.969 722.182 321.371 722.497Q318.773 722.811 316.161 722.964C304.823 723.615 294.089 723.391 282.921 726.026C228.249 738.925 186.51 790.551 185.608 846.838C185.536 851.326 187.009 861.36 185.265 865.004Q184.685 862.798 184.189 860.572Q183.693 858.346 183.282 856.102Q182.872 853.859 182.547 851.601Q182.222 849.344 181.984 847.076Q181.745 844.807 181.594 842.531Q181.442 840.256 181.377 837.976Q181.312 835.696 181.334 833.415Q181.356 831.135 181.465 828.856Q181.574 826.578 181.77 824.306Q181.966 822.034 182.248 819.77Q182.531 817.507 182.899 815.256Q183.268 813.005 183.721 810.77Q184.175 808.535 184.714 806.319Q185.253 804.103 185.876 801.909Q186.499 799.715 187.205 797.546Q187.912 795.377 188.7 793.237C205.357 748.717 247.201 718.255 293.79 711.962C313.877 709.248 329.396 712.709 348.105 701.665C360.615 694.28 368.956 681.985 376.17 669.731C379.107 664.743 381.796 659.524 386.121 655.566C387.923 653.917 390.574 652.941 392.786 651.942Z"/>
	<path fill="#ED6111" d="M819.714 770.585C838.888 793.875 845.665 826.415 842.861 855.997C839.51 891.354 823.691 922.627 796.297 945.331Q795.17 946.252 794.02 947.146Q792.871 948.039 791.7 948.905Q790.529 949.77 789.338 950.607Q788.147 951.444 786.936 952.251Q785.724 953.059 784.494 953.837Q783.263 954.615 782.014 955.363Q780.766 956.112 779.499 956.829Q778.232 957.547 776.948 958.233Q775.665 958.92 774.365 959.576Q773.065 960.231 771.749 960.854Q770.434 961.478 769.103 962.07Q767.773 962.661 766.429 963.221Q765.085 963.78 763.728 964.306Q762.37 964.833 761 965.326Q759.631 965.82 758.25 966.28Q756.868 966.74 755.476 967.167Q754.084 967.593 752.682 967.986Q751.281 968.378 749.87 968.737Q748.458 969.096 747.039 969.42Q745.62 969.744 744.193 970.034Q742.767 970.324 741.333 970.579Q739.9 970.834 738.461 971.054Q737.022 971.275 735.578 971.46Q734.134 971.646 732.686 971.796Q731.238 971.946 729.786 972.062Q728.335 972.177 726.881 972.257Q725.428 972.337 723.973 972.382Q722.517 972.426 721.062 972.436Q719.606 972.445 718.15 972.42Q716.694 972.394 715.24 972.333Q713.785 972.272 712.333 972.176Q710.88 972.079 709.43 971.948C680.848 969.224 649.157 955.503 630.59 932.975C629.685 931.877 628.747 930.771 627.921 929.613C634.393 931.423 640.417 937.979 646.151 941.603Q648.267 942.912 650.436 944.13Q652.605 945.348 654.823 946.474Q657.042 947.6 659.306 948.631Q661.57 949.662 663.875 950.596Q666.181 951.531 668.524 952.367Q670.867 953.203 673.243 953.94Q675.619 954.676 678.024 955.312Q680.429 955.948 682.859 956.481Q685.289 957.015 687.739 957.445Q690.189 957.876 692.655 958.202Q695.121 958.529 697.599 958.751Q700.077 958.974 702.562 959.091Q705.047 959.208 707.534 959.221Q710.022 959.233 712.508 959.141Q714.994 959.048 717.474 958.851Q719.954 958.653 722.423 958.351C755.119 954.431 787.019 938.347 807.469 912.17C832.094 880.649 839.647 839.586 829.859 801.018C828.669 796.327 827.341 791.46 825.573 786.952C823.532 781.746 820.428 776.747 819.769 771.116C819.748 770.939 819.732 770.762 819.714 770.585Z"/>
	<path fill="#C4C4C4" d="M581.426 577.831C584.187 579.935 614.599 641.226 618.784 649.746L567.229 678.961L551.046 688.267Q544.24 672.048 537.998 655.604C542.152 646.423 547.938 637.467 552.873 628.66L581.426 577.831Z"/>
	<path fill="#ED6111" d="M476.203 697.075C479.071 699.621 482.276 701.981 482.527 706.133C482.688 708.801 481.786 711.513 481 714.03C468.968 752.546 454.199 790.412 440.57 828.389Q434.482 845.289 428.786 862.324C425.702 871.46 422.845 880.771 418.739 889.513C413.222 901.258 405.164 911.603 396.236 920.95C373.916 944.319 340.661 959.919 308.24 960.522C275.646 961.128 243.528 949.476 219.996 926.631C217.069 923.789 213.765 920.532 211.558 917.097C219.448 919.774 226.22 925.276 233.479 929.273C249.772 938.245 269.393 943.374 287.763 945.366C318.661 948.715 347.669 939.601 371.734 920.063Q374.15 918.102 376.468 916.027Q378.786 913.951 381.001 911.766Q383.215 909.58 385.321 907.29Q387.427 904.999 389.42 902.609Q391.412 900.219 393.286 897.736Q395.16 895.252 396.911 892.68Q398.662 890.108 400.287 887.454Q401.911 884.801 403.405 882.071C411.553 867.067 417.216 846.629 423.417 830.377C430.597 811.56 438.449 792.997 445.877 774.277C452.689 757.108 459.083 739.686 466.46 722.757C469.613 715.522 475.43 704.783 476.203 697.075Z"/>
	<path fill="#FEFEFE" d="M448.747 453.183C459.801 451.909 471.691 456.203 480.351 462.915Q481.26 463.616 482.133 464.361Q483.006 465.107 483.841 465.894Q484.676 466.682 485.471 467.51Q486.266 468.338 487.019 469.205Q487.772 470.071 488.481 470.974Q489.19 471.877 489.854 472.814Q490.517 473.75 491.133 474.719Q491.749 475.688 492.317 476.686Q492.884 477.684 493.401 478.708Q493.918 479.733 494.384 480.782Q494.85 481.832 495.263 482.903Q495.676 483.974 496.036 485.064Q496.395 486.154 496.7 487.261Q497.005 488.367 497.255 489.488Q497.505 490.608 497.699 491.74Q497.892 492.871 498.03 494.011C499.496 505.931 496.128 518.657 488.689 528.109C480.596 538.39 469.475 543.954 456.626 545.504C444.018 546.187 432.911 544.254 422.708 536.343Q421.828 535.664 420.983 534.943Q420.137 534.221 419.328 533.459Q418.52 532.697 417.75 531.895Q416.98 531.094 416.25 530.256Q415.521 529.417 414.833 528.544Q414.146 527.67 413.503 526.764Q412.86 525.858 412.262 524.921Q411.665 523.984 411.114 523.018Q410.563 522.053 410.061 521.061Q409.559 520.07 409.106 519.055Q408.654 518.04 408.252 517.004Q407.85 515.967 407.5 514.913Q407.15 513.858 406.852 512.787Q406.555 511.716 406.31 510.632Q406.066 509.548 405.876 508.453Q405.685 507.358 405.549 506.255C404.035 493.242 407.216 480.293 415.479 470.016C423.717 459.77 435.906 454.543 448.747 453.183Z"/>
	<path d="M457.994 472.58C463.61 472.065 468.716 472.643 473.831 475.107Q474.452 475.4 475.056 475.724Q475.661 476.049 476.248 476.404Q476.836 476.759 477.404 477.144Q477.972 477.529 478.519 477.942Q479.067 478.356 479.593 478.797Q480.118 479.238 480.62 479.706Q481.122 480.174 481.6 480.667Q482.077 481.16 482.529 481.677Q482.98 482.194 483.404 482.733Q483.828 483.273 484.224 483.833Q484.62 484.394 484.987 484.974Q485.353 485.554 485.689 486.152Q486.025 486.751 486.33 487.366Q486.635 487.98 486.908 488.61Q487.18 489.24 487.42 489.883Q487.66 490.526 487.867 491.18Q488.065 491.798 488.232 492.426Q488.399 493.053 488.534 493.688Q488.67 494.322 488.774 494.963Q488.879 495.604 488.951 496.249Q489.023 496.894 489.064 497.542Q489.104 498.19 489.113 498.839Q489.121 499.488 489.097 500.137Q489.073 500.785 489.018 501.432Q488.962 502.079 488.874 502.722Q488.787 503.365 488.667 504.003Q488.548 504.641 488.397 505.273Q488.246 505.904 488.065 506.527Q487.883 507.151 487.671 507.764Q487.458 508.377 487.216 508.98Q486.973 509.582 486.701 510.171Q486.43 510.761 486.129 511.336C482.305 518.754 476.22 522.251 468.565 524.604C462.274 525.494 455.928 525.179 450.208 522.078C444.161 518.8 439.664 512.74 437.716 506.197C435.641 499.225 436.436 491.262 440.089 484.938C444.183 477.853 450.45 474.703 457.994 472.58Z"/>
	<path fill="#FEFEFE" d="M456.352 478.03C457.744 478.042 459.142 478.044 460.494 478.415C462.324 478.917 464.05 479.955 464.884 481.723C465.765 483.592 465.448 485.772 464.693 487.623C463.106 491.513 460.561 493.127 456.876 494.742C455.159 494.718 453.33 494.781 451.679 494.252C449.919 493.689 448.302 492.572 447.554 490.829C446.855 489.201 447.093 487.292 447.732 485.686C449.379 481.551 452.528 479.769 456.352 478.03Z"/>
	<path fill="#FEFEFE" d="M569.502 447.721C583.474 447.82 596.515 452.504 606.523 462.498Q607.378 463.349 608.189 464.242Q609 465.135 609.766 466.067Q610.531 466.999 611.25 467.968Q611.968 468.937 612.638 469.94Q613.307 470.944 613.925 471.979Q614.544 473.015 615.11 474.08Q615.676 475.145 616.189 476.237Q616.701 477.329 617.159 478.445Q617.616 479.561 618.017 480.699Q618.419 481.836 618.763 482.992Q619.107 484.148 619.394 485.32Q619.68 486.492 619.907 487.676Q620.135 488.861 620.303 490.055Q620.472 491.25 620.58 492.451Q620.689 493.652 620.738 494.858Q620.786 496.063 620.775 497.269Q620.776 498.471 620.717 499.671Q620.659 500.871 620.54 502.067Q620.422 503.263 620.245 504.451Q620.067 505.64 619.831 506.818Q619.595 507.996 619.301 509.161Q619.006 510.326 618.654 511.475Q618.302 512.624 617.894 513.754Q617.485 514.884 617.021 515.993Q616.557 517.101 616.039 518.185Q615.52 519.269 614.948 520.326Q614.377 521.383 613.753 522.41Q613.13 523.437 612.456 524.432Q611.782 525.427 611.06 526.388Q610.338 527.348 609.569 528.271Q608.8 529.195 607.986 530.078Q607.172 530.963 606.315 531.805C598.559 539.487 586.312 545.501 575.262 545.508C562.505 545.595 551.236 542.748 541.275 534.434C531.195 526.02 524.342 513.927 523.237 500.769C522.144 487.753 525.489 474.832 534.073 464.816C543.255 454.103 555.585 448.745 569.502 447.721Z"/>
	<path d="M579.891 469.632C585.99 469.099 591.551 469.779 596.886 473.028C603.146 476.84 607.173 483.335 608.7 490.419Q608.841 491.099 608.948 491.786Q609.055 492.472 609.127 493.163Q609.199 493.854 609.237 494.548Q609.275 495.241 609.278 495.936Q609.281 496.631 609.249 497.325Q609.218 498.019 609.152 498.71Q609.085 499.402 608.985 500.089Q608.884 500.776 608.749 501.458Q608.614 502.139 608.445 502.813Q608.276 503.487 608.074 504.152Q607.872 504.816 607.637 505.47Q607.401 506.124 607.134 506.765Q606.866 507.406 606.567 508.033Q606.268 508.66 605.938 509.271Q605.607 509.882 605.247 510.476Q604.887 511.07 604.497 511.645C600.071 518.16 593.782 520.936 586.343 522.466C579.698 522.839 573.735 522.057 568.066 518.277C562.287 514.425 558.191 508.1 556.84 501.302Q556.703 500.623 556.601 499.939Q556.499 499.254 556.432 498.566Q556.364 497.877 556.332 497.185Q556.299 496.494 556.302 495.802Q556.305 495.11 556.342 494.419Q556.38 493.727 556.453 493.039Q556.525 492.351 556.632 491.667Q556.74 490.983 556.881 490.306Q557.023 489.628 557.199 488.959Q557.375 488.29 557.585 487.63Q557.794 486.97 558.037 486.322Q558.279 485.674 558.555 485.039Q558.83 484.404 559.137 483.783Q559.444 483.163 559.782 482.559Q560.12 481.955 560.488 481.369Q560.856 480.783 561.253 480.216C565.883 473.683 572.355 471.061 579.891 469.632Z"/>
	<path fill="#FEFEFE" d="M578.268 474.596C579.782 474.719 581.343 474.985 582.734 475.612C584.283 476.311 585.542 477.401 586.089 479.063C586.796 481.212 586.12 483.514 584.995 485.385C582.939 488.804 580.314 490.039 576.569 490.953C575.1 490.943 573.534 490.667 572.16 490.156C570.559 489.56 569.294 488.727 568.62 487.062C567.872 485.212 568.357 483.002 569.223 481.283C571.232 477.294 574.216 475.905 578.268 474.596Z"/>
	<path fill="#C4C4C4" d="M335.382 54.7137C341.543 69.255 350.833 84.2176 358.459 98.1646L397.172 169.893L519.304 401.275Q502.664 428.89 488.358 457.784C474.873 447.716 461.137 442.205 444.106 444.645Q441.05 445.068 438.051 445.791C430.296 426.788 420.771 408.418 412.876 389.427C395.548 347.744 379.734 305.455 362.331 263.788C349.498 233.065 333.129 200.977 324.319 168.99Q322.578 162.612 321.31 156.123Q320.041 149.634 319.252 143.069Q318.463 136.505 318.158 129.9Q317.852 123.295 318.032 116.686C318.536 99.9825 322.846 83.6288 329.19 68.2298C330.933 63.9999 334.505 59.5511 335.32 55.1232C335.345 54.9874 335.361 54.8502 335.382 54.7137Z"/>
	<path fill="#4CADBC" d="M720.187 60.0565C731.142 86.4982 734.251 110.945 730.538 139.252C726.806 167.702 715.387 194.623 705.54 221.369Q689.415 265.339 672.783 309.12L637.207 403.567C630.555 421.354 624.369 439.515 617.089 457.048Q616.436 458.598 615.723 460.122C605.412 447.724 592.936 440.252 576.68 438.764Q575.281 438.636 573.878 438.576Q572.474 438.517 571.07 438.526Q569.665 438.535 568.263 438.613Q566.86 438.691 565.464 438.838Q564.067 438.984 562.678 439.199Q561.29 439.413 559.914 439.696Q558.538 439.978 557.178 440.327Q555.817 440.677 554.476 441.092Q553.134 441.507 551.814 441.988Q550.494 442.469 549.199 443.013Q547.905 443.558 546.638 444.165Q545.372 444.773 544.136 445.441Q542.901 446.11 541.7 446.838Q540.499 447.566 539.335 448.352Q538.171 449.139 537.047 449.981Q535.923 450.823 534.841 451.719C522.67 461.86 515.492 475.591 514.243 491.335Q514.131 492.812 514.092 494.292Q514.054 495.773 514.088 497.253Q514.122 498.734 514.228 500.211Q514.335 501.688 514.514 503.159Q514.693 504.629 514.945 506.088Q515.196 507.548 515.519 508.993Q515.841 510.439 516.235 511.866Q516.628 513.294 517.091 514.701Q517.555 516.108 518.086 517.49Q518.618 518.872 519.217 520.227Q519.816 521.581 520.481 522.904Q521.146 524.228 521.875 525.517Q522.604 526.806 523.396 528.058Q524.188 529.309 525.04 530.521Q525.892 531.732 526.803 532.9Q527.714 534.067 528.681 535.189Q529.593 536.233 530.555 537.232Q531.517 538.23 532.527 539.18Q533.537 540.13 534.592 541.029Q535.647 541.929 536.745 542.775Q537.844 543.621 538.982 544.413Q540.12 545.204 541.296 545.939Q542.472 546.674 543.683 547.35Q544.893 548.026 546.135 548.641Q547.378 549.257 548.649 549.811Q549.92 550.365 551.216 550.856Q552.513 551.347 553.832 551.774Q555.151 552.201 556.49 552.562Q557.828 552.924 559.183 553.219Q560.537 553.515 561.905 553.743Q563.272 553.971 564.65 554.133Q566.027 554.294 567.41 554.387C573.063 554.786 578.83 554.368 584.419 553.472C573.979 573.322 562.605 592.663 551.76 612.293C546.169 622.413 536.582 641.991 529.568 650.596C527.383 653.276 524.517 655.014 521.221 656.01C517.489 657.138 513.482 657.336 509.622 656.881C505.994 656.452 492.317 651.827 490.328 653.168C489.552 653.691 488.444 655.858 487.955 656.739C482.649 666.289 479.541 677.304 474.899 687.226C467.659 682.461 459.756 678.54 452.127 674.434C438.42 667.056 424.954 659.891 411.833 651.482C422.491 632.987 432.327 613.849 442.643 595.142C447.762 585.86 462.164 561.992 464.605 553.271C470.184 551.191 475.986 549.105 481.173 546.156Q482.243 545.537 483.282 544.867Q484.32 544.196 485.325 543.476Q486.329 542.755 487.297 541.987Q488.265 541.218 489.195 540.403Q490.124 539.588 491.012 538.728Q491.901 537.868 492.746 536.966Q493.591 536.064 494.391 535.122Q495.191 534.18 495.944 533.199Q496.697 532.219 497.401 531.203Q498.105 530.187 498.759 529.138Q499.412 528.088 500.014 527.008Q500.615 525.928 501.163 524.82Q501.711 523.712 502.204 522.578Q502.697 521.445 503.134 520.289Q503.57 519.132 503.95 517.956Q504.33 516.78 504.652 515.586C508.945 499.97 507.481 484.568 499.433 470.478C503.289 465.956 513.017 445.591 516.601 438.82L560.733 355.322L661.792 167.424C681.189 131.633 699.909 95.3476 720.187 60.0565Z"/>
	<path d="M531.094 559.557C535.008 559.321 539.33 559.723 542.687 561.959C545.269 563.679 546.86 566.283 547.436 569.31C548.442 574.59 546.245 579.989 543.219 584.232C537.666 592.016 528.44 597.047 519.091 598.549C506.895 600.509 496.883 596.94 487.1 589.82Q485.049 587.785 483.394 585.415C480.332 580.989 477.844 575.482 479.021 569.987C479.789 566.403 482.01 563.559 485.142 561.701C487.931 560.047 491.534 559.114 494.713 560.111C500.357 561.882 501.637 569.595 504.227 574.216L504.568 574.813C505.796 575.566 507.046 576.413 508.432 576.839C512.505 578.091 516.292 576.861 519.922 574.978C524.26 569.165 523.769 562.861 531.094 559.557Z"/>
	<path fill="#FC8725" d="M400.246 655.119Q425.025 669.904 450.529 683.4C458.735 687.783 468.979 691.298 476.203 697.075C475.43 704.783 469.613 715.522 466.46 722.757C459.083 739.686 452.689 757.108 445.877 774.277C438.449 792.997 430.597 811.56 423.417 830.377C417.216 846.629 411.553 867.067 403.405 882.071Q401.911 884.801 400.287 887.454Q398.662 890.108 396.911 892.68Q395.16 895.252 393.286 897.736Q391.412 900.219 389.42 902.609Q387.427 904.999 385.321 907.29Q383.215 909.58 381.001 911.766Q378.786 913.951 376.468 916.027Q374.15 918.102 371.734 920.063C347.669 939.601 318.661 948.715 287.763 945.366C269.393 943.374 249.772 938.245 233.479 929.273C226.22 925.276 219.448 919.774 211.558 917.097C209.826 915.83 208.385 913.903 206.992 912.279C195.629 899.024 189.32 881.741 185.265 865.004C187.009 861.36 185.536 851.326 185.608 846.838C186.51 790.551 228.249 738.925 282.921 726.026C294.089 723.391 304.823 723.615 316.161 722.964Q318.773 722.811 321.371 722.497Q323.969 722.182 326.542 721.706Q329.115 721.231 331.653 720.596Q334.192 719.961 336.686 719.17Q339.18 718.379 341.62 717.435Q344.06 716.49 346.437 715.395Q348.814 714.301 351.118 713.061Q353.422 711.821 355.645 710.44C369.905 701.693 378.473 688.304 386.713 674.174C390.754 667.245 394.419 660.723 400.246 655.119ZM292.35 924.955C315.703 926.511 338.856 922.719 358.005 908.503C379.025 892.899 390.799 870.773 394.671 845.078C396.782 821.783 390.413 797.93 375.392 779.806Q374.698 778.973 373.983 778.157Q373.268 777.342 372.534 776.544Q371.799 775.746 371.045 774.966Q370.291 774.187 369.518 773.426Q368.745 772.665 367.954 771.924Q367.162 771.182 366.353 770.461Q365.544 769.739 364.717 769.037Q363.89 768.335 363.046 767.654Q362.202 766.973 361.341 766.313Q360.481 765.653 359.605 765.014Q358.728 764.376 357.836 763.759Q356.944 763.142 356.038 762.547Q355.131 761.952 354.21 761.38Q353.288 760.807 352.353 760.258Q351.418 759.708 350.47 759.182Q349.522 758.655 348.561 758.153Q347.6 757.65 346.627 757.171Q345.654 756.692 344.67 756.237Q343.686 755.782 342.69 755.351Q341.695 754.92 340.689 754.514Q339.684 754.108 338.668 753.727Q337.653 753.346 336.629 752.99Q335.604 752.634 334.571 752.303Q333.538 751.973 332.498 751.667Q331.457 751.362 330.409 751.083Q329.361 750.803 328.307 750.55Q327.252 750.296 326.192 750.069Q325.132 749.841 324.066 749.64Q323 749.438 321.93 749.263Q320.86 749.088 319.786 748.939Q318.711 748.79 317.634 748.668Q316.556 748.546 315.476 748.45C291.269 746.227 266.037 753.377 247.323 769.075Q246.492 769.771 245.678 770.487Q244.864 771.203 244.068 771.939Q243.272 772.675 242.494 773.43Q241.717 774.185 240.958 774.959Q240.199 775.733 239.459 776.525Q238.719 777.317 237.999 778.128Q237.279 778.938 236.579 779.766Q235.879 780.593 235.2 781.438Q234.52 782.283 233.862 783.144Q233.203 784.005 232.566 784.882Q231.929 785.759 231.314 786.651Q230.698 787.544 230.105 788.451Q229.512 789.358 228.941 790.28Q228.37 791.201 227.822 792.136Q227.274 793.072 226.749 794.02Q226.224 794.968 225.722 795.929Q225.221 796.89 224.743 797.863Q224.265 798.836 223.812 799.821Q223.358 800.805 222.928 801.801Q222.499 802.796 222.094 803.802Q221.689 804.807 221.309 805.822Q220.929 806.838 220.574 807.862Q220.219 808.886 219.889 809.919Q219.56 810.951 219.255 811.992Q218.951 813.032 218.672 814.079Q218.394 815.127 218.141 816.181Q217.888 817.235 217.661 818.295Q217.434 819.355 217.233 820.42Q217.032 821.486 216.858 822.556Q216.683 823.625 216.535 824.699Q216.386 825.773 216.264 826.85Q216.142 827.927 216.047 829.007C214.018 852.108 221.2 876.189 236.19 893.982C246.573 906.306 261.443 917.482 277.167 921.747C281.673 922.969 288.348 923.17 292.35 924.955Z"/>
	<path fill="#FEFEFE" d="M394.671 845.078L395.316 845.478C397.694 859.477 388.242 880.658 380.281 891.816Q379.681 892.672 379.061 893.514Q378.44 894.355 377.798 895.181Q377.157 896.006 376.495 896.816Q375.833 897.625 375.151 898.418Q374.469 899.211 373.767 899.986Q373.066 900.761 372.345 901.519Q371.625 902.277 370.885 903.016Q370.146 903.756 369.389 904.477Q368.631 905.198 367.856 905.899Q367.081 906.601 366.289 907.283Q365.496 907.965 364.687 908.628Q363.878 909.29 363.053 909.932Q362.227 910.574 361.386 911.195Q360.545 911.816 359.689 912.416Q358.832 913.016 357.961 913.595Q357.09 914.173 356.205 914.73Q355.32 915.286 354.421 915.821Q353.522 916.355 352.611 916.867Q351.699 917.379 350.775 917.867Q349.85 918.356 348.914 918.822Q347.978 919.288 347.031 919.73Q346.083 920.172 345.125 920.591Q344.167 921.009 343.198 921.404Q342.23 921.798 341.252 922.169Q340.274 922.539 339.287 922.885Q338.301 923.23 337.306 923.552Q336.31 923.873 335.308 924.169Q334.305 924.465 333.295 924.736Q332.285 925.007 331.269 925.253Q330.253 925.499 329.23 925.719Q328.208 925.94 327.181 926.135Q326.154 926.33 325.122 926.499C317.854 927.675 298.5 929.234 292.35 924.955C315.703 926.511 338.856 922.719 358.005 908.503C379.025 892.899 390.799 870.773 394.671 845.078Z"/>
	<path d="M292.35 924.955C288.348 923.17 281.673 922.969 277.167 921.747C261.443 917.482 246.573 906.306 236.19 893.982C221.2 876.189 214.018 852.108 216.047 829.007Q216.142 827.927 216.264 826.85Q216.386 825.773 216.535 824.699Q216.683 823.625 216.858 822.556Q217.032 821.486 217.233 820.42Q217.434 819.355 217.661 818.295Q217.888 817.235 218.141 816.181Q218.394 815.127 218.672 814.079Q218.951 813.032 219.255 811.991Q219.56 810.951 219.889 809.918Q220.219 808.886 220.574 807.862Q220.929 806.837 221.309 805.822Q221.689 804.807 222.094 803.802Q222.499 802.796 222.928 801.801Q223.358 800.805 223.812 799.821Q224.265 798.836 224.743 797.863Q225.221 796.89 225.722 795.929Q226.224 794.968 226.749 794.02Q227.274 793.072 227.822 792.136Q228.37 791.201 228.941 790.28Q229.512 789.358 230.105 788.451Q230.698 787.544 231.314 786.651Q231.929 785.759 232.566 784.882Q233.203 784.005 233.862 783.144Q234.52 782.283 235.2 781.438Q235.879 780.593 236.579 779.766Q237.279 778.938 237.999 778.128Q238.719 777.317 239.459 776.525Q240.199 775.733 240.958 774.959Q241.717 774.185 242.494 773.43Q243.272 772.675 244.068 771.939Q244.864 771.203 245.678 770.487Q246.492 769.771 247.323 769.075C266.037 753.377 291.269 746.227 315.476 748.45Q316.556 748.546 317.634 748.668Q318.711 748.79 319.786 748.939Q320.86 749.088 321.93 749.263Q323 749.438 324.066 749.64Q325.132 749.841 326.192 750.069Q327.252 750.296 328.307 750.55Q329.361 750.803 330.409 751.083Q331.457 751.362 332.498 751.668Q333.538 751.973 334.571 752.303Q335.604 752.634 336.629 752.99Q337.653 753.346 338.668 753.727Q339.684 754.108 340.689 754.514Q341.695 754.92 342.69 755.351Q343.686 755.782 344.67 756.237Q345.654 756.692 346.627 757.171Q347.6 757.65 348.561 758.153Q349.522 758.655 350.47 759.182Q351.419 759.708 352.353 760.258Q353.288 760.807 354.21 761.38Q355.131 761.952 356.038 762.547Q356.944 763.142 357.836 763.759Q358.728 764.376 359.605 765.014Q360.481 765.653 361.341 766.313Q362.202 766.973 363.046 767.654Q363.89 768.336 364.717 769.037Q365.544 769.739 366.353 770.461Q367.162 771.182 367.954 771.924Q368.745 772.665 369.518 773.426Q370.291 774.187 371.045 774.966Q371.799 775.746 372.534 776.544Q373.268 777.342 373.983 778.157Q374.698 778.973 375.392 779.806C390.413 797.93 396.782 821.783 394.671 845.078C390.799 870.773 379.025 892.899 358.005 908.503C338.856 922.719 315.703 926.511 292.35 924.955ZM302.814 756.717C279.395 758.835 258.437 766.657 243.034 785.165Q242.398 785.94 241.782 786.731Q241.166 787.522 240.568 788.327Q239.971 789.132 239.394 789.952Q238.817 790.772 238.26 791.605Q237.703 792.439 237.166 793.286Q236.63 794.133 236.114 794.992Q235.598 795.852 235.104 796.724Q234.609 797.596 234.136 798.48Q233.662 799.364 233.211 800.259Q232.759 801.154 232.33 802.06Q231.9 802.965 231.493 803.881Q231.085 804.797 230.7 805.723Q230.315 806.649 229.953 807.584Q229.591 808.518 229.251 809.462Q228.912 810.405 228.596 811.356Q228.279 812.308 227.986 813.266Q227.693 814.225 227.424 815.191Q227.154 816.157 226.909 817.128Q226.663 818.1 226.44 819.078Q226.218 820.056 226.02 821.038Q225.822 822.021 225.648 823.008Q225.473 823.996 225.323 824.987Q225.173 825.978 225.047 826.973Q224.921 827.967 224.82 828.965Q224.718 829.962 224.641 830.962Q224.563 831.961 224.51 832.962Q224.458 833.964 224.429 834.966Q224.401 835.968 224.397 836.97Q224.393 837.973 224.413 838.975Q224.433 839.978 224.478 840.979Q224.523 841.981 224.592 842.981Q224.661 843.981 224.755 844.979Q224.842 845.949 224.953 846.917Q225.063 847.885 225.198 848.849Q225.333 849.814 225.491 850.775Q225.65 851.737 225.832 852.693Q226.014 853.65 226.22 854.602Q226.425 855.555 226.654 856.501Q226.884 857.448 227.136 858.389Q227.389 859.33 227.664 860.264Q227.94 861.198 228.239 862.125Q228.537 863.053 228.859 863.972Q229.18 864.892 229.524 865.803Q229.868 866.714 230.235 867.617Q230.601 868.519 230.99 869.413Q231.378 870.306 231.789 871.189Q232.199 872.072 232.632 872.945Q233.064 873.818 233.518 874.68Q233.971 875.542 234.446 876.393Q234.921 877.243 235.417 878.082Q235.912 878.92 236.429 879.746Q236.945 880.572 237.482 881.385Q238.018 882.198 238.574 882.998Q239.131 883.797 239.707 884.583Q240.283 885.368 240.878 886.14Q241.473 886.911 242.087 887.667Q242.702 888.423 243.334 889.164Q243.967 889.904 244.617 890.629Q245.268 891.354 245.936 892.063Q246.605 892.771 247.291 893.463Q247.976 894.155 248.679 894.83Q249.381 895.505 250.1 896.162Q250.819 896.819 251.554 897.458Q252.289 898.097 253.04 898.718C267.368 910.581 288.154 918.599 306.954 917.333C307.344 917.307 307.731 917.244 308.118 917.192C329.762 915.791 350.986 906.552 365.406 890.095C379.704 873.776 387.769 852.346 386.331 830.548C384.98 810.071 376.361 790.506 360.74 776.921C345.406 763.585 323.839 755.207 303.353 756.674L302.814 756.717Z"/>
	<path fill="#FC8725" d="M627.921 929.613C626.248 928.656 624.905 927.294 623.579 925.912C617.355 919.428 608.774 906.475 605.267 898.361C601.396 889.403 598.86 879.821 595.86 870.545L581.957 828.93L557.746 757.512C553.573 745.346 548.901 733.287 545.105 721.002C544.15 717.909 542.344 712.683 542.84 709.425C543.331 706.193 545.714 702.318 548.186 700.218C554.255 695.062 563.241 691.294 570.199 687.365L614.079 662.264C620.224 658.764 629.923 651.601 637.117 653.831C645.06 656.294 649.422 671.609 653.349 678.39C664.789 698.143 687.889 712.414 710.196 715.867C723.353 717.904 736.65 717.855 749.592 721.4C775.416 728.472 806.141 746.822 819.714 770.585C819.732 770.762 819.748 770.939 819.769 771.116C820.428 776.747 823.532 781.746 825.573 786.952C827.341 791.46 828.669 796.327 829.859 801.018C839.647 839.586 832.094 880.649 807.469 912.17C787.019 938.347 755.119 954.431 722.423 958.351Q719.954 958.653 717.474 958.851Q714.994 959.048 712.508 959.141Q710.022 959.233 707.534 959.221Q705.047 959.208 702.562 959.091Q700.077 958.974 697.599 958.751Q695.121 958.529 692.655 958.202Q690.189 957.876 687.739 957.445Q685.289 957.015 682.859 956.481Q680.429 955.948 678.024 955.312Q675.619 954.676 673.243 953.94Q670.867 953.203 668.524 952.367Q666.181 951.531 663.875 950.596Q661.57 949.662 659.306 948.631Q657.042 947.6 654.823 946.474Q652.605 945.348 650.436 944.13Q648.267 942.912 646.151 941.603C640.417 937.979 634.393 931.423 627.921 929.613ZM713.704 759.695C688.148 762.542 665.96 772.475 649.651 792.925Q648.972 793.781 648.313 794.653Q647.655 795.526 647.019 796.414Q646.382 797.302 645.767 798.206Q645.153 799.109 644.561 800.028Q643.969 800.947 643.399 801.879Q642.83 802.812 642.284 803.759Q641.737 804.705 641.214 805.665Q640.692 806.624 640.193 807.597Q639.693 808.569 639.219 809.553Q638.744 810.537 638.293 811.533Q637.842 812.528 637.416 813.535Q636.99 814.541 636.589 815.557Q636.188 816.574 635.811 817.6Q635.435 818.626 635.085 819.661Q634.734 820.696 634.409 821.739Q634.083 822.783 633.784 823.834Q633.485 824.885 633.211 825.943Q632.938 827.001 632.69 828.065Q632.443 829.13 632.222 830.2Q632 831.27 631.806 832.346Q631.611 833.421 631.443 834.501Q631.274 835.58 631.133 836.664Q630.991 837.748 630.876 838.834Q630.761 839.921 630.673 841.01Q630.584 842.1 630.523 843.191Q630.461 844.282 630.427 845.374Q630.392 846.467 630.384 847.559Q630.377 848.652 630.396 849.745Q630.415 850.837 630.461 851.929Q630.507 853.021 630.58 854.112Q630.653 855.202 630.752 856.29Q630.852 857.379 630.978 858.464Q631.109 859.59 631.267 860.712Q631.426 861.835 631.612 862.953Q631.799 864.071 632.013 865.184Q632.227 866.297 632.469 867.404Q632.711 868.512 632.98 869.613Q633.249 870.714 633.545 871.808Q633.842 872.902 634.165 873.988Q634.489 875.075 634.839 876.153Q635.19 877.231 635.567 878.3Q635.944 879.369 636.347 880.428Q636.751 881.487 637.18 882.536Q637.61 883.585 638.065 884.623Q638.521 885.661 639.002 886.687Q639.483 887.714 639.99 888.728Q640.496 889.742 641.028 890.743Q641.559 891.744 642.116 892.732Q642.672 893.719 643.252 894.693Q643.833 895.666 644.438 896.625Q645.042 897.584 645.67 898.527Q646.299 899.471 646.95 900.399Q647.602 901.326 648.276 902.237Q648.95 903.148 649.647 904.043Q650.343 904.937 651.062 905.813Q651.781 906.69 652.521 907.548Q653.261 908.407 654.022 909.246Q654.784 910.086 655.566 910.907Q656.348 911.728 657.15 912.529Q657.952 913.329 658.774 914.11Q659.595 914.891 660.436 915.651Q661.277 916.411 662.136 917.15Q662.996 917.889 663.873 918.607Q664.751 919.324 665.646 920.02C684.655 934.756 705.596 938.828 729.125 938.501C755.829 934.19 777.576 924.221 793.818 901.788Q794.458 900.897 795.077 899.991Q795.695 899.084 796.292 898.163Q796.888 897.242 797.461 896.306Q798.035 895.371 798.585 894.422Q799.135 893.472 799.663 892.51Q800.19 891.547 800.693 890.573Q801.197 889.597 801.676 888.61Q802.155 887.623 802.61 886.625Q803.066 885.627 803.496 884.617Q803.927 883.608 804.333 882.589Q804.738 881.569 805.119 880.54Q805.5 879.511 805.855 878.473Q806.211 877.435 806.541 876.388Q806.871 875.342 807.175 874.287Q807.48 873.233 807.758 872.172Q808.037 871.11 808.289 870.043Q808.542 868.975 808.768 867.901Q808.994 866.827 809.194 865.748Q809.394 864.67 809.568 863.586Q809.741 862.503 809.888 861.415Q810.035 860.328 810.156 859.237Q810.276 858.146 810.37 857.053Q810.463 855.96 810.53 854.865Q810.597 853.769 810.637 852.673Q810.678 851.576 810.691 850.479Q810.704 849.382 810.691 848.285Q810.677 847.188 810.637 846.091Q810.597 844.994 810.53 843.899Q810.463 842.804 810.369 841.711Q810.275 840.617 810.154 839.527Q810.034 838.436 809.887 837.349Q809.74 836.261 809.566 835.178Q809.376 834.054 809.158 832.935Q808.94 831.817 808.694 830.704Q808.448 829.591 808.175 828.484Q807.902 827.378 807.601 826.278Q807.3 825.179 806.972 824.088Q806.644 822.996 806.289 821.913Q805.934 820.83 805.552 819.756Q805.17 818.682 804.762 817.618Q804.354 816.554 803.919 815.5Q803.484 814.447 803.023 813.404Q802.563 812.362 802.076 811.331Q801.59 810.3 801.078 809.282Q800.566 808.264 800.029 807.258Q799.491 806.253 798.929 805.262Q798.368 804.27 797.781 803.293Q797.195 802.315 796.584 801.353Q795.974 800.39 795.339 799.443Q794.705 798.496 794.048 797.565Q793.39 796.635 792.709 795.72Q792.029 794.806 791.326 793.909Q790.623 793.012 789.898 792.132Q789.173 791.253 788.426 790.392Q787.679 789.531 786.911 788.689Q786.143 787.846 785.355 787.024Q784.566 786.201 783.757 785.398Q782.948 784.595 782.12 783.812Q781.291 783.029 780.444 782.267Q779.596 781.506 778.73 780.765Q777.863 780.025 776.979 779.306Q776.094 778.587 775.192 777.89Q774.29 777.194 773.371 776.52Q772.452 775.846 771.516 775.195C756.114 764.252 732.737 756.504 713.704 759.695Z"/>
	<path d="M713.704 759.695C732.737 756.504 756.114 764.252 771.516 775.195Q772.452 775.846 773.371 776.52Q774.29 777.194 775.192 777.89Q776.094 778.587 776.979 779.306Q777.863 780.025 778.73 780.765Q779.596 781.506 780.444 782.267Q781.291 783.029 782.12 783.812Q782.948 784.595 783.757 785.398Q784.566 786.201 785.355 787.024Q786.143 787.847 786.911 788.689Q787.679 789.531 788.426 790.392Q789.173 791.253 789.898 792.132Q790.623 793.012 791.326 793.909Q792.029 794.806 792.709 795.72Q793.39 796.635 794.048 797.565Q794.705 798.496 795.339 799.443Q795.974 800.39 796.584 801.353Q797.195 802.315 797.781 803.293Q798.368 804.27 798.93 805.261Q799.492 806.253 800.029 807.258Q800.566 808.264 801.078 809.282Q801.59 810.3 802.076 811.331Q802.563 812.362 803.023 813.404Q803.484 814.447 803.919 815.5Q804.354 816.554 804.762 817.618Q805.17 818.682 805.552 819.756Q805.934 820.83 806.289 821.913Q806.644 822.996 806.972 824.088Q807.3 825.179 807.601 826.278Q807.902 827.378 808.175 828.484Q808.448 829.591 808.694 830.704Q808.94 831.817 809.158 832.935Q809.376 834.054 809.566 835.178Q809.74 836.261 809.887 837.349Q810.034 838.436 810.154 839.527Q810.275 840.617 810.369 841.711Q810.463 842.804 810.53 843.899Q810.597 844.994 810.637 846.091Q810.677 847.188 810.691 848.285Q810.704 849.382 810.691 850.479Q810.678 851.576 810.637 852.673Q810.597 853.769 810.53 854.865Q810.463 855.96 810.37 857.053Q810.276 858.146 810.156 859.237Q810.035 860.328 809.888 861.415Q809.741 862.503 809.568 863.586Q809.394 864.67 809.194 865.748Q808.994 866.827 808.768 867.901Q808.542 868.975 808.289 870.043Q808.037 871.11 807.758 872.172Q807.48 873.233 807.175 874.287Q806.871 875.342 806.541 876.388Q806.211 877.435 805.855 878.473Q805.5 879.511 805.119 880.54Q804.738 881.569 804.333 882.589Q803.927 883.608 803.496 884.617Q803.066 885.627 802.61 886.625Q802.155 887.623 801.676 888.61Q801.197 889.597 800.693 890.573Q800.19 891.547 799.663 892.51Q799.135 893.472 798.585 894.422Q798.035 895.371 797.461 896.306Q796.888 897.242 796.292 898.163Q795.695 899.084 795.077 899.991Q794.458 900.897 793.818 901.788C777.576 924.221 755.829 934.19 729.125 938.501C705.596 938.828 684.655 934.756 665.646 920.02Q664.751 919.324 663.873 918.607Q662.996 917.889 662.136 917.15Q661.277 916.411 660.436 915.651Q659.595 914.891 658.774 914.11Q657.952 913.329 657.15 912.529Q656.348 911.728 655.566 910.907Q654.784 910.086 654.022 909.246Q653.261 908.407 652.521 907.548Q651.781 906.69 651.062 905.813Q650.343 904.937 649.647 904.043Q648.95 903.148 648.276 902.237Q647.601 901.326 646.95 900.399Q646.299 899.471 645.67 898.527Q645.042 897.584 644.438 896.625Q643.833 895.666 643.252 894.693Q642.672 893.719 642.116 892.732Q641.559 891.744 641.028 890.743Q640.496 889.742 639.99 888.728Q639.483 887.714 639.002 886.687Q638.521 885.661 638.065 884.623Q637.61 883.585 637.18 882.536Q636.751 881.487 636.347 880.428Q635.944 879.369 635.567 878.3Q635.19 877.231 634.839 876.153Q634.489 875.075 634.165 873.988Q633.842 872.902 633.545 871.808Q633.249 870.714 632.98 869.613Q632.711 868.512 632.469 867.404Q632.227 866.297 632.013 865.184Q631.799 864.071 631.612 862.953Q631.426 861.835 631.267 860.712Q631.109 859.59 630.978 858.464Q630.852 857.379 630.752 856.29Q630.653 855.202 630.58 854.112Q630.507 853.021 630.461 851.929Q630.415 850.837 630.396 849.745Q630.377 848.652 630.384 847.559Q630.392 846.467 630.427 845.374Q630.461 844.282 630.523 843.191Q630.584 842.1 630.673 841.01Q630.761 839.921 630.876 838.834Q630.991 837.748 631.133 836.664Q631.274 835.581 631.443 834.501Q631.611 833.421 631.806 832.346Q632 831.27 632.222 830.2Q632.443 829.13 632.69 828.065Q632.938 827.001 633.211 825.943Q633.485 824.885 633.784 823.834Q634.083 822.783 634.409 821.74Q634.734 820.696 635.085 819.661Q635.435 818.626 635.812 817.6Q636.188 816.574 636.589 815.557Q636.99 814.541 637.416 813.535Q637.842 812.528 638.293 811.533Q638.744 810.537 639.219 809.553Q639.693 808.569 640.193 807.597Q640.692 806.624 641.214 805.665Q641.737 804.705 642.284 803.759Q642.83 802.812 643.399 801.879Q643.969 800.947 644.561 800.028Q645.153 799.11 645.767 798.206Q646.382 797.302 647.019 796.414Q647.655 795.526 648.313 794.653Q648.972 793.781 649.651 792.925C665.96 772.475 688.148 762.542 713.704 759.695ZM715.337 768.289C692.874 770.356 672.14 779.993 657.643 797.551Q657.021 798.315 656.419 799.094Q655.816 799.872 655.233 800.666Q654.65 801.459 654.086 802.267Q653.522 803.074 652.979 803.896Q652.435 804.717 651.912 805.551Q651.389 806.385 650.886 807.232Q650.384 808.079 649.902 808.938Q649.421 809.797 648.96 810.667Q648.5 811.538 648.061 812.42Q647.623 813.301 647.206 814.193Q646.789 815.086 646.394 815.988Q645.999 816.89 645.627 817.801Q645.254 818.713 644.904 819.633Q644.554 820.554 644.227 821.483Q643.9 822.411 643.595 823.348Q643.291 824.284 643.01 825.228Q642.728 826.172 642.471 827.122Q642.213 828.073 641.978 829.029Q641.744 829.986 641.533 830.948Q641.322 831.909 641.135 832.876Q640.948 833.843 640.784 834.814Q640.621 835.785 640.482 836.76Q640.342 837.735 640.227 838.713Q640.112 839.691 640.02 840.671Q639.929 841.652 639.862 842.634Q639.795 843.617 639.752 844.601Q639.709 845.584 639.69 846.569Q639.672 847.554 639.677 848.538Q639.682 849.523 639.712 850.507Q639.742 851.492 639.796 852.475Q639.85 853.458 639.928 854.44Q640.006 855.422 640.108 856.401C642.311 877.856 652.551 898.432 669.496 912.003C684.584 924.086 706.332 931.618 725.737 929.621C746.266 928.536 766.978 919.114 780.747 903.749C795.677 887.087 802.944 866.13 801.605 843.795Q801.538 842.799 801.447 841.805Q801.355 840.81 801.24 839.819Q801.124 838.827 800.984 837.838Q800.844 836.85 800.679 835.865Q800.515 834.88 800.327 833.9Q800.138 832.919 799.926 831.943Q799.713 830.968 799.477 829.998Q799.24 829.028 798.98 828.064Q798.72 827.1 798.436 826.143Q798.152 825.185 797.845 824.235Q797.538 823.285 797.207 822.343Q796.877 821.401 796.523 820.467Q796.17 819.533 795.794 818.609Q795.417 817.684 795.018 816.768Q794.619 815.853 794.198 814.948Q793.777 814.043 793.333 813.148Q792.89 812.253 792.425 811.37Q791.959 810.487 791.472 809.615Q790.986 808.743 790.478 807.884Q789.969 807.024 789.44 806.177Q788.911 805.331 788.362 804.497Q787.812 803.664 787.242 802.844Q786.672 802.024 786.082 801.219Q785.492 800.413 784.882 799.622Q784.272 798.832 783.644 798.056Q783.015 797.281 782.367 796.521Q781.719 795.761 781.053 795.017Q780.387 794.274 779.703 793.546Q779.018 792.819 778.316 792.109Q777.615 791.399 776.895 790.707Q776.176 790.014 775.44 789.339Q774.704 788.664 773.952 788.008C758.609 774.485 737.067 766.793 716.614 768.194Q715.975 768.238 715.337 768.289Z"/>
</svg>
